<svg xmlns="http://www.w3.org/2000/svg" xmlns:xlink="http://www.w3.org/1999/xlink" viewBox="0 0 760 400">
  <path fill="#FFF" d="M0 0h760v400H0z"/>
  <path paint-order="stroke fill markers" d="M165.186 17.143a.528.528 0 111.056 0 .528.528 0 01-1.056 0zm11.357 0a.6.6 0 111.2 0 .6.6 0 01-1.2 0zm11.384 0a.645.645 0 111.29 0 .645.645 0 01-1.29 0zm11.403 0a.67.67 0 111.34 0 .67.67 0 01-1.34 0zm11.441 0a.657.657 0 111.315 0 .657.657 0 01-1.315 0zm11.476 0a.61.61 0 111.22 0 .61.61 0 01-1.22 0zm11.491 0a.548.548 0 111.095 0 .548.548 0 01-1.095 0zm-80.02 11.428a.568.568 0 111.135 0 .568.568 0 01-1.135 0zm11.297 0a.7.7 0 111.399 0 .7.7 0 01-1.4 0zm11.324 0a.804.804 0 111.608 0 .804.804 0 01-1.608 0zm11.351 0a.881.881 0 111.763 0 .881.881 0 01-1.763 0zm11.394 0a.916.916 0 111.832 0 .916.916 0 01-1.832 0zm11.446 0a.899.899 0 111.797 0 .899.899 0 01-1.797 0zm11.496 0a.832.832 0 111.663 0 .832.832 0 01-1.663 0zm11.528 0a.732.732 0 111.464 0 .732.732 0 01-1.464 0zm11.56 0a.6.6 0 111.2 0 .6.6 0 01-1.2 0zM142.3 40a.558.558 0 111.115 0 .558.558 0 01-1.116 0zm11.239 0a.747.747 0 111.494 0 .747.747 0 01-1.494 0zm11.227 0a.949.949 0 111.897 0 .949.949 0 01-1.897 0zm11.254 0a1.123 1.123 0 112.246 0 1.123 1.123 0 01-2.246 0zm11.309 0a1.242 1.242 0 112.485 0 1.242 1.242 0 01-2.485 0zm11.374 0a1.297 1.297 0 112.594 0 1.297 1.297 0 01-2.594 0zm11.456 0a1.27 1.27 0 112.54 0 1.27 1.27 0 01-2.54 0zm11.535 0a1.163 1.163 0 112.326 0 1.163 1.163 0 01-2.326 0zm11.593 0a.998.998 0 111.997 0 .998.998 0 01-1.997 0zm11.636 0a.792.792 0 111.583 0 .792.792 0 01-1.583 0zm11.612 0a.608.608 0 111.215 0 .608.608 0 01-1.215 0zM142.19 51.429a.667.667 0 111.334 0 .667.667 0 01-1.334 0zm11.16 0a.936.936 0 111.872 0 .936.936 0 01-1.872 0zm11.114 0a1.25 1.25 0 112.5 0 1.25 1.25 0 01-2.5 0zm11.163 0a1.516 1.516 0 113.032 0 1.516 1.516 0 01-3.032 0zm11.221 0a1.723 1.723 0 113.446 0 1.723 1.723 0 01-3.446 0zm11.324 0a1.828 1.828 0 113.656 0 1.828 1.828 0 01-3.656 0zm11.484 0a1.773 1.773 0 113.545 0 1.773 1.773 0 01-3.545 0zm11.628 0a1.574 1.574 0 113.147 0 1.574 1.574 0 01-3.147 0zm11.672 0a1.33 1.33 0 112.66 0 1.33 1.33 0 01-2.66 0zm11.742 0a1.016 1.016 0 112.032 0 1.016 1.016 0 01-2.032 0zm11.705 0a.74.74 0 111.48 0 .74.74 0 01-1.48 0zM142.068 62.857a.79.79 0 111.578 0 .79.79 0 01-1.578 0zm11.038 0a1.18 1.18 0 112.36 0 1.18 1.18 0 01-2.36 0zm10.935 0a1.673 1.673 0 113.346 0 1.673 1.673 0 01-3.346 0zm10.975 0a2.126 2.126 0 114.253 0 2.126 2.126 0 01-4.253 0zm11.113 0a2.443 2.443 0 114.885 0 2.443 2.443 0 01-4.885 0zm11.286 0a2.585 2.585 0 115.17 0 2.585 2.585 0 01-5.17 0zm11.496 0a2.517 2.517 0 115.035 0 2.517 2.517 0 01-5.035 0zm11.715 0a2.23 2.23 0 114.462 0 2.23 2.23 0 01-4.462 0zm11.86 0a1.8 1.8 0 113.6 0 1.8 1.8 0 01-3.6 0zm11.926 0a1.302 1.302 0 112.604 0 1.302 1.302 0 01-2.604 0zm11.842 0a.889.889 0 111.778 0 .889.889 0 01-1.778 0zm11.777 0a.54.54 0 111.08 0 .54.54 0 01-1.08 0zM141.996 74.286a.862.862 0 111.723 0 .862.862 0 01-1.723 0zm10.888 0a1.402 1.402 0 112.804 0 1.402 1.402 0 01-2.804 0zm10.674 0a2.156 2.156 0 114.313 0 2.156 2.156 0 01-4.313 0zm10.841 0a2.744 2.744 0 115.488 0 2.744 2.744 0 01-5.488 0zm11.028 0a3.145 3.145 0 116.29 0 3.145 3.145 0 01-6.29 0zm11.251 0a3.322 3.322 0 116.644 0 3.322 3.322 0 01-6.644 0zm11.514 0a3.237 3.237 0 116.473 0 3.237 3.237 0 01-6.473 0zm11.792 0a2.873 2.873 0 115.746 0 2.873 2.873 0 01-5.746 0zm11.969 0a2.333 2.333 0 114.666 0 2.333 2.333 0 01-4.666 0zm12.185 0a1.576 1.576 0 113.152 0 1.576 1.576 0 01-3.152 0zm12.006 0a.998.998 0 111.997 0 .998.998 0 01-1.997 0zm11.887 0a.54.54 0 111.08 0 .54.54 0 01-1.08 0zM62.314 85.714a.543.543 0 111.086 0 .543.543 0 01-1.086 0zm11.424 0a.548.548 0 111.095 0 .548.548 0 01-1.095 0zm11.476 0a.5.5 0 111 0 .5.5 0 01-1 0zm56.796 0a.847.847 0 111.694 0 .847.847 0 01-1.693 0zm10.675 0a1.601 1.601 0 113.202 0 1.601 1.601 0 01-3.202 0zm10.388 0a2.642 2.642 0 115.283 0 2.642 2.642 0 01-5.283 0zm10.659 0a3.411 3.411 0 116.822 0 3.411 3.411 0 01-6.822 0zm10.841 0a3.999 3.999 0 117.997 0 3.999 3.999 0 01-7.997 0zm11.117 0a4.31 4.31 0 118.62 0 4.31 4.31 0 01-8.62 0zm11.585 0a4.153 4.153 0 118.307 0 4.153 4.153 0 01-8.307 0zm11.989 0a3.593 3.593 0 117.186 0 3.593 3.593 0 01-7.186 0zm12.158 0a2.863 2.863 0 115.727 0 2.863 2.863 0 01-5.727 0zm12.43 0a1.862 1.862 0 113.725 0 1.862 1.862 0 01-3.725 0zm12.263 0a1.028 1.028 0 112.056 0 1.028 1.028 0 01-2.056 0zm69.056 0a.543.543 0 111.086 0 .543.543 0 01-1.086 0zm11.424 0a.548.548 0 111.096 0 .548.548 0 01-1.096 0zm11.468 0a.508.508 0 111.016 0 .508.508 0 01-1.016 0zM39.383 97.143a.617.617 0 111.234 0 .617.617 0 01-1.234 0zm11.331 0a.715.715 0 111.43 0 .715.715 0 01-1.43 0zm11.331 0a.812.812 0 111.624 0 .812.812 0 01-1.624 0zm11.369 0a.871.871 0 111.743 0 .871.871 0 01-1.743 0zm11.441 0a.859.859 0 111.718 0 .859.859 0 01-1.718 0zm11.533 0a.754.754 0 111.51 0 .754.754 0 01-1.51 0zm11.641 0a.543.543 0 111.085 0 .543.543 0 01-1.085 0zm34.124 0a.705.705 0 111.409 0 .705.705 0 01-1.41 0zm10.482 0a1.65 1.65 0 113.302 0 1.65 1.65 0 01-3.302 0zm10.099 0a2.98 2.98 0 115.96 0 2.98 2.98 0 01-5.96 0zm10.353 0a4.056 4.056 0 118.112 0 4.056 4.056 0 01-8.112 0zm10.51 0a4.975 4.975 0 119.95 0 4.975 4.975 0 01-9.95 0zm11.04 0a5.363 5.363 0 1110.726 0 5.363 5.363 0 01-10.726 0zm11.61 0a5.181 5.181 0 1110.363 0 5.181 5.181 0 01-10.363 0zm12.27 0a4.34 4.34 0 118.68 0 4.34 4.34 0 01-8.68 0zm12.49 0a3.28 3.28 0 116.558 0 3.28 3.28 0 01-6.558 0zm12.728 0a1.98 1.98 0 113.959 0 1.98 1.98 0 01-3.96 0zm12.489 0a.919.919 0 111.838 0 .919.919 0 01-1.838 0zm45.929 0a.705.705 0 111.409 0 .705.705 0 01-1.41 0zm11.291 0a.842.842 0 111.683 0 .842.842 0 01-1.683 0zm11.391 0a.879.879 0 111.758 0 .879.879 0 01-1.758 0zm11.474 0a.834.834 0 111.668 0 .834.834 0 01-1.668 0zm11.508 0a.754.754 0 111.509 0 .754.754 0 01-1.509 0zm11.543 0a.64.64 0 111.28 0 .64.64 0 01-1.28 0zm11.533 0a.535.535 0 111.07 0 .535.535 0 01-1.07 0zM16.615 108.571a.528.528 0 111.056 0 .528.528 0 01-1.056 0zm11.295 0a.662.662 0 111.324 0 .662.662 0 01-1.325 0zm11.253 0a.837.837 0 111.674 0 .837.837 0 01-1.674 0zm11.25 0a1.016 1.016 0 112.031 0 1.016 1.016 0 01-2.031 0zm11.239 0a1.205 1.205 0 112.41 0 1.205 1.205 0 01-2.41 0zm11.292 0a1.342 1.342 0 112.684 0 1.342 1.342 0 01-2.684 0zm11.351 0a1.42 1.42 0 112.839 0 1.42 1.42 0 01-2.839 0zm11.491 0a1.357 1.357 0 112.714 0 1.357 1.357 0 01-2.714 0zm11.665 0a1.12 1.12 0 112.24 0 1.12 1.12 0 01-2.24 0zm11.862 0a.687.687 0 111.374 0 .687.687 0 01-1.374 0zm33.501 0a1.472 1.472 0 112.943 0 1.472 1.472 0 01-2.943 0zm9.756 0a3.145 3.145 0 116.289 0 3.145 3.145 0 01-6.29 0zm9.9 0a4.674 4.674 0 119.346 0 4.674 4.674 0 01-9.347 0zm10.474 0a5.627 5.627 0 1111.255 0 5.627 5.627 0 01-11.255 0z"/>
  <path paint-order="stroke fill markers" d="M194.286 108.571a5.714 5.714 0 1111.428 0 5.714 5.714 0 01-11.428 0z"/>
  <path paint-order="stroke fill markers" d="M205.73 108.571a5.7 5.7 0 1111.398 0 5.7 5.7 0 01-11.399 0zm12.078 0a5.05 5.05 0 1110.099 0 5.05 5.05 0 01-10.1 0zm12.917 0a3.56 3.56 0 117.121 0 3.56 3.56 0 01-7.12 0zm13.119 0a1.87 1.87 0 113.74 0 1.87 1.87 0 01-3.74 0zm12.654 0a.645.645 0 111.29 0 .645.645 0 01-1.29 0zm22.947 0a.555.555 0 111.11 0 .555.555 0 01-1.11 0zm10.988 0a.996.996 0 111.992 0 .996.996 0 01-1.992 0zm11.117 0a1.307 1.307 0 112.614 0 1.307 1.307 0 01-2.614 0zm11.316 0a1.42 1.42 0 112.839 0 1.42 1.42 0 01-2.839 0zm11.474 0a1.374 1.374 0 112.749 0 1.374 1.374 0 01-2.75 0zm11.56 0a1.242 1.242 0 112.485 0 1.242 1.242 0 01-2.485 0zm11.588 0a1.083 1.083 0 112.167 0 1.083 1.083 0 01-2.167 0zm11.628 0a.884.884 0 111.768 0 .884.884 0 01-1.768 0zm11.598 0a.715.715 0 111.43 0 .715.715 0 01-1.43 0zm11.58 0a.563.563 0 111.126 0 .563.563 0 01-1.126 0zM5.189 120a.525.525 0 111.05 0 .525.525 0 01-1.05 0zm11.261 0a.692.692 0 111.385 0 .692.692 0 01-1.384 0zm11.235 0a.886.886 0 111.773 0 .886.886 0 01-1.773 0zm11.162 0a1.153 1.153 0 112.306 0 1.153 1.153 0 01-2.306 0zm11.145 0a1.437 1.437 0 112.873 0 1.437 1.437 0 01-2.873 0zm11.04 0a1.825 1.825 0 113.65 0 1.825 1.825 0 01-3.65 0zm11.095 0a2.159 2.159 0 114.317 0 2.159 2.159 0 01-4.317 0zm11.183 0a2.405 2.405 0 114.81 0 2.405 2.405 0 01-4.81 0zm11.373 0a2.46 2.46 0 114.92 0 2.46 2.46 0 01-4.92 0zm11.605 0a2.283 2.283 0 114.567 0 2.283 2.283 0 01-4.567 0zm11.989 0a1.723 1.723 0 113.446 0 1.723 1.723 0 01-3.446 0zm12.225 0a.926.926 0 111.853 0 .926.926 0 01-1.853 0zm22.838 0a.946.946 0 111.892 0 .946.946 0 01-1.892 0zm9.401 0a2.973 2.973 0 115.946 0 2.973 2.973 0 01-5.946 0zm9.385 0a5.017 5.017 0 1110.034 0 5.017 5.017 0 01-10.034 0zm10.731 0a5.714 5.714 0 1111.429 0 5.714 5.714 0 01-11.429 0z"/>
  <path paint-order="stroke fill markers" d="M194.286 120a5.714 5.714 0 1111.428 0 5.714 5.714 0 01-11.428 0z"/>
  <path paint-order="stroke fill markers" d="M205.714 120a5.714 5.714 0 1111.429 0 5.714 5.714 0 01-11.429 0zm11.74 0a5.403 5.403 0 1110.806 0 5.403 5.403 0 01-10.806 0zm13.291 0a3.54 3.54 0 117.081 0 3.54 3.54 0 01-7.08 0zm13.59 0a1.38 1.38 0 112.759 0 1.38 1.38 0 01-2.76 0zm23.611 0a.625.625 0 111.25 0 .625.625 0 01-1.25 0zm10.54 0a1.514 1.514 0 113.028 0 1.514 1.514 0 01-3.028 0zm10.804 0a2.139 2.139 0 114.277 0 2.139 2.139 0 01-4.277 0zm11.127 0a2.44 2.44 0 114.88 0 2.44 2.44 0 01-4.88 0zm11.423 0a2.445 2.445 0 114.89 0 2.445 2.445 0 01-4.89 0zm11.638 0a2.236 2.236 0 114.472 0 2.236 2.236 0 01-4.472 0zm11.752 0a1.912 1.912 0 113.825 0 1.912 1.912 0 01-3.824 0zm11.778 0a1.564 1.564 0 113.127 0 1.564 1.564 0 01-3.127 0zm11.764 0a1.228 1.228 0 112.456 0 1.228 1.228 0 01-2.456 0zm11.686 0a.971.971 0 111.942 0 .971.971 0 01-1.942 0zm11.665 0a.735.735 0 111.469 0 .735.735 0 01-1.47 0zm11.597 0a.565.565 0 111.13 0 .565.565 0 01-1.13 0zM5.074 131.429a.64.64 0 111.28 0 .64.64 0 01-1.28 0zm11.227 0a.842.842 0 111.683 0 .842.842 0 01-1.683 0zm11.145 0a1.125 1.125 0 112.25 0 1.125 1.125 0 01-2.25 0zm11.048 0a1.506 1.506 0 113.012 0 1.506 1.506 0 01-3.012 0zm10.94 0a1.994 1.994 0 113.989 0 1.994 1.994 0 01-3.989 0zm10.874 0a2.55 2.55 0 115.099 0 2.55 2.55 0 01-5.1 0zm10.955 0a3.023 3.023 0 116.045 0 3.023 3.023 0 01-6.045 0zm11.005 0a3.446 3.446 0 116.892 0 3.446 3.446 0 01-6.892 0zm11.167 0a3.707 3.707 0 117.415 0 3.707 3.707 0 01-7.415 0zm11.422 0a3.715 3.715 0 117.43 0 3.715 3.715 0 01-7.43 0zm11.859 0a3.284 3.284 0 116.568 0 3.284 3.284 0 01-6.568 0zm12.324 0a2.388 2.388 0 114.776 0 2.388 2.388 0 01-4.775 0zm12.878 0a.939.939 0 111.878 0 .939.939 0 01-1.878 0zm21.476 0a2.32 2.32 0 114.64 0 2.32 2.32 0 01-4.64 0zm8.886 0a4.863 4.863 0 119.726 0 4.863 4.863 0 01-9.726 0zm10.577 0a5.714 5.714 0 1111.429 0 5.714 5.714 0 01-11.429 0z"/>
  <path paint-order="stroke fill markers" d="M194.286 131.429a5.714 5.714 0 1111.428 0 5.714 5.714 0 01-11.428 0z"/>
  <path paint-order="stroke fill markers" d="M205.714 131.429a5.714 5.714 0 1111.429 0 5.714 5.714 0 01-11.429 0zm11.795 0a5.348 5.348 0 1110.696 0 5.348 5.348 0 01-10.696 0zm13.779 0a2.998 2.998 0 115.996 0 2.998 2.998 0 01-5.996 0zm13.774 0a.652.652 0 111.305 0 .652.652 0 01-1.305 0zm11.463 0a.617.617 0 111.235 0 .617.617 0 01-1.235 0zm10.115 0a1.932 1.932 0 113.864 0 1.932 1.932 0 01-3.865 0zm10.265 0a3.095 3.095 0 116.19 0 3.095 3.095 0 01-6.19 0zm10.898 0a3.625 3.625 0 117.25 0 3.625 3.625 0 01-7.25 0zm11.309 0a3.745 3.745 0 117.49 0 3.745 3.745 0 01-7.49 0zm11.638 0a3.536 3.536 0 117.071 0 3.536 3.536 0 01-7.07 0zm11.83 0a3.135 3.135 0 116.27 0 3.135 3.135 0 01-6.27 0zm11.876 0a2.687 2.687 0 115.373 0 2.687 2.687 0 01-5.373 0zm11.932 0a2.184 2.184 0 114.367 0 2.184 2.184 0 01-4.367 0zm11.986 0a1.626 1.626 0 113.252 0 1.626 1.626 0 01-3.252 0zm11.812 0a1.242 1.242 0 112.485 0 1.242 1.242 0 01-2.485 0zm11.757 0a.914.914 0 111.828 0 .914.914 0 01-1.828 0zm11.651 0a.692.692 0 111.384 0 .692.692 0 01-1.384 0zM4.947 142.857a.767.767 0 111.534 0 .767.767 0 01-1.534 0zm11.155 0a1.04 1.04 0 112.082 0 1.04 1.04 0 01-2.082 0zm11.063 0a1.407 1.407 0 112.813 0 1.407 1.407 0 01-2.813 0zm10.833 0a2.002 2.002 0 114.004 0 2.002 2.002 0 01-4.004 0zm10.796 0a2.634 2.634 0 115.269 0 2.634 2.634 0 01-5.269 0zm10.719 0a3.344 3.344 0 116.688 0 3.344 3.344 0 01-6.688 0zm10.722 0a4.051 4.051 0 118.102 0 4.051 4.051 0 01-8.102 0zm10.587 0a4.893 4.893 0 119.785 0 4.893 4.893 0 01-9.785 0zm10.96 0a5.36 5.36 0 1110.722 0 5.36 5.36 0 01-10.722 0zm11.287 0a5.503 5.503 0 1111.005 0 5.503 5.503 0 01-11.005 0zm11.563 0a5.368 5.368 0 1110.736 0 5.368 5.368 0 01-10.736 0zm12.038 0a4.758 4.758 0 119.517 0 4.758 4.758 0 01-9.517 0zm13.097 0a3.09 3.09 0 116.18 0 3.09 3.09 0 01-6.18 0zm13.5 0a1.018 1.018 0 112.037 0 1.018 1.018 0 01-2.037 0zm11.382 0a1.066 1.066 0 112.131 0 1.066 1.066 0 01-2.131 0zm8.461 0a4.034 4.034 0 118.066 0 4.034 4.034 0 01-8.067 0zm9.75 0a5.712 5.712 0 1111.423 0 5.712 5.712 0 01-11.423 0z"/>
  <path paint-order="stroke fill markers" d="M194.286 142.857a5.714 5.714 0 1111.428 0 5.714 5.714 0 01-11.428 0z"/>
  <path paint-order="stroke fill markers" d="M205.714 142.857a5.714 5.714 0 1111.429 0 5.714 5.714 0 01-11.429 0zm12.366 0a4.778 4.778 0 119.555 0 4.778 4.778 0 01-9.556 0zm14.458 0a1.748 1.748 0 113.496 0 1.748 1.748 0 01-3.496 0zm12.554 0a.622.622 0 111.245 0 .622.622 0 01-1.245 0zm9.524 0a2.527 2.527 0 115.054 0 2.527 2.527 0 01-5.054 0zm9.626 0a4.33 4.33 0 118.66 0 4.33 4.33 0 01-8.66 0zm10.492 0a5.266 5.266 0 1110.532 0 5.266 5.266 0 01-10.532 0zm11.199 0a5.495 5.495 0 1110.99 0 5.495 5.495 0 01-10.99 0zm11.497 0a5.428 5.428 0 1110.855 0 5.428 5.428 0 01-10.856 0zm11.796 0a5.06 5.06 0 1110.12 0 5.06 5.06 0 01-10.12 0zm12.218 0a4.27 4.27 0 118.54 0 4.27 4.27 0 01-8.54 0zm12.178 0a3.52 3.52 0 117.042 0 3.52 3.52 0 01-7.042 0zm12.081 0a2.868 2.868 0 115.737 0 2.868 2.868 0 01-5.737 0zm12.126 0a2.171 2.171 0 114.342 0 2.171 2.171 0 01-4.342 0zm12.021 0a1.579 1.579 0 113.157 0 1.579 1.579 0 01-3.157 0zm11.87 0a1.138 1.138 0 112.275 0 1.138 1.138 0 01-2.276 0zm11.732 0a.834.834 0 111.668 0 .834.834 0 01-1.668 0zM4.823 154.286a.891.891 0 111.783 0 .891.891 0 01-1.783 0zm11.092 0a1.228 1.228 0 112.455 0 1.228 1.228 0 01-2.455 0zm10.943 0a1.713 1.713 0 113.426 0 1.713 1.713 0 01-3.426 0zm10.694 0a2.448 2.448 0 114.896 0 2.448 2.448 0 01-4.896 0zm10.697 0a3.18 3.18 0 116.36 0 3.18 3.18 0 01-6.36 0zm10.495 0a4.113 4.113 0 118.226 0 4.113 4.113 0 01-8.226 0zm10.4 0a5.142 5.142 0 1110.283 0 5.142 5.142 0 01-10.283 0zm10.883 0a5.687 5.687 0 1111.374 0 5.687 5.687 0 01-11.374 0zm11.402 0a5.714 5.714 0 1111.428 0 5.714 5.714 0 01-11.428 0z"/>
  <path paint-order="stroke fill markers" d="M102.857 154.286a5.714 5.714 0 1111.429 0 5.714 5.714 0 01-11.429 0z"/>
  <path paint-order="stroke fill markers" d="M114.286 154.286a5.714 5.714 0 1111.428 0 5.714 5.714 0 01-11.428 0z"/>
  <path paint-order="stroke fill markers" d="M125.714 154.286a5.714 5.714 0 1111.429 0 5.714 5.714 0 01-11.429 0zm11.748 0a5.396 5.396 0 1110.79 0 5.396 5.396 0 01-10.79 0zm13.293 0a3.53 3.53 0 117.061 0 3.53 3.53 0 01-7.06 0zm14.212 0a.747.747 0 111.494 0 .747.747 0 01-1.494 0zm9.815 0a2.36 2.36 0 114.721 0 2.36 2.36 0 01-4.72 0zm8.434 0a5.356 5.356 0 1110.711 0 5.356 5.356 0 01-10.711 0zm11.07 0a5.714 5.714 0 1111.428 0 5.714 5.714 0 01-11.428 0zm11.461 0a5.682 5.682 0 1111.363 0 5.682 5.682 0 01-11.363 0zm13.751 0a3.359 3.359 0 116.718 0 3.359 3.359 0 01-6.718 0zm14.118 0a.67.67 0 111.34 0 .67.67 0 01-1.34 0zm9.389 0a2.709 2.709 0 115.418 0 2.709 2.709 0 01-5.418 0zm9.046 0a5.092 5.092 0 1110.184 0 5.092 5.092 0 01-10.184 0zm10.814 0a5.707 5.707 0 1111.413 0 5.707 5.707 0 01-11.413 0z"/>
  <path paint-order="stroke fill markers" d="M274.286 154.286a5.714 5.714 0 1111.428 0 5.714 5.714 0 01-11.428 0z"/>
  <path paint-order="stroke fill markers" d="M285.714 154.286a5.714 5.714 0 1111.429 0 5.714 5.714 0 01-11.429 0z"/>
  <path paint-order="stroke fill markers" d="M297.143 154.286a5.714 5.714 0 1111.428 0 5.714 5.714 0 01-11.428 0z"/>
  <path paint-order="stroke fill markers" d="M308.576 154.286a5.71 5.71 0 1111.419 0 5.71 5.71 0 01-11.419 0zm11.775 0a5.363 5.363 0 1110.726 0 5.363 5.363 0 01-10.726 0zm12.392 0a4.4 4.4 0 118.8 0 4.4 4.4 0 01-8.8 0zm12.37 0a3.458 3.458 0 116.917 0 3.458 3.458 0 01-6.917 0zm12.243 0a2.644 2.644 0 115.288 0 2.644 2.644 0 01-5.288 0zm12.123 0a1.95 1.95 0 113.9 0 1.95 1.95 0 01-3.9 0zm12.041 0a1.337 1.337 0 112.674 0 1.337 1.337 0 01-2.674 0zm11.792 0a.974.974 0 111.947 0 .974.974 0 01-1.947 0zM4.7 165.714a1.013 1.013 0 112.028 0 1.013 1.013 0 01-2.027 0zm11.029 0a1.414 1.414 0 112.828 0 1.414 1.414 0 01-2.828 0zm10.798 0a2.044 2.044 0 114.089 0 2.044 2.044 0 01-4.089 0zm10.607 0a2.866 2.866 0 115.732 0 2.866 2.866 0 01-5.732 0zm10.572 0a3.722 3.722 0 117.445 0 3.722 3.722 0 01-7.445 0zm10.159 0a4.992 4.992 0 119.984 0 4.992 4.992 0 01-9.984 0zm10.734 0a5.687 5.687 0 1111.374 0 5.687 5.687 0 01-11.374 0zm11.401 0a5.714 5.714 0 1111.429 0 5.714 5.714 0 01-11.429 0z"/>
  <path paint-order="stroke fill markers" d="M91.429 165.714a5.714 5.714 0 1111.428 0 5.714 5.714 0 01-11.428 0z"/>
  <path paint-order="stroke fill markers" d="M102.857 165.714a5.714 5.714 0 1111.429 0 5.714 5.714 0 01-11.429 0z"/>
  <path paint-order="stroke fill markers" d="M114.286 165.714a5.714 5.714 0 1111.428 0 5.714 5.714 0 01-11.428 0z"/>
  <path paint-order="stroke fill markers" d="M125.714 165.714a5.714 5.714 0 1111.429 0 5.714 5.714 0 01-11.429 0z"/>
  <path paint-order="stroke fill markers" d="M137.143 165.714a5.714 5.714 0 1111.428 0 5.714 5.714 0 01-11.428 0zm11.506 0a5.637 5.637 0 1111.274 0 5.637 5.637 0 01-11.274 0zm13.649 0a3.416 3.416 0 116.832 0 3.416 3.416 0 01-6.832 0zm13.991 0a.854.854 0 111.708 0 .854.854 0 01-1.708 0zm8.627 0a3.655 3.655 0 117.31 0 3.655 3.655 0 01-7.31 0zm9.454 0a5.63 5.63 0 1111.26 0 5.63 5.63 0 01-11.26 0zm12.313 0a4.746 4.746 0 119.491 0 4.746 4.746 0 01-9.491 0zm14.977 0a1.198 1.198 0 112.395 0 1.198 1.198 0 01-2.395 0zm10.24 0a2.385 2.385 0 114.771 0 2.385 2.385 0 01-4.77 0zm8.381 0a5.433 5.433 0 1110.866 0 5.433 5.433 0 01-10.866 0zm11.148 0a5.714 5.714 0 1111.428 0 5.714 5.714 0 01-11.428 0zm11.428 0a5.714 5.714 0 1111.429 0 5.714 5.714 0 01-11.429 0z"/>
  <path paint-order="stroke fill markers" d="M274.286 165.714a5.714 5.714 0 1111.428 0 5.714 5.714 0 01-11.428 0z"/>
  <path paint-order="stroke fill markers" d="M285.714 165.714a5.714 5.714 0 1111.429 0 5.714 5.714 0 01-11.429 0z"/>
  <path paint-order="stroke fill markers" d="M297.143 165.714a5.714 5.714 0 1111.428 0 5.714 5.714 0 01-11.428 0z"/>
  <path paint-order="stroke fill markers" d="M308.571 165.714a5.714 5.714 0 1111.429 0 5.714 5.714 0 01-11.429 0zm11.429 0a5.714 5.714 0 1111.429 0 5.714 5.714 0 01-11.429 0zm11.852 0a5.291 5.291 0 1110.582 0 5.291 5.291 0 01-10.582 0zm12.611 0a4.108 4.108 0 118.217 0 4.108 4.108 0 01-8.217 0zm12.452 0a3.085 3.085 0 116.17 0 3.085 3.085 0 01-6.17 0zm12.203 0a2.31 2.31 0 114.621 0 2.31 2.31 0 01-4.621 0zm12.18 0a1.559 1.559 0 113.118 0 1.559 1.559 0 01-3.118 0zm11.872 0a1.115 1.115 0 112.231 0 1.115 1.115 0 01-2.23 0zM4.606 177.143a1.108 1.108 0 112.216 0 1.108 1.108 0 01-2.216 0zm10.968 0a1.569 1.569 0 113.137 0 1.569 1.569 0 01-3.137 0zm10.729 0a2.268 2.268 0 114.537 0 2.268 2.268 0 01-4.537 0zm10.532 0a3.165 3.165 0 116.33 0 3.165 3.165 0 01-6.33 0zm10.413 0a4.18 4.18 0 118.361 0 4.18 4.18 0 01-8.36 0zm10.126 0a5.483 5.483 0 1110.966 0 5.483 5.483 0 01-10.966 0zm11.197 0a5.714 5.714 0 1111.429 0 5.714 5.714 0 01-11.429 0z"/>
  <path paint-order="stroke fill markers" d="M80 177.143a5.714 5.714 0 1111.429 0 5.714 5.714 0 01-11.429 0z"/>
  <path paint-order="stroke fill markers" d="M91.429 177.143a5.714 5.714 0 1111.428 0 5.714 5.714 0 01-11.428 0z"/>
  <path paint-order="stroke fill markers" d="M102.857 177.143a5.714 5.714 0 1111.429 0 5.714 5.714 0 01-11.429 0z"/>
  <path paint-order="stroke fill markers" d="M114.286 177.143a5.714 5.714 0 1111.428 0 5.714 5.714 0 01-11.428 0z"/>
  <path paint-order="stroke fill markers" d="M125.714 177.143a5.714 5.714 0 1111.429 0 5.714 5.714 0 01-11.429 0z"/>
  <path paint-order="stroke fill markers" d="M137.143 177.143a5.714 5.714 0 1111.428 0 5.714 5.714 0 01-11.428 0z"/>
  <path paint-order="stroke fill markers" d="M148.571 177.143a5.714 5.714 0 1111.429 0 5.714 5.714 0 01-11.429 0zm11.576 0a5.567 5.567 0 1111.135 0 5.567 5.567 0 01-11.135 0zm14.324 0a2.672 2.672 0 115.344 0 2.672 2.672 0 01-5.344 0zm12.829 0a1.272 1.272 0 112.544 0 1.272 1.272 0 01-2.545 0zm8.958 0a3.742 3.742 0 117.484 0 3.742 3.742 0 01-7.484 0zm12.92 0a2.25 2.25 0 114.501 0 2.25 2.25 0 01-4.501 0zm12.043 0a1.636 1.636 0 113.272 0 1.636 1.636 0 01-3.272 0zm7.863 0a5.201 5.201 0 1110.403 0 5.201 5.201 0 01-10.403 0zm10.916 0a5.714 5.714 0 1111.429 0 5.714 5.714 0 01-11.429 0z"/>
  <path paint-order="stroke fill markers" d="M251.429 177.143a5.714 5.714 0 1111.428 0 5.714 5.714 0 01-11.428 0zm11.428 0a5.714 5.714 0 1111.429 0 5.714 5.714 0 01-11.429 0z"/>
  <path paint-order="stroke fill markers" d="M274.286 177.143a5.714 5.714 0 1111.428 0 5.714 5.714 0 01-11.428 0z"/>
  <path paint-order="stroke fill markers" d="M285.714 177.143a5.714 5.714 0 1111.429 0 5.714 5.714 0 01-11.429 0z"/>
  <path paint-order="stroke fill markers" d="M297.143 177.143a5.714 5.714 0 1111.428 0 5.714 5.714 0 01-11.428 0z"/>
  <path paint-order="stroke fill markers" d="M308.571 177.143a5.714 5.714 0 1111.429 0 5.714 5.714 0 01-11.429 0zm11.429 0a5.714 5.714 0 1111.429 0 5.714 5.714 0 01-11.429 0zm11.503 0a5.64 5.64 0 1111.28 0 5.64 5.64 0 01-11.28 0zm12.417 0a4.651 4.651 0 119.303 0 4.651 4.651 0 01-9.303 0zm12.679 0a3.401 3.401 0 116.802 0 3.401 3.401 0 01-6.802 0zm12.27 0a2.56 2.56 0 115.12 0 2.56 2.56 0 01-5.12 0zm12.258 0a1.73 1.73 0 113.46 0 1.73 1.73 0 01-3.46 0zm11.941 0a1.218 1.218 0 112.435 0 1.218 1.218 0 01-2.435 0zM4.542 188.571a1.173 1.173 0 112.345 0 1.173 1.173 0 01-2.345 0zm10.923 0a1.678 1.678 0 113.356 0 1.678 1.678 0 01-3.356 0zm10.676 0a2.43 2.43 0 114.86 0 2.43 2.43 0 01-4.86 0zm10.495 0a3.364 3.364 0 116.728 0 3.364 3.364 0 01-6.728 0zm10.276 0a4.517 4.517 0 119.033 0 4.517 4.517 0 01-9.033 0zm10.298 0a5.647 5.647 0 1111.294 0 5.647 5.647 0 01-11.294 0zm11.361 0a5.714 5.714 0 1111.429 0 5.714 5.714 0 01-11.429 0z"/>
  <path paint-order="stroke fill markers" d="M80 188.571a5.714 5.714 0 1111.429 0 5.714 5.714 0 01-11.429 0z"/>
  <path paint-order="stroke fill markers" d="M91.429 188.571a5.714 5.714 0 1111.428 0 5.714 5.714 0 01-11.428 0z"/>
  <path paint-order="stroke fill markers" d="M102.857 188.571a5.714 5.714 0 1111.429 0 5.714 5.714 0 01-11.429 0z"/>
  <path paint-order="stroke fill markers" d="M114.286 188.571a5.714 5.714 0 1111.428 0 5.714 5.714 0 01-11.428 0z"/>
  <path paint-order="stroke fill markers" d="M125.714 188.571a5.714 5.714 0 1111.429 0 5.714 5.714 0 01-11.429 0z"/>
  <path paint-order="stroke fill markers" d="M137.143 188.571a5.714 5.714 0 1111.428 0 5.714 5.714 0 01-11.428 0z"/>
  <path paint-order="stroke fill markers" d="M148.571 188.571a5.714 5.714 0 1111.429 0 5.714 5.714 0 01-11.429 0z"/>
  <path paint-order="stroke fill markers" d="M160 188.571a5.714 5.714 0 1111.429 0 5.714 5.714 0 01-11.429 0zm11.897 0a5.246 5.246 0 1110.492 0 5.246 5.246 0 01-10.492 0zm15.253 0a1.422 1.422 0 112.843 0 1.422 1.422 0 01-2.843 0zm11.72 0a1.13 1.13 0 112.26 0 1.13 1.13 0 01-2.26 0zm11.812 0a.747.747 0 111.494 0 .747.747 0 01-1.494 0zm7.723 0a4.452 4.452 0 118.904 0 4.452 4.452 0 01-8.904 0zm10.166 0a5.714 5.714 0 1111.429 0 5.714 5.714 0 01-11.429 0z"/>
  <path paint-order="stroke fill markers" d="M240 188.571a5.714 5.714 0 1111.429 0 5.714 5.714 0 01-11.429 0z"/>
  <path paint-order="stroke fill markers" d="M251.429 188.571a5.714 5.714 0 1111.428 0 5.714 5.714 0 01-11.428 0zm11.428 0a5.714 5.714 0 1111.429 0 5.714 5.714 0 01-11.429 0z"/>
  <path paint-order="stroke fill markers" d="M274.286 188.571a5.714 5.714 0 1111.428 0 5.714 5.714 0 01-11.428 0z"/>
  <path paint-order="stroke fill markers" d="M285.714 188.571a5.714 5.714 0 1111.429 0 5.714 5.714 0 01-11.429 0z"/>
  <path paint-order="stroke fill markers" d="M297.143 188.571a5.714 5.714 0 1111.428 0 5.714 5.714 0 01-11.428 0z"/>
  <path paint-order="stroke fill markers" d="M308.571 188.571a5.714 5.714 0 1111.429 0 5.714 5.714 0 01-11.429 0zm11.429 0a5.714 5.714 0 1111.429 0 5.714 5.714 0 01-11.429 0z"/>
  <path paint-order="stroke fill markers" d="M331.429 188.571a5.714 5.714 0 1111.428 0 5.714 5.714 0 01-11.428 0zm12.123 0a5.02 5.02 0 1110.039 0 5.02 5.02 0 01-10.04 0zm12.818 0a3.63 3.63 0 117.26 0 3.63 3.63 0 01-7.26 0zm12.33 0a2.729 2.729 0 115.457 0 2.729 2.729 0 01-5.457 0zm12.285 0a1.872 1.872 0 113.745 0 1.872 1.872 0 01-3.745 0zm12.018 0a1.282 1.282 0 112.565 0 1.282 1.282 0 01-2.565 0zM4.502 200a1.213 1.213 0 112.425 0 1.213 1.213 0 01-2.425 0zm10.908 0a1.733 1.733 0 113.466 0 1.733 1.733 0 01-3.466 0zm10.654 0a2.507 2.507 0 115.015 0 2.507 2.507 0 01-5.015 0zm10.485 0a3.451 3.451 0 116.902 0 3.451 3.451 0 01-6.902 0zm10.231 0a4.649 4.649 0 119.297 0 4.649 4.649 0 01-9.297 0zm10.38 0a5.697 5.697 0 1111.394 0 5.697 5.697 0 01-11.394 0zm11.411 0A5.714 5.714 0 1180 200a5.714 5.714 0 01-11.429 0z"/>
  <path paint-order="stroke fill markers" d="M80 200a5.714 5.714 0 1111.429 0A5.714 5.714 0 0180 200z"/>
  <path paint-order="stroke fill markers" d="M91.429 200a5.714 5.714 0 1111.428 0 5.714 5.714 0 01-11.428 0z"/>
  <path paint-order="stroke fill markers" d="M102.857 200a5.714 5.714 0 1111.429 0 5.714 5.714 0 01-11.429 0z"/>
  <path paint-order="stroke fill markers" d="M114.286 200a5.714 5.714 0 1111.428 0 5.714 5.714 0 01-11.428 0z"/>
  <path paint-order="stroke fill markers" d="M125.714 200a5.714 5.714 0 1111.429 0 5.714 5.714 0 01-11.429 0z"/>
  <path paint-order="stroke fill markers" d="M137.143 200a5.714 5.714 0 1111.428 0 5.714 5.714 0 01-11.428 0z"/>
  <path paint-order="stroke fill markers" d="M148.571 200A5.714 5.714 0 11160 200a5.714 5.714 0 01-11.429 0z"/>
  <path paint-order="stroke fill markers" d="M160 200a5.714 5.714 0 1111.429 0A5.714 5.714 0 01160 200z"/>
  <path paint-order="stroke fill markers" d="M171.429 200a5.714 5.714 0 1111.428 0 5.714 5.714 0 01-11.428 0zm13.861 0a3.282 3.282 0 116.563 0 3.282 3.282 0 01-6.563 0zm24.538 0a1.601 1.601 0 113.202 0 1.601 1.601 0 01-3.202 0zm7.434 0a5.595 5.595 0 1111.19 0 5.595 5.595 0 01-11.19 0zm11.309 0A5.714 5.714 0 11240 200a5.714 5.714 0 01-11.429 0z"/>
  <path paint-order="stroke fill markers" d="M240 200a5.714 5.714 0 1111.429 0A5.714 5.714 0 01240 200z"/>
  <path paint-order="stroke fill markers" d="M251.429 200a5.714 5.714 0 1111.428 0 5.714 5.714 0 01-11.428 0zm11.428 0a5.714 5.714 0 1111.429 0 5.714 5.714 0 01-11.429 0z"/>
  <path paint-order="stroke fill markers" d="M274.286 200a5.714 5.714 0 1111.428 0 5.714 5.714 0 01-11.428 0z"/>
  <path paint-order="stroke fill markers" d="M285.714 200a5.714 5.714 0 1111.429 0 5.714 5.714 0 01-11.429 0z"/>
  <path paint-order="stroke fill markers" d="M297.143 200a5.714 5.714 0 1111.428 0 5.714 5.714 0 01-11.428 0z"/>
  <path paint-order="stroke fill markers" d="M308.571 200A5.714 5.714 0 11320 200a5.714 5.714 0 01-11.429 0zM320 200a5.714 5.714 0 1111.429 0A5.714 5.714 0 01320 200z"/>
  <path paint-order="stroke fill markers" d="M331.429 200a5.714 5.714 0 1111.428 0 5.714 5.714 0 01-11.428 0zm11.981 0a5.162 5.162 0 1110.323 0 5.162 5.162 0 01-10.323 0zm12.863 0a3.727 3.727 0 117.454 0 3.727 3.727 0 01-7.454 0zm12.347 0a2.809 2.809 0 115.617 0 2.809 2.809 0 01-5.617 0zm12.315 0a1.922 1.922 0 113.844 0 1.922 1.922 0 01-3.844 0zm12.031 0a1.32 1.32 0 112.64 0 1.32 1.32 0 01-2.64 0zM4.524 211.429a1.19 1.19 0 112.38 0 1.19 1.19 0 01-2.38 0zm10.911 0a1.708 1.708 0 113.416 0 1.708 1.708 0 01-3.416 0zm10.669 0a2.467 2.467 0 114.935 0 2.467 2.467 0 01-4.935 0zm10.482 0a3.414 3.414 0 116.828 0 3.414 3.414 0 01-6.828 0zm10.256 0a4.586 4.586 0 119.173 0 4.586 4.586 0 01-9.173 0zm10.343 0a5.672 5.672 0 1111.344 0 5.672 5.672 0 01-11.344 0zm11.386 0a5.714 5.714 0 1111.429 0 5.714 5.714 0 01-11.429 0z"/>
  <path paint-order="stroke fill markers" d="M80 211.429a5.714 5.714 0 1111.429 0 5.714 5.714 0 01-11.429 0z"/>
  <path paint-order="stroke fill markers" d="M91.429 211.429a5.714 5.714 0 1111.428 0 5.714 5.714 0 01-11.428 0z"/>
  <path paint-order="stroke fill markers" d="M102.857 211.429a5.714 5.714 0 1111.429 0 5.714 5.714 0 01-11.429 0z"/>
  <path paint-order="stroke fill markers" d="M114.286 211.429a5.714 5.714 0 1111.428 0 5.714 5.714 0 01-11.428 0z"/>
  <path paint-order="stroke fill markers" d="M125.714 211.429a5.714 5.714 0 1111.429 0 5.714 5.714 0 01-11.429 0z"/>
  <path paint-order="stroke fill markers" d="M137.143 211.429a5.714 5.714 0 1111.428 0 5.714 5.714 0 01-11.428 0z"/>
  <path paint-order="stroke fill markers" d="M148.571 211.429a5.714 5.714 0 1111.429 0 5.714 5.714 0 01-11.429 0z"/>
  <path paint-order="stroke fill markers" d="M160 211.429a5.714 5.714 0 1111.429 0 5.714 5.714 0 01-11.429 0zm11.563 0a5.58 5.58 0 1111.16 0 5.58 5.58 0 01-11.16 0zm14.837 0a2.171 2.171 0 114.343 0 2.171 2.171 0 01-4.343 0zm13.07 0a.53.53 0 111.06 0 .53.53 0 01-1.06 0zm11.005 0a.954.954 0 111.907 0 .954.954 0 01-1.907 0zm7.303 0a5.08 5.08 0 1110.159 0 5.08 5.08 0 01-10.16 0zm10.793 0a5.714 5.714 0 1111.429 0 5.714 5.714 0 01-11.429 0z"/>
  <path paint-order="stroke fill markers" d="M240 211.429a5.714 5.714 0 1111.429 0 5.714 5.714 0 01-11.429 0z"/>
  <path paint-order="stroke fill markers" d="M251.429 211.429a5.714 5.714 0 1111.428 0 5.714 5.714 0 01-11.428 0zm11.428 0a5.714 5.714 0 1111.429 0 5.714 5.714 0 01-11.429 0z"/>
  <path paint-order="stroke fill markers" d="M274.286 211.429a5.714 5.714 0 1111.428 0 5.714 5.714 0 01-11.428 0z"/>
  <path paint-order="stroke fill markers" d="M285.714 211.429a5.714 5.714 0 1111.429 0 5.714 5.714 0 01-11.429 0z"/>
  <path paint-order="stroke fill markers" d="M297.143 211.429a5.714 5.714 0 1111.428 0 5.714 5.714 0 01-11.428 0z"/>
  <path paint-order="stroke fill markers" d="M308.571 211.429a5.714 5.714 0 1111.429 0 5.714 5.714 0 01-11.429 0zm11.429 0a5.714 5.714 0 1111.429 0 5.714 5.714 0 01-11.429 0z"/>
  <path paint-order="stroke fill markers" d="M331.429 211.429a5.714 5.714 0 1111.428 0 5.714 5.714 0 01-11.428 0zm12.051 0a5.092 5.092 0 1110.183 0 5.092 5.092 0 01-10.183 0zm12.84 0a3.68 3.68 0 117.36 0 3.68 3.68 0 01-7.36 0zm12.337 0a2.771 2.771 0 115.543 0 2.771 2.771 0 01-5.543 0zm12.305 0a1.895 1.895 0 113.79 0 1.895 1.895 0 01-3.79 0zm12.024 0a1.3 1.3 0 112.6 0 1.3 1.3 0 01-2.6 0zM4.589 222.857a1.125 1.125 0 112.25 0 1.125 1.125 0 01-2.25 0zm10.953 0a1.601 1.601 0 113.202 0 1.601 1.601 0 01-3.202 0zm10.701 0a2.328 2.328 0 114.656 0 2.328 2.328 0 01-4.656 0zm10.527 0a3.23 3.23 0 116.46 0 3.23 3.23 0 01-6.46 0zm10.373 0a4.285 4.285 0 118.57 0 4.285 4.285 0 01-8.57 0zm10.164 0a5.55 5.55 0 1111.1 0 5.55 5.55 0 01-11.1 0zm11.264 0a5.714 5.714 0 1111.429 0 5.714 5.714 0 01-11.429 0z"/>
  <path paint-order="stroke fill markers" d="M80 222.857a5.714 5.714 0 1111.429 0 5.714 5.714 0 01-11.429 0z"/>
  <path paint-order="stroke fill markers" d="M91.429 222.857a5.714 5.714 0 1111.428 0 5.714 5.714 0 01-11.428 0z"/>
  <path paint-order="stroke fill markers" d="M102.857 222.857a5.714 5.714 0 1111.429 0 5.714 5.714 0 01-11.429 0z"/>
  <path paint-order="stroke fill markers" d="M114.286 222.857a5.714 5.714 0 1111.428 0 5.714 5.714 0 01-11.428 0z"/>
  <path paint-order="stroke fill markers" d="M125.714 222.857a5.714 5.714 0 1111.429 0 5.714 5.714 0 01-11.429 0z"/>
  <path paint-order="stroke fill markers" d="M137.143 222.857a5.714 5.714 0 1111.428 0 5.714 5.714 0 01-11.428 0z"/>
  <path paint-order="stroke fill markers" d="M148.571 222.857a5.714 5.714 0 1111.429 0 5.714 5.714 0 01-11.429 0zm11.439 0a5.704 5.704 0 1111.409 0 5.704 5.704 0 01-11.409 0zm13.567 0a3.566 3.566 0 117.131 0 3.566 3.566 0 01-7.13 0zm14.043 0a.951.951 0 111.903 0 .951.951 0 01-1.903 0zm9.4 0a2.98 2.98 0 115.96 0 2.98 2.98 0 01-5.96 0zm12.83 0a1.579 1.579 0 113.157 0 1.579 1.579 0 01-3.157 0zm10.617 0a2.39 2.39 0 114.78 0 2.39 2.39 0 01-4.78 0zm8.283 0a5.535 5.535 0 1111.07 0 5.535 5.535 0 01-11.07 0zm11.25 0a5.714 5.714 0 1111.429 0 5.714 5.714 0 01-11.429 0z"/>
  <path paint-order="stroke fill markers" d="M251.429 222.857a5.714 5.714 0 1111.428 0 5.714 5.714 0 01-11.428 0zm11.428 0a5.714 5.714 0 1111.429 0 5.714 5.714 0 01-11.429 0z"/>
  <path paint-order="stroke fill markers" d="M274.286 222.857a5.714 5.714 0 1111.428 0 5.714 5.714 0 01-11.428 0z"/>
  <path paint-order="stroke fill markers" d="M285.714 222.857a5.714 5.714 0 1111.429 0 5.714 5.714 0 01-11.429 0z"/>
  <path paint-order="stroke fill markers" d="M297.143 222.857a5.714 5.714 0 1111.428 0 5.714 5.714 0 01-11.428 0z"/>
  <path paint-order="stroke fill markers" d="M308.571 222.857a5.714 5.714 0 1111.429 0 5.714 5.714 0 01-11.429 0zm11.429 0a5.714 5.714 0 1111.429 0 5.714 5.714 0 01-11.429 0zm11.468 0a5.674 5.674 0 1111.35 0 5.674 5.674 0 01-11.35 0zm12.332 0a4.77 4.77 0 119.542 0 4.77 4.77 0 01-9.541 0zm12.724 0a3.476 3.476 0 116.952 0 3.476 3.476 0 01-6.952 0zm12.286 0a2.62 2.62 0 115.238 0 2.62 2.62 0 01-5.239 0zm12.264 0a1.783 1.783 0 113.566 0 1.783 1.783 0 01-3.566 0zm11.974 0a1.237 1.237 0 112.475 0 1.237 1.237 0 01-2.475 0zM4.666 234.286a1.048 1.048 0 112.097 0 1.048 1.048 0 01-2.097 0zm11.018 0a1.46 1.46 0 112.918 0 1.46 1.46 0 01-2.918 0zm10.778 0a2.109 2.109 0 114.218 0 2.109 2.109 0 01-4.218 0zm10.58 0a2.958 2.958 0 115.916 0 2.958 2.958 0 01-5.916 0zm10.538 0a3.85 3.85 0 117.698 0 3.85 3.85 0 01-7.699 0zm10.108 0a5.169 5.169 0 1110.338 0 5.169 5.169 0 01-10.338 0zm10.886 0a5.712 5.712 0 1111.424 0 5.712 5.712 0 01-11.424 0zm11.426 0a5.714 5.714 0 1111.429 0 5.714 5.714 0 01-11.429 0z"/>
  <path paint-order="stroke fill markers" d="M91.429 234.286a5.714 5.714 0 1111.428 0 5.714 5.714 0 01-11.428 0z"/>
  <path paint-order="stroke fill markers" d="M102.857 234.286a5.714 5.714 0 1111.429 0 5.714 5.714 0 01-11.429 0z"/>
  <path paint-order="stroke fill markers" d="M114.286 234.286a5.714 5.714 0 1111.428 0 5.714 5.714 0 01-11.428 0z"/>
  <path paint-order="stroke fill markers" d="M125.714 234.286a5.714 5.714 0 1111.429 0 5.714 5.714 0 01-11.429 0z"/>
  <path paint-order="stroke fill markers" d="M137.143 234.286a5.714 5.714 0 1111.428 0 5.714 5.714 0 01-11.428 0z"/>
  <path paint-order="stroke fill markers" d="M148.571 234.286a5.714 5.714 0 1111.429 0 5.714 5.714 0 01-11.429 0zm12.889 0a4.255 4.255 0 118.51 0 4.255 4.255 0 01-8.51 0zm14.704 0a.979.979 0 111.957 0 .979.979 0 01-1.957 0zm9.452 0a2.955 2.955 0 115.91 0 2.955 2.955 0 01-5.91 0zm9.018 0a5.366 5.366 0 1110.732 0 5.366 5.366 0 01-10.732 0zm12.629 0a4.166 4.166 0 118.331 0 4.166 4.166 0 01-8.331 0zm14.66 0a.934.934 0 111.868 0 .934.934 0 01-1.868 0zm9.086 0a3.277 3.277 0 116.553 0 3.277 3.277 0 01-6.553 0zm9.063 0a5.642 5.642 0 1111.284 0 5.642 5.642 0 01-11.284 0zm11.357 0a5.714 5.714 0 1111.428 0 5.714 5.714 0 01-11.428 0zm11.428 0a5.714 5.714 0 1111.429 0 5.714 5.714 0 01-11.429 0z"/>
  <path paint-order="stroke fill markers" d="M274.286 234.286a5.714 5.714 0 1111.428 0 5.714 5.714 0 01-11.428 0z"/>
  <path paint-order="stroke fill markers" d="M285.714 234.286a5.714 5.714 0 1111.429 0 5.714 5.714 0 01-11.429 0z"/>
  <path paint-order="stroke fill markers" d="M297.143 234.286a5.714 5.714 0 1111.428 0 5.714 5.714 0 01-11.428 0z"/>
  <path paint-order="stroke fill markers" d="M308.571 234.286a5.714 5.714 0 1111.429 0 5.714 5.714 0 01-11.429 0zm11.429 0a5.714 5.714 0 1111.429 0 5.714 5.714 0 01-11.429 0zm11.71 0a5.433 5.433 0 1110.866 0 5.433 5.433 0 01-10.866 0zm12.599 0a4.263 4.263 0 118.525 0 4.263 4.263 0 01-8.525 0zm12.506 0a3.185 3.185 0 116.37 0 3.185 3.185 0 01-6.37 0zm12.228 0a2.385 2.385 0 114.77 0 2.385 2.385 0 01-4.77 0zm12.203 0a1.611 1.611 0 113.222 0 1.611 1.611 0 01-3.222 0zm11.897 0a1.143 1.143 0 112.286 0 1.143 1.143 0 01-2.286 0zM4.788 245.714a.926.926 0 111.853 0 .926.926 0 01-1.853 0zm11.075 0a1.28 1.28 0 112.56 0 1.28 1.28 0 01-2.56 0zm10.918 0a1.79 1.79 0 113.58 0 1.79 1.79 0 01-3.58 0zm10.662 0a2.557 2.557 0 115.114 0 2.557 2.557 0 01-5.114 0zm10.667 0a3.319 3.319 0 116.638 0 3.319 3.319 0 01-6.638 0zm10.402 0a4.345 4.345 0 118.69 0 4.345 4.345 0 01-8.69 0zm10.403 0a5.37 5.37 0 1110.741 0 5.37 5.37 0 01-10.741 0zm11.085 0a5.714 5.714 0 1111.429 0 5.714 5.714 0 01-11.429 0z"/>
  <path paint-order="stroke fill markers" d="M91.429 245.714a5.714 5.714 0 1111.428 0 5.714 5.714 0 01-11.428 0z"/>
  <path paint-order="stroke fill markers" d="M102.857 245.714a5.714 5.714 0 1111.429 0 5.714 5.714 0 01-11.429 0z"/>
  <path paint-order="stroke fill markers" d="M114.286 245.714a5.714 5.714 0 1111.428 0 5.714 5.714 0 01-11.428 0z"/>
  <path paint-order="stroke fill markers" d="M125.714 245.714a5.714 5.714 0 1111.429 0 5.714 5.714 0 01-11.429 0zm11.504 0a5.64 5.64 0 1111.279 0 5.64 5.64 0 01-11.28 0zm12.735 0a4.332 4.332 0 118.665 0 4.332 4.332 0 01-8.665 0zm14.661 0a1.1 1.1 0 112.2 0 1.1 1.1 0 01-2.2 0zm10.704 0a1.825 1.825 0 113.65 0 1.825 1.825 0 01-3.65 0zm8.137 0a5.117 5.117 0 1110.233 0 5.117 5.117 0 01-10.233 0zm10.831 0a5.714 5.714 0 1111.428 0 5.714 5.714 0 01-11.428 0zm11.53 0a5.612 5.612 0 1111.225 0 5.612 5.612 0 01-11.225 0zm14.225 0a2.816 2.816 0 115.632 0 2.816 2.816 0 01-5.632 0zm13.51 0a.735.735 0 111.47 0 .735.735 0 01-1.47 0zm8.6 0a3.563 3.563 0 117.126 0 3.563 3.563 0 01-7.126 0zm9.502 0a5.49 5.49 0 1110.98 0 5.49 5.49 0 01-10.98 0zm11.204 0a5.714 5.714 0 1111.429 0 5.714 5.714 0 01-11.429 0z"/>
  <path paint-order="stroke fill markers" d="M274.286 245.714a5.714 5.714 0 1111.428 0 5.714 5.714 0 01-11.428 0z"/>
  <path paint-order="stroke fill markers" d="M285.714 245.714a5.714 5.714 0 1111.429 0 5.714 5.714 0 01-11.429 0z"/>
  <path paint-order="stroke fill markers" d="M297.143 245.714a5.714 5.714 0 1111.428 0 5.714 5.714 0 01-11.428 0z"/>
  <path paint-order="stroke fill markers" d="M308.571 245.714a5.714 5.714 0 1111.429 0 5.714 5.714 0 01-11.429 0zm11.593 0a5.55 5.55 0 1111.1 0 5.55 5.55 0 01-11.1 0zm12.328 0a4.651 4.651 0 119.302 0 4.651 4.651 0 01-9.302 0zm12.464 0a3.615 3.615 0 117.23 0 3.615 3.615 0 01-7.23 0zm12.278 0a2.766 2.766 0 115.532 0 2.766 2.766 0 01-5.532 0zm12.16 0a2.034 2.034 0 114.069 0 2.034 2.034 0 01-4.069 0zm12.069 0a1.394 1.394 0 112.788 0 1.394 1.394 0 01-2.788 0zm11.809 0a1.013 1.013 0 112.027 0 1.013 1.013 0 01-2.027 0zM4.913 257.143a.802.802 0 111.603 0 .802.802 0 01-1.603 0zm11.132 0a1.098 1.098 0 112.196 0 1.098 1.098 0 01-2.196 0zm11.042 0a1.484 1.484 0 112.968 0 1.484 1.484 0 01-2.968 0zm10.782 0a2.131 2.131 0 114.262 0 2.131 2.131 0 01-4.262 0zm10.771 0a2.789 2.789 0 115.577 0 2.789 2.789 0 01-5.577 0zm10.677 0a3.54 3.54 0 117.08 0 3.54 3.54 0 01-7.08 0zm10.609 0a4.36 4.36 0 118.72 0 4.36 4.36 0 01-8.72 0zm10.56 0a5.229 5.229 0 1110.457 0 5.229 5.229 0 01-10.457 0zm11.07 0a5.587 5.587 0 1111.174 0 5.587 5.587 0 01-11.174 0zm11.341 0a5.674 5.674 0 1111.349 0 5.674 5.674 0 01-11.349 0zm11.488 0a5.615 5.615 0 1111.23 0 5.615 5.615 0 01-11.23 0zm11.79 0a5.254 5.254 0 1110.507 0 5.254 5.254 0 01-10.507 0zm12.855 0a3.827 3.827 0 117.654 0 3.827 3.827 0 01-7.654 0zm13.717 0a1.539 1.539 0 113.077 0 1.539 1.539 0 01-3.077 0zm12.18 0a.787.787 0 111.574 0 .787.787 0 01-1.574 0zm8.568 0a3.648 3.648 0 117.296 0 3.648 3.648 0 01-7.296 0zm9.399 0a5.677 5.677 0 1111.354 0 5.677 5.677 0 01-11.354 0zm11.392 0a5.714 5.714 0 1111.428 0 5.714 5.714 0 01-11.428 0z"/>
  <path paint-order="stroke fill markers" d="M205.714 257.143a5.714 5.714 0 1111.429 0 5.714 5.714 0 01-11.429 0zm12.641 0a4.502 4.502 0 119.004 0 4.502 4.502 0 01-9.004 0zm14.579 0a1.352 1.352 0 112.704 0 1.352 1.352 0 01-2.704 0zm11.802 0a.979.979 0 111.957 0 .979.979 0 01-1.957 0zm9.165 0a3.242 3.242 0 116.484 0 3.242 3.242 0 01-6.484 0zm9.728 0a4.942 4.942 0 119.885 0 4.942 4.942 0 01-9.885 0zm10.804 0a5.567 5.567 0 1111.134 0 5.567 5.567 0 01-11.134 0zm11.317 0a5.68 5.68 0 1111.358 0 5.68 5.68 0 01-11.359 0zm11.487 0a5.62 5.62 0 1111.24 0 5.62 5.62 0 01-11.24 0zm11.676 0a5.373 5.373 0 1110.746 0 5.373 5.373 0 01-10.746 0zm12.205 0a4.596 4.596 0 119.193 0 4.596 4.596 0 01-9.193 0zm12.28 0a3.745 3.745 0 117.49 0 3.745 3.745 0 01-7.49 0zm12.138 0a3.035 3.035 0 116.07 0 3.035 3.035 0 01-6.07 0zm12.156 0a2.308 2.308 0 114.616 0 2.308 2.308 0 01-4.616 0zm12.061 0a1.676 1.676 0 113.351 0 1.676 1.676 0 01-3.351 0zm11.914 0a1.19 1.19 0 112.38 0 1.19 1.19 0 01-2.38 0zm11.743 0a.876.876 0 111.752 0 .876.876 0 01-1.753 0zM5.03 268.571a.685.685 0 111.369 0 .685.685 0 01-1.37 0zm11.207 0a.906.906 0 111.812 0 .906.906 0 01-1.812 0zm11.117 0a1.218 1.218 0 112.435 0 1.218 1.218 0 01-2.435 0zm10.983 0a1.663 1.663 0 113.326 0 1.663 1.663 0 01-3.326 0zm10.881 0a2.211 2.211 0 114.422 0 2.211 2.211 0 01-4.422 0zm10.821 0a2.819 2.819 0 115.637 0 2.819 2.819 0 01-5.637 0zm10.905 0a3.341 3.341 0 116.683 0 3.341 3.341 0 01-6.683 0zm10.889 0a3.882 3.882 0 117.763 0 3.882 3.882 0 01-7.763 0zm11.042 0a4.268 4.268 0 118.536 0 4.268 4.268 0 01-8.536 0zm11.339 0a4.357 4.357 0 118.715 0 4.357 4.357 0 01-8.715 0zm11.795 0a3.991 3.991 0 117.982 0 3.991 3.991 0 01-7.982 0zm12.322 0a3.097 3.097 0 116.195 0 3.097 3.097 0 01-6.195 0zm13.025 0a1.501 1.501 0 113.003 0 1.501 1.501 0 01-3.003 0zm22.414 0a1.945 1.945 0 113.889 0 1.945 1.945 0 01-3.89 0zm8.682 0a4.69 4.69 0 119.382 0 4.69 4.69 0 01-9.382 0zm10.405 0a5.714 5.714 0 1111.429 0 5.714 5.714 0 01-11.429 0z"/>
  <path paint-order="stroke fill markers" d="M194.286 268.571a5.714 5.714 0 1111.428 0 5.714 5.714 0 01-11.428 0z"/>
  <path paint-order="stroke fill markers" d="M205.714 268.571a5.714 5.714 0 1111.429 0 5.714 5.714 0 01-11.429 0zm11.919 0a5.224 5.224 0 1110.448 0 5.224 5.224 0 01-10.448 0zm13.996 0a2.657 2.657 0 115.313 0 2.657 2.657 0 01-5.313 0zm24.446 0a1.068 1.068 0 112.136 0 1.068 1.068 0 01-2.136 0zm9.867 0a2.63 2.63 0 115.259 0 2.63 2.63 0 01-5.259 0zm10.253 0a3.805 3.805 0 117.61 0 3.805 3.805 0 01-7.61 0zm10.936 0a4.298 4.298 0 118.595 0 4.298 4.298 0 01-8.595 0zm11.396 0a4.33 4.33 0 118.66 0 4.33 4.33 0 01-8.66 0zm11.753 0a4.006 4.006 0 118.012 0 4.006 4.006 0 01-8.013 0zm11.956 0a3.478 3.478 0 116.957 0 3.478 3.478 0 01-6.957 0zm11.941 0a2.965 2.965 0 115.931 0 2.965 2.965 0 01-5.93 0zm11.977 0a2.418 2.418 0 114.835 0 2.418 2.418 0 01-4.835 0zm12.041 0a1.805 1.805 0 113.61 0 1.805 1.805 0 01-3.61 0zm11.887 0a1.347 1.347 0 112.694 0 1.347 1.347 0 01-2.694 0zm11.784 0a.991.991 0 111.982 0 .991.991 0 01-1.982 0zm11.68 0a.74.74 0 111.48 0 .74.74 0 01-1.48 0zM5.162 280a.553.553 0 111.105 0 .553.553 0 01-1.105 0zm11.256 0a.725.725 0 111.45 0 .725.725 0 01-1.45 0zm11.207 0a.946.946 0 111.893 0 .946.946 0 01-1.893 0zm11.133 0a1.242 1.242 0 112.484 0 1.242 1.242 0 01-2.484 0zm11.097 0a1.574 1.574 0 113.147 0 1.574 1.574 0 01-3.147 0zm10.99 0a2.012 2.012 0 114.024 0 2.012 2.012 0 01-4.024 0zm11.048 0a2.393 2.393 0 114.785 0 2.393 2.393 0 01-4.785 0zm11.135 0a2.687 2.687 0 115.373 0 2.687 2.687 0 01-5.373 0zm11.326 0a2.789 2.789 0 115.578 0 2.789 2.789 0 01-5.578 0zm11.561 0a2.657 2.657 0 115.313 0 2.657 2.657 0 01-5.313 0zm11.986 0a2.099 2.099 0 114.198 0 2.099 2.099 0 01-4.198 0zm12.283 0a1.245 1.245 0 112.49 0 1.245 1.245 0 01-2.49 0zm23.332 0a.77.77 0 111.54 0 .77.77 0 01-1.54 0zm9.347 0a2.85 2.85 0 115.702 0 2.85 2.85 0 01-5.702 0zm9.26 0a5.02 5.02 0 1110.04 0 5.02 5.02 0 01-10.04 0zm10.734 0a5.714 5.714 0 1111.429 0 5.714 5.714 0 01-11.429 0z"/>
  <path paint-order="stroke fill markers" d="M194.286 280a5.714 5.714 0 1111.428 0 5.714 5.714 0 01-11.428 0z"/>
  <path paint-order="stroke fill markers" d="M205.714 280a5.714 5.714 0 1111.429 0 5.714 5.714 0 01-11.429 0zm11.72 0a5.423 5.423 0 1110.846 0 5.423 5.423 0 01-10.846 0zm13.403 0a3.448 3.448 0 116.897 0 3.448 3.448 0 01-6.897 0zm13.687 0a1.19 1.19 0 112.38 0 1.19 1.19 0 01-2.38 0zm23.151 0a.896.896 0 111.793 0 .896.896 0 01-1.793 0zm10.425 0a1.9 1.9 0 113.8 0 1.9 1.9 0 01-3.8 0zm10.809 0a2.52 2.52 0 115.04 0 2.52 2.52 0 01-5.04 0zm11.164 0a2.784 2.784 0 115.568 0 2.784 2.784 0 01-5.568 0zm11.477 0a2.736 2.736 0 115.472 0 2.736 2.736 0 01-5.473 0zm11.692 0a2.472 2.472 0 114.945 0 2.472 2.472 0 01-4.945 0zm11.774 0a2.126 2.126 0 114.253 0 2.126 2.126 0 01-4.253 0zm11.84 0a1.716 1.716 0 113.431 0 1.716 1.716 0 01-3.431 0zm11.819 0a1.325 1.325 0 112.65 0 1.325 1.325 0 01-2.65 0zm11.713 0a1.04 1.04 0 112.081 0 1.04 1.04 0 01-2.081 0zm11.695 0a.774.774 0 111.548 0 .774.774 0 01-1.548 0zm11.61 0a.593.593 0 111.185 0 .593.593 0 01-1.185 0zM16.56 291.429a.583.583 0 111.165 0 .583.583 0 01-1.165 0zm11.28 0a.732.732 0 111.463 0 .732.732 0 01-1.464 0zm11.229 0a.931.931 0 111.862 0 .931.931 0 01-1.862 0zm11.214 0a1.145 1.145 0 112.29 0 1.145 1.145 0 01-2.29 0zm11.2 0a1.374 1.374 0 112.749 0 1.374 1.374 0 01-2.75 0zm11.224 0a1.579 1.579 0 113.157 0 1.579 1.579 0 01-3.157 0zm11.302 0a1.706 1.706 0 113.41 0 1.706 1.706 0 01-3.41 0zm11.461 0a1.673 1.673 0 113.346 0 1.673 1.673 0 01-3.346 0zm11.67 0a1.432 1.432 0 112.863 0 1.432 1.432 0 01-2.863 0zm11.914 0a.946.946 0 111.892 0 .946.946 0 01-1.892 0zm33.897 0a1.335 1.335 0 112.67 0 1.335 1.335 0 01-2.67 0zm9.626 0a3.137 3.137 0 116.275 0 3.137 3.137 0 01-6.275 0zm9.731 0a4.835 4.835 0 119.67 0 4.835 4.835 0 01-9.67 0zm10.572 0a5.692 5.692 0 1111.383 0 5.692 5.692 0 01-11.383 0zm11.406 0a5.714 5.714 0 1111.428 0 5.714 5.714 0 01-11.428 0z"/>
  <path paint-order="stroke fill markers" d="M205.714 291.429a5.714 5.714 0 1111.429 0 5.714 5.714 0 01-11.429 0zm11.922 0a5.221 5.221 0 1110.442 0 5.221 5.221 0 01-10.442 0zm13.049 0a3.6 3.6 0 117.201 0 3.6 3.6 0 01-7.2 0zm13.279 0a1.75 1.75 0 113.5 0 1.75 1.75 0 01-3.5 0zm35.242 0a.794.794 0 111.588 0 .794.794 0 01-1.588 0zm10.933 0a1.29 1.29 0 112.58 0 1.29 1.29 0 01-2.58 0zm11.09 0a1.628 1.628 0 113.257 0 1.628 1.628 0 01-3.257 0zm11.336 0a1.72 1.72 0 113.441 0 1.72 1.72 0 01-3.44 0zm11.525 0a1.623 1.623 0 113.248 0 1.623 1.623 0 01-3.247 0zm11.624 0a1.43 1.43 0 112.858 0 1.43 1.43 0 01-2.858 0zm11.635 0a1.223 1.223 0 112.445 0 1.223 1.223 0 01-2.445 0zm11.66 0a.991.991 0 111.982 0 .991.991 0 01-1.982 0zm11.628 0a.792.792 0 111.583 0 .792.792 0 01-1.583 0zm11.605 0a.615.615 0 111.23 0 .615.615 0 01-1.23 0zM28.034 302.857a.538.538 0 111.075 0 .538.538 0 01-1.075 0zm11.296 0a.67.67 0 111.34 0 .67.67 0 01-1.34 0zm11.312 0a.787.787 0 111.573 0 .787.787 0 01-1.573 0zm11.306 0a.909.909 0 111.818 0 .909.909 0 01-1.818 0zm11.357 0a.981.981 0 111.962 0 .981.981 0 01-1.962 0zm11.418 0a.991.991 0 111.982 0 .991.991 0 01-1.982 0zm11.531 0a.889.889 0 111.778 0 .889.889 0 01-1.778 0zm11.646 0a.672.672 0 111.344 0 .672.672 0 01-1.345 0zm34.317 0a.64.64 0 111.28 0 .64.64 0 01-1.28 0zm10.435 0a1.633 1.633 0 113.267 0 1.633 1.633 0 01-3.267 0zm10.02 0a3.043 3.043 0 116.085 0 3.043 3.043 0 01-6.085 0zm10.228 0a4.243 4.243 0 118.486 0 4.243 4.243 0 01-8.486 0zm10.45 0a5.221 5.221 0 1110.443 0 5.221 5.221 0 01-10.443 0zm11.098 0a5.552 5.552 0 1111.104 0 5.552 5.552 0 01-11.104 0z"/>
  <path paint-order="stroke fill markers" d="M206.018 302.857a5.41 5.41 0 1110.821 0 5.41 5.41 0 01-10.82 0zm12.282 0a4.556 4.556 0 119.114 0 4.556 4.556 0 01-9.113 0zm12.614 0a3.371 3.371 0 116.743 0 3.371 3.371 0 01-6.743 0zm12.821 0a1.98 1.98 0 113.959 0 1.98 1.98 0 01-3.96 0zm12.539 0a.869.869 0 111.738 0 .869.869 0 01-1.738 0zm34.589 0a.565.565 0 111.13 0 .565.565 0 01-1.13 0zm11.153 0a.842.842 0 111.683 0 .842.842 0 01-1.683 0zm11.299 0a.971.971 0 111.942 0 .971.971 0 01-1.942 0zm11.408 0a.991.991 0 111.982 0 .991.991 0 01-1.982 0zm11.489 0a.931.931 0 111.862 0 .931.931 0 01-1.862 0zm11.525 0a.834.834 0 111.669 0 .834.834 0 01-1.669 0zm11.563 0a.7.7 0 111.4 0 .7.7 0 01-1.4 0zm11.548 0a.58.58 0 111.16 0 .58.58 0 01-1.16 0zM50.88 314.286a.548.548 0 111.096 0 .548.548 0 01-1.095 0zm11.367 0a.61.61 0 111.22 0 .61.61 0 01-1.22 0zm11.406 0a.632.632 0 111.265 0 .632.632 0 01-1.265 0zm11.484 0a.578.578 0 111.155 0 .578.578 0 01-1.155 0zm56.893 0a.827.827 0 111.654 0 .827.827 0 01-1.653 0zm10.622 0a1.633 1.633 0 113.267 0 1.633 1.633 0 01-3.267 0zm10.316 0a2.746 2.746 0 115.493 0 2.746 2.746 0 01-5.493 0zm10.599 0a3.575 3.575 0 117.151 0 3.575 3.575 0 01-7.15 0zm10.744 0a4.26 4.26 0 118.52 0 4.26 4.26 0 01-8.52 0zm11.073 0a4.616 4.616 0 119.232 0 4.616 4.616 0 01-9.232 0zm11.608 0a4.437 4.437 0 118.874 0 4.437 4.437 0 01-8.874 0zm12.085 0a3.78 3.78 0 117.56 0 3.78 3.78 0 01-7.56 0zm12.216 0a2.993 2.993 0 115.986 0 2.993 2.993 0 01-5.986 0zm12.512 0a1.91 1.91 0 113.819 0 1.91 1.91 0 01-3.82 0zm12.325 0a1.013 1.013 0 112.026 0 1.013 1.013 0 01-2.027 0zm57.595 0a.56.56 0 111.12 0 .56.56 0 01-1.12 0zm11.365 0a.625.625 0 111.25 0 .625.625 0 01-1.25 0zm11.433 0a.62.62 0 111.24 0 .62.62 0 01-1.24 0zm11.476 0a.573.573 0 111.145 0 .573.573 0 01-1.145 0zM141.99 325.714a.866.866 0 111.734 0 .866.866 0 01-1.733 0zm10.832 0a1.464 1.464 0 112.928 0 1.464 1.464 0 01-2.928 0zm10.617 0a2.276 2.276 0 114.551 0 2.276 2.276 0 01-4.551 0zm10.791 0a2.913 2.913 0 115.826 0 2.913 2.913 0 01-5.826 0zm11 0a3.341 3.341 0 116.683 0 3.341 3.341 0 01-6.683 0zm11.24 0a3.53 3.53 0 117.06 0 3.53 3.53 0 01-7.06 0zm11.52 0a3.439 3.439 0 116.877 0 3.439 3.439 0 01-6.877 0zm11.817 0a3.05 3.05 0 116.1 0 3.05 3.05 0 01-6.1 0zm12.011 0a2.467 2.467 0 114.935 0 2.467 2.467 0 01-4.935 0zm12.243 0a1.653 1.653 0 113.307 0 1.653 1.653 0 01-3.307 0zm12.063 0a1.018 1.018 0 112.037 0 1.018 1.018 0 01-2.037 0zm11.92 0a.528.528 0 111.055 0 .528.528 0 01-1.055 0zM142.05 337.143a.807.807 0 111.614 0 .807.807 0 01-1.614 0zm10.998 0a1.237 1.237 0 112.475 0 1.237 1.237 0 01-2.475 0zm10.866 0a1.8 1.8 0 113.6 0 1.8 1.8 0 01-3.6 0zm10.933 0a2.296 2.296 0 114.592 0 2.296 2.296 0 01-4.592 0zm11.095 0a2.63 2.63 0 115.259 0 2.63 2.63 0 01-5.259 0zm11.269 0a2.789 2.789 0 115.578 0 2.789 2.789 0 01-5.578 0zm11.509 0a2.709 2.709 0 115.418 0 2.709 2.709 0 01-5.418 0zm11.727 0a2.41 2.41 0 114.82 0 2.41 2.41 0 01-4.82 0zm11.897 0a1.942 1.942 0 113.884 0 1.942 1.942 0 01-3.884 0zm11.998 0a1.372 1.372 0 112.744 0 1.372 1.372 0 01-2.744 0zm11.88 0a.921.921 0 111.842 0 .921.921 0 01-1.842 0zm11.807 0a.543.543 0 111.085 0 .543.543 0 01-1.085 0zm-125.886 11.428a.715.715 0 111.429 0 .715.715 0 01-1.43 0zm11.124 0a1.018 1.018 0 112.037 0 1.018 1.018 0 01-2.037 0zm11.075 0a1.372 1.372 0 112.744 0 1.372 1.372 0 01-2.744 0zm11.103 0a1.698 1.698 0 113.396 0 1.698 1.698 0 01-3.396 0zm11.172 0a1.955 1.955 0 113.909 0 1.955 1.955 0 01-3.91 0zm11.309 0a2.074 2.074 0 114.148 0 2.074 2.074 0 01-4.148 0zm11.488 0a2.014 2.014 0 114.029 0 2.014 2.014 0 01-4.029 0zm11.67 0a1.773 1.773 0 113.546 0 1.773 1.773 0 01-3.546 0zm11.736 0a1.467 1.467 0 112.932 0 1.467 1.467 0 01-2.933 0zm11.784 0a1.11 1.11 0 112.22 0 1.11 1.11 0 01-2.22 0zm11.75 0a.79.79 0 111.578 0 .79.79 0 01-1.578 0zm11.705 0a.513.513 0 111.025 0 .513.513 0 01-1.025 0zM142.277 360a.58.58 0 111.16 0 .58.58 0 01-1.16 0zm11.222 0a.787.787 0 111.574 0 .787.787 0 01-1.574 0zm11.187 0a1.028 1.028 0 112.057 0 1.028 1.028 0 01-2.057 0zm11.234 0a1.223 1.223 0 112.445 0 1.223 1.223 0 01-2.445 0zm11.3 0a1.352 1.352 0 112.703 0 1.352 1.352 0 01-2.704 0zm11.366 0a1.414 1.414 0 112.828 0 1.414 1.414 0 01-2.828 0zm11.458 0a1.384 1.384 0 112.769 0 1.384 1.384 0 01-2.769 0zm11.553 0a1.26 1.26 0 112.52 0 1.26 1.26 0 01-2.52 0zm11.603 0a1.086 1.086 0 112.171 0 1.086 1.086 0 01-2.17 0zm11.67 0a.844.844 0 111.688 0 .844.844 0 01-1.688 0zm11.63 0a.642.642 0 111.285 0 .642.642 0 01-1.285 0zm-102.84 11.429a.625.625 0 111.25 0 .625.625 0 01-1.25 0zm11.282 0a.772.772 0 111.544 0 .772.772 0 01-1.544 0zm11.304 0a.896.896 0 111.793 0 .896.896 0 01-1.793 0zm11.337 0a.988.988 0 111.977 0 .988.988 0 01-1.977 0zm11.387 0a1.03 1.03 0 112.06 0 1.03 1.03 0 01-2.06 0zm11.448 0a1.01 1.01 0 112.021 0 1.01 1.01 0 01-2.021 0zm11.508 0a.931.931 0 111.862 0 .931.931 0 01-1.862 0zm11.551 0a.81.81 0 111.618 0 .81.81 0 01-1.618 0zm11.575 0a.662.662 0 111.325 0 .662.662 0 01-1.325 0zm11.575 0a.515.515 0 111.031 0 .515.515 0 01-1.03 0zm-91.485 11.428a.573.573 0 111.145 0 .573.573 0 01-1.145 0zm11.348 0a.652.652 0 111.305 0 .652.652 0 01-1.304 0zm11.377 0a.705.705 0 111.41 0 .705.705 0 01-1.41 0zm11.403 0a.73.73 0 111.46 0 .73.73 0 01-1.46 0zm11.441 0a.717.717 0 111.435 0 .717.717 0 01-1.435 0zm11.479 0a.667.667 0 111.334 0 .667.667 0 01-1.334 0zm11.503 0a.593.593 0 111.185 0 .593.593 0 01-1.185 0zm-45.637 11.429a.515.515 0 111.03 0 .515.515 0 01-1.03 0zm11.414 0a.53.53 0 111.06 0 .53.53 0 01-1.06 0zm11.433 0a.525.525 0 111.05 0 .525.525 0 01-1.05 0z"/>
  <svg xmlns="http://www.w3.org/2000/svg" data-name="Layer 1" width="352" height="193" viewBox="0 0 352.388 193.033" x="408" y="102">
    <path d="M19.998 11.019v45.063h-7.925V11.018H0V3.571h32.037v7.448zM48.307 3.57l13.673 35.1L76.263 1.02l13.672 37.648 14.522-35.097h8.604L89.595 59.415 76.093 22.208l-14.08 37.24-22.31-55.877zm82.691 0v52.511h-7.924V3.572zm16.1 52.511V0l38.295 40.063V3.571h7.924v55.707l-38.295-39.96V56.08zM13.434 102.757v21.324H5.51v-52.51h8.979a40.487 40.487 0 019.964.919 13.36 13.36 0 015.986 3.468 14.946 14.946 0 014.523 11.156q0 7.21-4.83 11.427t-13.025 4.217zm0-7.345h2.959q10.916 0 10.917-8.4 0-8.129-11.257-8.129h-2.62zm60.176 15.916H51.13l-5.85 12.753h-8.536l25.983-55.809 25.065 55.81H79.12zm-3.231-7.448L62.59 86.025l-8.16 17.855zm45.247-2.177l16.256 22.378h-9.692l-14.998-21.494h-1.429v21.494H97.84v-52.51h9.284q10.407 0 15.032 3.911a14.368 14.368 0 015.102 11.495 14.921 14.921 0 01-3.197 9.591 14.249 14.249 0 01-8.434 5.135zm-9.863-6.02h2.517q11.257 0 11.257-8.604 0-8.06-10.951-8.06h-2.823zm68.339 15.645h-22.48l-5.85 12.753h-8.537l25.984-55.809 25.065 55.81h-8.673zm-3.23-7.448l-7.79-17.855-8.162 17.855zm27.458 20.201v-52.51h11.02a40.11 40.11 0 0112.515 1.565 23.43 23.43 0 018.945 5.203q8.127 7.414 8.128 19.487 0 12.107-8.469 19.59a24.706 24.706 0 01-8.91 5.203q-4.353 1.462-12.345 1.462zm7.924-7.448h3.571a29.806 29.806 0 008.877-1.122 18.025 18.025 0 0012.243-17.685 18.248 18.248 0 00-5.781-14.011q-5.205-4.796-15.339-4.796h-3.571zm43.513-19.045a25.717 25.717 0 018.128-19.045 26.755 26.755 0 0119.454-7.958 27.463 27.463 0 0127.31 27.31 25.819 25.819 0 01-8.095 19.215 27.748 27.748 0 01-37.887.884q-8.91-7.788-8.91-20.406zm7.992.102a18.975 18.975 0 005.85 14.318 19.376 19.376 0 0027.378-.102 20.38 20.38 0 00.067-28.16 19.582 19.582 0 00-27.65 0 18.945 18.945 0 00-5.645 13.944zm69.665-1.054L312.97 71.57h9.011l10.034 17.787 10.543-17.787h9.08l-15.134 25.065 15.883 27.445h-8.877l-11.631-20.1-11.972 20.1h-8.978zM13.434 139.57v45.063h15.44v7.448H5.51V139.57zm60.21 39.757h-22.48l-5.85 12.754h-8.536l25.983-55.81 25.065 55.81h-8.672zm-3.23-7.448l-7.789-17.855-8.162 17.855zm27.459 20.202V139.57h7.89a34.562 34.562 0 018.4.816 12.625 12.625 0 015.34 2.755 14.3 14.3 0 013.502 5 15.13 15.13 0 011.326 6.121 12.408 12.408 0 01-4.318 9.557 12.688 12.688 0 016.597 5 14.8 14.8 0 01-1.904 18.637 14.284 14.284 0 01-5.884 3.638 34.195 34.195 0 01-8.944.987zm7.924-29.963h2.483q4.421 0 6.479-1.955a7.586 7.586 0 002.057-5.765 7.234 7.234 0 00-2.108-5.628 8.794 8.794 0 00-6.122-1.921h-2.789zm0 22.515h4.897q5.373 0 7.89-2.109a7.29 7.29 0 002.653-5.78 7.406 7.406 0 00-2.55-5.715q-2.484-2.278-8.877-2.278h-4.013zm66.434-37.24l-6.428 3.808a11.067 11.067 0 00-3.435-4.08 8.022 8.022 0 00-4.387-1.089 8.108 8.108 0 00-5.476 1.87 5.799 5.799 0 00-2.176 4.626q0 3.844 5.714 6.19l5.237 2.142q6.393 2.585 9.352 6.309a14.218 14.218 0 012.959 9.131 16.046 16.046 0 01-4.83 11.972 16.58 16.58 0 01-12.072 4.76 16.15 16.15 0 01-11.292-4.046q-4.387-4.047-5.475-11.394l8.026-1.768q.543 4.626 1.905 6.394a9.05 9.05 0 0013.297.918 8.587 8.587 0 002.449-6.292 8.834 8.834 0 00-.425-2.805 7.123 7.123 0 00-1.327-2.347 10.636 10.636 0 00-2.33-2.007 22.478 22.478 0 00-3.4-1.785l-5.067-2.108q-10.782-4.557-10.781-13.332a12.647 12.647 0 014.523-9.896 16.346 16.346 0 0111.258-4.014q9.08 0 14.181 8.843z"/>
  </svg>
</svg>
