<svg xmlns="http://www.w3.org/2000/svg" viewBox="0 0 1280 400">
  <path fill="#FFF" d="M0 0h1280v400H0z"/>
  <path paint-order="stroke fill markers" d="M99.463 36.842a.537.537 0 111.074 0 .537.537 0 01-1.074 0zm10.479 0a.585.585 0 111.17 0 .585.585 0 01-1.17 0zm10.498 0a.612.612 0 111.225 0 .612.612 0 01-1.225 0zm10.522 0a.617.617 0 111.234 0 .617.617 0 01-1.234 0zm10.554 0a.59.59 0 111.179 0 .59.59 0 01-1.18 0zm10.586 0a.53.53 0 111.06 0 .53.53 0 01-1.06 0zm94.755 0a.511.511 0 111.023 0 .511.511 0 01-1.023 0zm10.46 0a.578.578 0 111.156 0 .578.578 0 01-1.156 0zm10.489 0a.615.615 0 111.23 0 .615.615 0 01-1.23 0zm10.524 0a.617.617 0 111.234 0 .617.617 0 01-1.234 0zm10.55 0a.594.594 0 111.188 0 .594.594 0 01-1.188 0zm10.57 0a.55.55 0 111.1 0 .55.55 0 01-1.1 0zM78.406 47.368a.541.541 0 111.083 0 .541.541 0 01-1.083 0zm10.428 0a.64.64 0 111.28 0 .64.64 0 01-1.28 0zm10.441 0a.725.725 0 111.45 0 .725.725 0 01-1.45 0zm10.445 0a.807.807 0 111.614 0 .807.807 0 01-1.615 0zm10.475 0a.858.858 0 111.715 0 .858.858 0 01-1.715 0zm10.51 0a.874.874 0 111.748 0 .874.874 0 01-1.748 0zm10.556 0a.844.844 0 111.688 0 .844.844 0 01-1.688 0zm10.616 0a.755.755 0 111.51 0 .755.755 0 01-1.51 0zm10.648 0a.633.633 0 111.266 0 .633.633 0 01-1.266 0zm73.73 0a.587.587 0 111.174 0 .587.587 0 01-1.174 0zm10.382 0a.732.732 0 111.463 0 .732.732 0 01-1.463 0zm10.433 0a.826.826 0 111.65 0 .826.826 0 01-1.65 0zm10.48 0a.871.871 0 111.743 0 .871.871 0 01-1.743 0zm10.53 0a.867.867 0 111.734 0 .867.867 0 01-1.734 0zm10.575 0a.819.819 0 111.637 0 .819.819 0 01-1.637 0zm10.6 0a.745.745 0 111.49 0 .745.745 0 01-1.49 0zm10.611 0a.66.66 0 111.32 0 .66.66 0 01-1.32 0zm10.614 0a.573.573 0 111.146 0 .573.573 0 01-1.147 0zM67.839 57.895a.583.583 0 111.165 0 .583.583 0 01-1.165 0zm10.409 0a.7.7 0 111.399 0 .7.7 0 01-1.4 0zm10.398 0a.828.828 0 111.656 0 .828.828 0 01-1.656 0zm10.395 0a.959.959 0 111.918 0 .959.959 0 01-1.918 0zm10.399 0a1.087 1.087 0 112.173 0 1.087 1.087 0 01-2.174 0zm10.45 0a1.163 1.163 0 112.325 0 1.163 1.163 0 01-2.325 0zm10.492 0a1.197 1.197 0 112.394 0 1.197 1.197 0 01-2.394 0zm10.554 0a1.17 1.17 0 112.339 0 1.17 1.17 0 01-2.34 0zm10.638 0a1.057 1.057 0 112.115 0 1.057 1.057 0 01-2.115 0zm10.701 0a.883.883 0 111.766 0 .883.883 0 01-1.766 0zm10.774 0a.635.635 0 111.27 0 .635.635 0 01-1.27 0zm52.682 0a.585.585 0 111.17 0 .585.585 0 01-1.17 0zm10.29 0a.821.821 0 111.642 0 .821.821 0 01-1.642 0zm10.315 0a1.032 1.032 0 112.064 0 1.032 1.032 0 01-2.064 0zm10.412 0a1.147 1.147 0 112.293 0 1.147 1.147 0 01-2.293 0zm10.476 0a1.197 1.197 0 112.394 0 1.197 1.197 0 01-2.394 0zm10.545 0a1.179 1.179 0 112.357 0 1.179 1.179 0 01-2.357 0zm10.597 0a1.108 1.108 0 112.215 0 1.108 1.108 0 01-2.215 0zm10.641 0a.993.993 0 111.986 0 .993.993 0 01-1.986 0zm10.663 0a.855.855 0 111.712 0 .855.855 0 01-1.711 0zm10.656 0a.727.727 0 111.454 0 .727.727 0 01-1.454 0zm10.657 0a.596.596 0 111.192 0 .596.596 0 01-1.192 0zM57.312 68.421a.583.583 0 111.165 0 .583.583 0 01-1.165 0zm10.378 0a.732.732 0 111.463 0 .732.732 0 01-1.464 0zm10.356 0a.901.901 0 111.803 0 .901.901 0 01-1.803 0zm10.327 0a1.1 1.1 0 112.201 0 1.1 1.1 0 01-2.201 0zm10.34 0a1.287 1.287 0 112.574 0 1.287 1.287 0 01-2.574 0zm10.316 0a1.498 1.498 0 112.995 0 1.498 1.498 0 01-2.995 0zm10.371 0a1.653 1.653 0 113.306 0 1.653 1.653 0 01-3.307 0zm10.427 0a1.752 1.752 0 113.504 0 1.752 1.752 0 01-3.504 0zm10.551 0a1.727 1.727 0 113.454 0 1.727 1.727 0 01-3.454 0zm10.701 0a1.553 1.553 0 113.105 0 1.553 1.553 0 01-3.105 0zm10.791 0a1.289 1.289 0 112.577 0 1.289 1.289 0 01-2.578 0zm10.9 0a.915.915 0 111.83 0 .915.915 0 01-1.83 0zm10.897 0a.544.544 0 111.087 0 .544.544 0 01-1.087 0zm41.805 0a.844.844 0 111.688 0 .844.844 0 01-1.688 0zm10.182 0a1.188 1.188 0 112.376 0 1.188 1.188 0 01-2.376 0zm10.206 0a1.509 1.509 0 113.017 0 1.509 1.509 0 01-3.018 0zm10.345 0a1.69 1.69 0 113.38 0 1.69 1.69 0 01-3.38 0zm10.462 0a1.754 1.754 0 113.508 0 1.754 1.754 0 01-3.508 0zm10.588 0a1.692 1.692 0 113.385 0 1.692 1.692 0 01-3.385 0zm10.687 0a1.532 1.532 0 113.064 0 1.532 1.532 0 01-3.064 0zm10.712 0a1.346 1.346 0 112.692 0 1.346 1.346 0 01-2.692 0zm10.733 0a1.14 1.14 0 112.28 0 1.14 1.14 0 01-2.28 0zm10.716 0a.95.95 0 111.9 0 .95.95 0 01-1.9 0zm10.71 0a.766.766 0 111.532 0 .766.766 0 01-1.532 0zm10.675 0a.617.617 0 111.234 0 .617.617 0 01-1.234 0zM46.827 78.947a.541.541 0 111.083 0 .541.541 0 01-1.083 0zm10.368 0a.7.7 0 111.4 0 .7.7 0 01-1.4 0zm10.325 0a.901.901 0 111.802 0 .901.901 0 01-1.802 0zm10.304 0a1.124 1.124 0 112.247 0 1.124 1.124 0 01-2.247 0zm10.251 0a1.399 1.399 0 112.798 0 1.399 1.399 0 01-2.798 0zm10.215 0a1.71 1.71 0 113.42 0 1.71 1.71 0 01-3.42 0zm10.204 0a2.032 2.032 0 114.064 0 2.032 2.032 0 01-4.064 0zm10.304 0a2.254 2.254 0 114.509 0 2.254 2.254 0 01-4.509 0zm10.384 0a2.397 2.397 0 114.793 0 2.397 2.397 0 01-4.793 0zm10.527 0a2.397 2.397 0 114.793 0 2.397 2.397 0 01-4.793 0zm10.705 0a2.218 2.218 0 114.435 0 2.218 2.218 0 01-4.435 0zm10.882 0a1.862 1.862 0 113.724 0 1.862 1.862 0 01-3.724 0zm11.092 0a1.296 1.296 0 112.592 0 1.296 1.296 0 01-2.592 0zm11.059 0a.764.764 0 111.527 0 .764.764 0 01-1.527 0zm31.737 0a.605.605 0 111.21 0 .605.605 0 01-1.21 0zm9.951 0a1.181 1.181 0 112.362 0 1.181 1.181 0 01-2.362 0zm9.994 0a1.713 1.713 0 113.426 0 1.713 1.713 0 01-3.426 0zm10.079 0a2.16 2.16 0 114.32 0 2.16 2.16 0 01-4.32 0zm10.318 0a2.369 2.369 0 114.738 0 2.369 2.369 0 01-4.738 0zm10.487 0a2.408 2.408 0 114.816 0 2.408 2.408 0 01-4.816 0zm10.632 0a2.302 2.302 0 114.605 0 2.302 2.302 0 01-4.605 0zm10.745 0a2.085 2.085 0 114.168 0 2.085 2.085 0 01-4.169 0zm10.803 0a1.807 1.807 0 113.614 0 1.807 1.807 0 01-3.614 0zm10.872 0a1.46 1.46 0 112.922 0 1.46 1.46 0 01-2.922 0zm10.802 0a1.186 1.186 0 112.371 0 1.186 1.186 0 01-2.371 0zm10.772 0a.94.94 0 111.88 0 .94.94 0 01-1.88 0zm10.719 0a.748.748 0 111.495 0 .748.748 0 01-1.495 0zm10.698 0a.576.576 0 111.151 0 .576.576 0 01-1.151 0zM46.729 89.474a.64.64 0 111.28 0 .64.64 0 01-1.28 0zm10.338 0a.828.828 0 111.656 0 .828.828 0 01-1.656 0zm10.253 0a1.1 1.1 0 112.202 0 1.1 1.1 0 01-2.202 0zm10.228 0a1.399 1.399 0 112.798 0 1.399 1.399 0 01-2.798 0zm10.086 0a1.84 1.84 0 113.679 0 1.84 1.84 0 01-3.679 0zm10.119 0a2.247 2.247 0 114.494 0 2.247 2.247 0 01-4.494 0zm10.125 0a2.649 2.649 0 115.297 0 2.649 2.649 0 01-5.297 0zm10.228 0a2.947 2.947 0 115.894 0 2.947 2.947 0 01-5.894 0zm10.317 0a3.156 3.156 0 116.312 0 3.156 3.156 0 01-6.312 0zm10.481 0a3.201 3.201 0 116.403 0 3.201 3.201 0 01-6.403 0zm10.696 0a3.032 3.032 0 116.063 0 3.032 3.032 0 01-6.063 0zm10.905 0a2.653 2.653 0 115.306 0 2.653 2.653 0 01-5.306 0zm11.257 0a1.922 1.922 0 113.844 0 1.922 1.922 0 01-3.844 0zm11.35 0a1.098 1.098 0 112.197 0 1.098 1.098 0 01-2.197 0zm31.813 0a.865.865 0 111.73 0 .865.865 0 01-1.73 0zm9.635 0a1.757 1.757 0 113.512 0 1.757 1.757 0 01-3.513 0zm9.796 0a2.486 2.486 0 114.972 0 2.486 2.486 0 01-4.972 0zm10.038 0a2.974 2.974 0 115.949 0 2.974 2.974 0 01-5.949 0zm10.32 0a3.18 3.18 0 116.362 0 3.18 3.18 0 01-6.362 0zm10.531 0a3.176 3.176 0 116.352 0 3.176 3.176 0 01-6.352 0zm10.687 0a3.016 3.016 0 116.031 0 3.016 3.016 0 01-6.031 0zm10.828 0a2.713 2.713 0 115.427 0 2.713 2.713 0 01-5.426 0zm10.876 0a2.364 2.364 0 114.728 0 2.364 2.364 0 01-4.728 0zm10.971 0a1.92 1.92 0 113.839 0 1.92 1.92 0 01-3.84 0zm10.939 0a1.507 1.507 0 113.013 0 1.507 1.507 0 01-3.013 0zm10.873 0a1.16 1.16 0 112.32 0 1.16 1.16 0 01-2.32 0zm10.79 0a.897.897 0 111.793 0 .897.897 0 01-1.793 0zm10.748 0a.674.674 0 111.349 0 .674.674 0 01-1.349 0zm10.685 0a.516.516 0 111.032 0 .516.516 0 01-1.032 0zM36.305 100a.537.537 0 111.074 0 .537.537 0 01-1.074 0zm10.339 0a.725.725 0 111.45 0 .725.725 0 01-1.45 0zm10.292 0a.959.959 0 111.917 0 .959.959 0 01-1.917 0zm10.199 0a1.287 1.287 0 112.573 0 1.287 1.287 0 01-2.573 0zm10.102 0a1.71 1.71 0 113.421 0 1.71 1.71 0 01-3.421 0zm9.989 0a2.247 2.247 0 114.495 0 2.247 2.247 0 01-4.495 0zm10.052 0a2.722 2.722 0 115.444 0 2.722 2.722 0 01-5.444 0zm10.029 0a3.22 3.22 0 116.44 0 3.22 3.22 0 01-6.44 0zm10.102 0a3.644 3.644 0 117.288 0 3.644 3.644 0 01-7.288 0zm10.138 0a4.032 4.032 0 118.064 0 4.032 4.032 0 01-8.064 0zm10.398 0a4.16 4.16 0 118.32 0 4.16 4.16 0 01-8.32 0zm10.708 0a3.979 3.979 0 117.957 0 3.979 3.979 0 01-7.957 0zm11.021 0a3.484 3.484 0 116.967 0 3.484 3.484 0 01-6.967 0zm11.377 0a2.633 2.633 0 115.266 0 2.633 2.633 0 01-5.266 0zm11.614 0a1.546 1.546 0 113.091 0 1.546 1.546 0 01-3.091 0zm31.92 0a1.204 1.204 0 112.408 0 1.204 1.204 0 01-2.408 0zm9.286 0a2.445 2.445 0 114.89 0 2.445 2.445 0 01-4.89 0zm9.687 0a3.284 3.284 0 116.568 0 3.284 3.284 0 01-6.568 0zm9.907 0a3.903 3.903 0 117.807 0 3.903 3.903 0 01-7.807 0zm10.283 0a4.146 4.146 0 118.293 0 4.146 4.146 0 01-8.293 0zm10.6 0a4.073 4.073 0 118.146 0 4.073 4.073 0 01-8.146 0zm10.836 0a3.763 3.763 0 117.527 0 3.763 3.763 0 01-7.527 0zm10.987 0a3.302 3.302 0 116.605 0 3.302 3.302 0 01-6.605 0zm10.967 0a2.862 2.862 0 115.724 0 2.862 2.862 0 01-5.724 0zm11.042 0a2.346 2.346 0 114.692 0 2.346 2.346 0 01-4.692 0zm11.015 0a1.858 1.858 0 113.715 0 1.858 1.858 0 01-3.715 0zm11.026 0a1.358 1.358 0 112.716 0 1.358 1.358 0 01-2.716 0zm10.841 0a1.043 1.043 0 112.087 0 1.043 1.043 0 01-2.087 0zm10.808 0a.761.761 0 111.523 0 .761.761 0 01-1.523 0zm10.708 0a.58.58 0 111.16 0 .58.58 0 01-1.16 0zM36.257 110.526a.585.585 0 111.17 0 .585.585 0 01-1.17 0zm10.304 0a.807.807 0 111.615 0 .807.807 0 01-1.615 0zm10.247 0a1.087 1.087 0 112.174 0 1.087 1.087 0 01-2.174 0zm10.116 0a1.498 1.498 0 112.995 0 1.498 1.498 0 01-2.995 0zm9.991 0a2.032 2.032 0 114.064 0 2.032 2.032 0 01-4.064 0zm9.91 0a2.649 2.649 0 115.297 0 2.649 2.649 0 01-5.297 0zm9.955 0a3.22 3.22 0 116.44 0 3.22 3.22 0 01-6.44 0zm9.818 0a3.928 3.928 0 117.857 0 3.928 3.928 0 01-7.857 0zm9.87 0a4.584 4.584 0 119.169 0 4.584 4.584 0 01-9.169 0zm10.079 0a5.032 5.032 0 1110.063 0 5.032 5.032 0 01-10.063 0zm10.41 0a5.148 5.148 0 1110.297 0 5.148 5.148 0 01-10.297 0zm10.593 0a5.082 5.082 0 1110.164 0 5.082 5.082 0 01-10.164 0zm10.918 0a4.69 4.69 0 119.38 0 4.69 4.69 0 01-9.38 0zm11.652 0a3.564 3.564 0 117.128 0 3.564 3.564 0 01-7.128 0zm11.898 0a2.192 2.192 0 114.385 0 2.192 2.192 0 01-4.385 0zm12.09 0a.628.628 0 111.257 0 .628.628 0 01-1.257 0zm19.948 0a1.734 1.734 0 113.467 0 1.734 1.734 0 01-3.467 0zm8.953 0a3.307 3.307 0 116.614 0 3.307 3.307 0 01-6.614 0zm9.384 0a4.449 4.449 0 118.898 0 4.449 4.449 0 01-8.898 0zm9.93 0a5.045 5.045 0 1110.09 0 5.045 5.045 0 01-10.09 0zm10.423 0a5.148 5.148 0 1110.297 0 5.148 5.148 0 01-10.297 0zm10.607 0a5.068 5.068 0 1110.136 0 5.068 5.068 0 01-10.136 0zm10.847 0a4.747 4.747 0 119.495 0 4.747 4.747 0 01-9.495 0zm11.208 0a4.066 4.066 0 118.132 0 4.066 4.066 0 01-8.132 0zm11.191 0a3.401 3.401 0 116.802 0 3.401 3.401 0 01-6.802 0zm11.161 0a2.766 2.766 0 115.532 0 2.766 2.766 0 01-5.531 0zm11.093 0a2.2 2.2 0 114.399 0 2.2 2.2 0 01-4.399 0zm11.134 0a1.592 1.592 0 113.184 0 1.592 1.592 0 01-3.184 0zm10.939 0a1.179 1.179 0 112.358 0 1.179 1.179 0 01-2.358 0zm10.85 0a.855.855 0 111.711 0 .855.855 0 01-1.71 0zm10.747 0a.635.635 0 111.27 0 .635.635 0 01-1.27 0zM36.23 121.053a.612.612 0 111.224 0 .612.612 0 01-1.224 0zm10.28 0a.858.858 0 111.716 0 .858.858 0 01-1.715 0zm10.222 0a1.163 1.163 0 112.325 0 1.163 1.163 0 01-2.325 0zm10.036 0a1.653 1.653 0 113.307 0 1.653 1.653 0 01-3.307 0zm9.925 0a2.254 2.254 0 114.509 0 2.254 2.254 0 01-4.509 0zm9.834 0a2.947 2.947 0 115.894 0 2.947 2.947 0 01-5.894 0zm9.829 0a3.644 3.644 0 117.288 0 3.644 3.644 0 01-7.288 0zm9.586 0a4.584 4.584 0 119.169 0 4.584 4.584 0 01-9.169 0zm9.946 0a5.165 5.165 0 1110.33 0 5.165 5.165 0 01-10.33 0z"/>
  <path paint-order="stroke fill markers" d="M126.316 121.053a5.263 5.263 0 1110.526 0 5.263 5.263 0 01-10.526 0z"/>
  <path paint-order="stroke fill markers" d="M136.842 121.053a5.263 5.263 0 1110.526 0 5.263 5.263 0 01-10.526 0z"/>
  <path paint-order="stroke fill markers" d="M147.368 121.053a5.263 5.263 0 1110.527 0 5.263 5.263 0 01-10.527 0zm10.547 0a5.243 5.243 0 1110.485 0 5.243 5.243 0 01-10.485 0zm11.183 0a4.587 4.587 0 119.173 0 4.587 4.587 0 01-9.173 0zm12.209 0a2.903 2.903 0 115.807 0 2.903 2.903 0 01-5.807 0zm12.59 0a.84.84 0 111.68 0 .84.84 0 01-1.68 0zm10.816 0a.55.55 0 111.1 0 .55.55 0 01-1.1 0zm8.765 0a2.312 2.312 0 114.623 0 2.312 2.312 0 01-4.623 0zm8.538 0a4.3 4.3 0 118.6 0 4.3 4.3 0 01-8.6 0zm9.634 0a5.192 5.192 0 1110.384 0 5.192 5.192 0 01-10.384 0zm10.455 0a5.263 5.263 0 1110.527 0 5.263 5.263 0 01-10.527 0z"/>
  <path paint-order="stroke fill markers" d="M252.632 121.053a5.263 5.263 0 1110.526 0 5.263 5.263 0 01-10.526 0z"/>
  <path paint-order="stroke fill markers" d="M263.158 121.053a5.263 5.263 0 1110.526 0 5.263 5.263 0 01-10.526 0zm10.556 0a5.233 5.233 0 1110.467 0 5.233 5.233 0 01-10.467 0zm11.017 0a4.743 4.743 0 119.485 0 4.743 4.743 0 01-9.485 0zm11.37 0a3.899 3.899 0 117.798 0 3.899 3.899 0 01-7.798 0zm11.352 0a3.073 3.073 0 116.146 0 3.073 3.073 0 01-6.146 0zm11.164 0a2.436 2.436 0 114.871 0 2.436 2.436 0 01-4.87 0zm11.193 0a1.768 1.768 0 113.537 0 1.768 1.768 0 01-3.536 0zm11.02 0a1.275 1.275 0 112.55 0 1.275 1.275 0 01-2.55 0zm10.889 0a.913.913 0 111.825 0 .913.913 0 01-1.825 0zm10.765 0a.674.674 0 111.348 0 .674.674 0 01-1.348 0zM36.225 131.579a.617.617 0 111.234 0 .617.617 0 01-1.234 0zm10.27 0a.874.874 0 111.747 0 .874.874 0 01-1.747 0zm10.203 0a1.197 1.197 0 112.394 0 1.197 1.197 0 01-2.394 0zm9.971 0a1.752 1.752 0 113.504 0 1.752 1.752 0 01-3.504 0zm9.881 0a2.397 2.397 0 114.794 0 2.397 2.397 0 01-4.793 0zm9.768 0a3.156 3.156 0 116.311 0 3.156 3.156 0 01-6.31 0zm9.65 0a4.032 4.032 0 118.064 0 4.032 4.032 0 01-8.064 0zm9.527 0a5.032 5.032 0 1110.063 0 5.032 5.032 0 01-10.063 0zm10.295 0a5.263 5.263 0 1110.526 0 5.263 5.263 0 01-10.527 0z"/>
  <path paint-order="stroke fill markers" d="M126.316 131.579a5.263 5.263 0 1110.526 0 5.263 5.263 0 01-10.526 0z"/>
  <path paint-order="stroke fill markers" d="M136.842 131.579a5.263 5.263 0 1110.526 0 5.263 5.263 0 01-10.526 0z"/>
  <path paint-order="stroke fill markers" d="M147.368 131.579a5.263 5.263 0 1110.527 0 5.263 5.263 0 01-10.527 0z"/>
  <path paint-order="stroke fill markers" d="M157.895 131.579a5.263 5.263 0 1110.526 0 5.263 5.263 0 01-10.526 0zm10.588 0a5.201 5.201 0 1110.402 0 5.201 5.201 0 01-10.402 0zm11.911 0a3.816 3.816 0 117.633 0 3.816 3.816 0 01-7.633 0zm13.194 0a1.149 1.149 0 112.298 0 1.149 1.149 0 01-2.298 0zm10.932 0a.743.743 0 111.486 0 .743.743 0 01-1.486 0zm8.19 0a3.08 3.08 0 116.16 0 3.08 3.08 0 01-6.16 0zm8.512 0a5.093 5.093 0 1110.187 0 5.093 5.093 0 01-10.187 0zm10.357 0a5.263 5.263 0 1110.526 0 5.263 5.263 0 01-10.526 0z"/>
  <path paint-order="stroke fill markers" d="M242.105 131.579a5.263 5.263 0 1110.527 0 5.263 5.263 0 01-10.527 0z"/>
  <path paint-order="stroke fill markers" d="M252.632 131.579a5.263 5.263 0 1110.526 0 5.263 5.263 0 01-10.526 0z"/>
  <path paint-order="stroke fill markers" d="M263.158 131.579a5.263 5.263 0 1110.526 0 5.263 5.263 0 01-10.526 0z"/>
  <path paint-order="stroke fill markers" d="M273.684 131.579a5.263 5.263 0 1110.527 0 5.263 5.263 0 01-10.527 0zm10.655 0a5.135 5.135 0 1110.27 0 5.135 5.135 0 01-10.27 0zm11.336 0a4.325 4.325 0 118.65 0 4.325 4.325 0 01-8.65 0zm11.549 0a3.302 3.302 0 116.605 0 3.302 3.302 0 01-6.605 0zm11.23 0a2.598 2.598 0 115.197 0 2.598 2.598 0 01-5.197 0zm11.246 0a1.878 1.878 0 113.757 0 1.878 1.878 0 01-3.756 0zm11.087 0a1.319 1.319 0 112.637 0 1.319 1.319 0 01-2.637 0zm10.911 0a.933.933 0 111.867 0 .933.933 0 01-1.867 0zm10.782 0a.679.679 0 111.357 0 .679.679 0 01-1.358 0zM36.253 142.105a.59.59 0 111.178 0 .59.59 0 01-1.178 0zm10.271 0a.844.844 0 111.688 0 .844.844 0 01-1.688 0zm10.201 0a1.17 1.17 0 112.34 0 1.17 1.17 0 01-2.34 0zm9.969 0a1.727 1.727 0 113.454 0 1.727 1.727 0 01-3.454 0zm9.856 0a2.397 2.397 0 114.794 0 2.397 2.397 0 01-4.793 0zm9.722 0a3.201 3.201 0 116.403 0 3.201 3.201 0 01-6.403 0zm9.568 0a4.16 4.16 0 118.32 0 4.16 4.16 0 01-8.32 0zm9.538 0a5.148 5.148 0 1110.297 0 5.148 5.148 0 01-10.297 0zm10.412 0a5.263 5.263 0 1110.526 0 5.263 5.263 0 01-10.527 0z"/>
  <path paint-order="stroke fill markers" d="M126.316 142.105a5.263 5.263 0 1110.526 0 5.263 5.263 0 01-10.526 0z"/>
  <path paint-order="stroke fill markers" d="M136.842 142.105a5.263 5.263 0 1110.526 0 5.263 5.263 0 01-10.526 0z"/>
  <path paint-order="stroke fill markers" d="M147.368 142.105a5.263 5.263 0 1110.527 0 5.263 5.263 0 01-10.527 0z"/>
  <path paint-order="stroke fill markers" d="M157.895 142.105a5.263 5.263 0 1110.526 0 5.263 5.263 0 01-10.526 0z"/>
  <path paint-order="stroke fill markers" d="M168.421 142.105a5.263 5.263 0 1110.526 0 5.263 5.263 0 01-10.526 0zm11.279 0a4.511 4.511 0 119.021 0 4.511 4.511 0 01-9.021 0zm13.587 0a1.45 1.45 0 112.9 0 1.45 1.45 0 01-2.9 0zm11.006 0a.97.97 0 111.94 0 .97.97 0 01-1.94 0zm7.678 0a3.818 3.818 0 117.637 0 3.818 3.818 0 01-7.637 0zm9.082 0a5.263 5.263 0 1110.526 0 5.263 5.263 0 01-10.526 0z"/>
  <path paint-order="stroke fill markers" d="M231.579 142.105a5.263 5.263 0 1110.526 0 5.263 5.263 0 01-10.526 0z"/>
  <path paint-order="stroke fill markers" d="M242.105 142.105a5.263 5.263 0 1110.527 0 5.263 5.263 0 01-10.527 0z"/>
  <path paint-order="stroke fill markers" d="M252.632 142.105a5.263 5.263 0 1110.526 0 5.263 5.263 0 01-10.526 0z"/>
  <path paint-order="stroke fill markers" d="M263.158 142.105a5.263 5.263 0 1110.526 0 5.263 5.263 0 01-10.526 0z"/>
  <path paint-order="stroke fill markers" d="M273.684 142.105a5.263 5.263 0 1110.527 0 5.263 5.263 0 01-10.527 0zm10.572 0a5.217 5.217 0 1110.435 0 5.217 5.217 0 01-10.435 0zm11.249 0a4.495 4.495 0 118.99 0 4.495 4.495 0 01-8.99 0zm11.655 0a3.367 3.367 0 116.733 0 3.367 3.367 0 01-6.733 0zm11.28 0a2.612 2.612 0 115.225 0 2.612 2.612 0 01-5.224 0zm11.28 0a1.86 1.86 0 113.719 0 1.86 1.86 0 01-3.72 0zm11.09 0a1.296 1.296 0 112.591 0 1.296 1.296 0 01-2.591 0zm10.92 0a.901.901 0 111.803 0 .901.901 0 01-1.803 0zm10.774 0a.654.654 0 111.307 0 .654.654 0 01-1.307 0zM36.312 152.632a.53.53 0 111.06 0 .53.53 0 01-1.06 0zm10.302 0a.755.755 0 111.509 0 .755.755 0 01-1.51 0zm10.221 0a1.06 1.06 0 112.12 0 1.06 1.06 0 01-2.12 0zm10.033 0a1.553 1.553 0 113.106 0 1.553 1.553 0 01-3.106 0zm9.862 0a2.218 2.218 0 114.435 0 2.218 2.218 0 01-4.435 0zm9.712 0a3.032 3.032 0 116.063 0 3.032 3.032 0 01-6.063 0zm9.579 0a3.979 3.979 0 117.958 0 3.979 3.979 0 01-7.958 0zm9.423 0a5.082 5.082 0 1110.164 0 5.082 5.082 0 01-10.164 0zm10.346 0a5.263 5.263 0 1110.526 0 5.263 5.263 0 01-10.527 0z"/>
  <path paint-order="stroke fill markers" d="M126.316 152.632a5.263 5.263 0 1110.526 0 5.263 5.263 0 01-10.526 0z"/>
  <path paint-order="stroke fill markers" d="M136.842 152.632a5.263 5.263 0 1110.526 0 5.263 5.263 0 01-10.526 0z"/>
  <path paint-order="stroke fill markers" d="M147.368 152.632a5.263 5.263 0 1110.527 0 5.263 5.263 0 01-10.527 0z"/>
  <path paint-order="stroke fill markers" d="M157.895 152.632a5.263 5.263 0 1110.526 0 5.263 5.263 0 01-10.526 0z"/>
  <path paint-order="stroke fill markers" d="M168.421 152.632a5.263 5.263 0 1110.526 0 5.263 5.263 0 01-10.526 0zm10.836 0a4.954 4.954 0 119.907 0 4.954 4.954 0 01-9.907 0zm13.689 0a1.791 1.791 0 113.582 0 1.791 1.791 0 01-3.582 0zm11.115 0a1.202 1.202 0 112.404 0 1.202 1.202 0 01-2.404 0zm7.349 0a4.38 4.38 0 118.76 0 4.38 4.38 0 01-8.76 0zm9.643 0a5.263 5.263 0 1110.526 0 5.263 5.263 0 01-10.526 0z"/>
  <path paint-order="stroke fill markers" d="M231.579 152.632a5.263 5.263 0 1110.526 0 5.263 5.263 0 01-10.526 0z"/>
  <path paint-order="stroke fill markers" d="M242.105 152.632a5.263 5.263 0 1110.527 0 5.263 5.263 0 01-10.527 0z"/>
  <path paint-order="stroke fill markers" d="M252.632 152.632a5.263 5.263 0 1110.526 0 5.263 5.263 0 01-10.526 0z"/>
  <path paint-order="stroke fill markers" d="M263.158 152.632a5.263 5.263 0 1110.526 0 5.263 5.263 0 01-10.526 0z"/>
  <path paint-order="stroke fill markers" d="M273.684 152.632a5.263 5.263 0 1110.527 0 5.263 5.263 0 01-10.527 0zm10.614 0a5.176 5.176 0 1110.352 0 5.176 5.176 0 01-10.352 0zm11.379 0a4.323 4.323 0 118.646 0 4.323 4.323 0 01-8.646 0zm11.657 0a3.192 3.192 0 116.385 0 3.192 3.192 0 01-6.385 0zm11.283 0a2.436 2.436 0 114.871 0 2.436 2.436 0 01-4.87 0zm11.283 0a1.679 1.679 0 113.358 0 1.679 1.679 0 01-3.358 0zm11.038 0a1.167 1.167 0 112.335 0 1.167 1.167 0 01-2.335 0zm10.886 0a.807.807 0 111.615 0 .807.807 0 01-1.615 0zm10.754 0a.58.58 0 111.16 0 .58.58 0 01-1.16 0zM46.735 163.158a.633.633 0 111.266 0 .633.633 0 01-1.266 0zm10.277 0a.883.883 0 111.766 0 .883.883 0 01-1.766 0zm10.118 0a1.291 1.291 0 112.582 0 1.291 1.291 0 01-2.582 0zm9.955 0a1.862 1.862 0 113.725 0 1.862 1.862 0 01-3.725 0zm9.735 0a2.653 2.653 0 115.307 0 2.653 2.653 0 01-5.307 0zm9.696 0a3.484 3.484 0 116.968 0 3.484 3.484 0 01-6.968 0zm9.32 0a4.69 4.69 0 119.38 0 4.69 4.69 0 01-9.38 0zm9.974 0a5.243 5.243 0 1110.485 0 5.243 5.243 0 01-10.485 0zm10.506 0a5.263 5.263 0 1110.526 0 5.263 5.263 0 01-10.526 0z"/>
  <path paint-order="stroke fill markers" d="M136.842 163.158a5.263 5.263 0 1110.526 0 5.263 5.263 0 01-10.526 0z"/>
  <path paint-order="stroke fill markers" d="M147.368 163.158a5.263 5.263 0 1110.527 0 5.263 5.263 0 01-10.527 0z"/>
  <path paint-order="stroke fill markers" d="M157.895 163.158a5.263 5.263 0 1110.526 0 5.263 5.263 0 01-10.526 0z"/>
  <path paint-order="stroke fill markers" d="M168.421 163.158a5.263 5.263 0 1110.526 0 5.263 5.263 0 01-10.526 0zm10.666 0a5.123 5.123 0 1110.247 0 5.123 5.123 0 01-10.247 0zm13.618 0a2.032 2.032 0 114.064 0 2.032 2.032 0 01-4.064 0zm11.198 0a1.36 1.36 0 112.72 0 1.36 1.36 0 01-2.72 0zm7.224 0a4.662 4.662 0 119.325 0 4.662 4.662 0 01-9.325 0zm9.926 0a5.263 5.263 0 1110.526 0 5.263 5.263 0 01-10.526 0z"/>
  <path paint-order="stroke fill markers" d="M231.579 163.158a5.263 5.263 0 1110.526 0 5.263 5.263 0 01-10.526 0z"/>
  <path paint-order="stroke fill markers" d="M242.105 163.158a5.263 5.263 0 1110.527 0 5.263 5.263 0 01-10.527 0z"/>
  <path paint-order="stroke fill markers" d="M252.632 163.158a5.263 5.263 0 1110.526 0 5.263 5.263 0 01-10.526 0z"/>
  <path paint-order="stroke fill markers" d="M263.158 163.158a5.263 5.263 0 1110.526 0 5.263 5.263 0 01-10.526 0z"/>
  <path paint-order="stroke fill markers" d="M273.684 163.158a5.263 5.263 0 1110.527 0 5.263 5.263 0 01-10.527 0zm10.916 0a4.873 4.873 0 119.747 0 4.873 4.873 0 01-9.747 0zm11.61 0a3.79 3.79 0 117.58 0 3.79 3.79 0 01-7.58 0zm11.514 0a2.802 2.802 0 115.605 0 2.802 2.802 0 01-5.605 0zm11.258 0a2.07 2.07 0 114.141 0 2.07 2.07 0 01-4.141 0zm11.214 0a1.383 1.383 0 112.766 0 1.383 1.383 0 01-2.766 0zm10.928 0a.982.982 0 111.963 0 .982.982 0 01-1.963 0zm10.833 0a.674.674 0 111.349 0 .674.674 0 01-1.349 0zM57.26 173.684a.635.635 0 111.27 0 .635.635 0 01-1.27 0zm10.246 0a.915.915 0 111.83 0 .915.915 0 01-1.83 0zm10.146 0a1.296 1.296 0 112.591 0 1.296 1.296 0 01-2.591 0zm9.9 0a1.922 1.922 0 113.843 0 1.922 1.922 0 01-3.843 0zm9.815 0a2.633 2.633 0 115.266 0 2.633 2.633 0 01-5.266 0zm9.596 0a3.564 3.564 0 117.127 0 3.564 3.564 0 01-7.127 0zm9.503 0a4.587 4.587 0 119.173 0 4.587 4.587 0 01-9.173 0zm9.912 0a5.201 5.201 0 1110.402 0 5.201 5.201 0 01-10.402 0zm10.464 0a5.263 5.263 0 1110.526 0 5.263 5.263 0 01-10.526 0z"/>
  <path paint-order="stroke fill markers" d="M147.368 173.684a5.263 5.263 0 1110.527 0 5.263 5.263 0 01-10.527 0z"/>
  <path paint-order="stroke fill markers" d="M157.895 173.684a5.263 5.263 0 1110.526 0 5.263 5.263 0 01-10.526 0z"/>
  <path paint-order="stroke fill markers" d="M168.421 173.684a5.263 5.263 0 1110.526 0 5.263 5.263 0 01-10.526 0zm10.671 0a5.119 5.119 0 1110.237 0 5.119 5.119 0 01-10.237 0zm13.569 0a2.075 2.075 0 114.151 0 2.075 2.075 0 01-4.15 0zm11.206 0a1.397 1.397 0 112.793 0 1.397 1.397 0 01-2.793 0zm7.253 0a4.67 4.67 0 119.339 0 4.67 4.67 0 01-9.339 0zm9.933 0a5.263 5.263 0 1110.526 0 5.263 5.263 0 01-10.526 0z"/>
  <path paint-order="stroke fill markers" d="M231.579 173.684a5.263 5.263 0 1110.526 0 5.263 5.263 0 01-10.526 0z"/>
  <path paint-order="stroke fill markers" d="M242.105 173.684a5.263 5.263 0 1110.527 0 5.263 5.263 0 01-10.527 0z"/>
  <path paint-order="stroke fill markers" d="M252.632 173.684a5.263 5.263 0 1110.526 0 5.263 5.263 0 01-10.526 0zm10.556 0a5.233 5.233 0 1110.466 0 5.233 5.233 0 01-10.466 0zm10.932 0a4.827 4.827 0 119.655 0 4.827 4.827 0 01-9.655 0zm11.593 0a3.761 3.761 0 117.522 0 3.761 3.761 0 01-7.522 0zm11.423 0a2.864 2.864 0 115.728 0 2.864 2.864 0 01-5.728 0zm11.334 0a2.057 2.057 0 114.113 0 2.057 2.057 0 01-4.114 0zm11.147 0a1.436 1.436 0 112.871 0 1.436 1.436 0 01-2.871 0zm10.978 0a.984.984 0 111.968 0 .984.984 0 01-1.968 0zm10.809 0a.702.702 0 111.403 0 .702.702 0 01-1.403 0zM67.878 184.21a.544.544 0 111.087 0 .544.544 0 01-1.087 0zm10.306 0a.764.764 0 111.527 0 .764.764 0 01-1.527 0zm10.191 0a1.098 1.098 0 112.197 0 1.098 1.098 0 01-2.197 0zm10.079 0a1.546 1.546 0 113.092 0 1.546 1.546 0 01-3.092 0zm9.878 0a2.195 2.195 0 114.389 0 2.195 2.195 0 01-4.39 0zm9.815 0a2.906 2.906 0 115.811 0 2.906 2.906 0 01-5.811 0zm9.616 0a3.816 3.816 0 117.632 0 3.816 3.816 0 01-7.632 0zm9.827 0a4.516 4.516 0 119.03 0 4.516 4.516 0 01-9.03 0zm10.088 0a4.954 4.954 0 119.907 0 4.954 4.954 0 01-9.907 0zm10.357 0a5.123 5.123 0 1110.246 0 5.123 5.123 0 01-10.246 0zm10.531 0a5.119 5.119 0 1110.237 0 5.119 5.119 0 01-10.237 0zm11.129 0a4.516 4.516 0 119.031 0 4.516 4.516 0 01-9.031 0zm13.331 0a1.71 1.71 0 113.422 0 1.71 1.71 0 01-3.422 0zm11.081 0a1.156 1.156 0 112.312 0 1.156 1.156 0 01-2.312 0zm7.722 0a3.96 3.96 0 117.921 0 3.96 3.96 0 01-7.921 0zm9.401 0a5.087 5.087 0 1110.172 0 5.087 5.087 0 01-10.173 0zm10.47 0a5.142 5.142 0 1110.284 0 5.142 5.142 0 01-10.284 0zm10.669 0a5 5 0 119.999 0 5 5 0 01-9.999 0zm10.861 0a4.665 4.665 0 119.33 0 4.665 4.665 0 01-9.33 0zm11.217 0a3.974 3.974 0 117.948 0 3.974 3.974 0 01-7.948 0zm11.363 0a3.137 3.137 0 116.275 0 3.137 3.137 0 01-6.275 0zm11.334 0a2.33 2.33 0 114.66 0 2.33 2.33 0 01-4.66 0zm11.146 0a1.71 1.71 0 113.42 0 1.71 1.71 0 01-3.42 0zm11.067 0a1.17 1.17 0 112.339 0 1.17 1.17 0 01-2.34 0zm10.856 0a.84.84 0 111.679 0 .84.84 0 01-1.679 0zm10.779 0a.587.587 0 111.174 0 .587.587 0 01-1.174 0zm-221.101 10.527a.635.635 0 111.27 0 .635.635 0 01-1.27 0zm10.318 0a.844.844 0 111.688 0 .844.844 0 01-1.688 0zm10.219 0a1.151 1.151 0 112.302 0 1.151 1.151 0 01-2.302 0zm10.219 0a1.459 1.459 0 112.917 0 1.459 1.459 0 01-2.917 0zm10.182 0a1.803 1.803 0 113.605 0 1.803 1.803 0 01-3.605 0zm10.288 0a2.041 2.041 0 114.082 0 2.041 2.041 0 01-4.082 0zm10.485 0a2.082 2.082 0 114.165 0 2.082 2.082 0 01-4.165 0zm10.898 0a1.71 1.71 0 113.421 0 1.71 1.71 0 01-3.421 0zm11.563 0a.674.674 0 111.348 0 .674.674 0 01-1.348 0zm20.229 0a1.498 1.498 0 112.995 0 1.498 1.498 0 01-2.995 0zm9.976 0a2.048 2.048 0 114.096 0 2.048 2.048 0 01-4.096 0zm10.492 0a2.082 2.082 0 114.164 0 2.082 2.082 0 01-4.164 0zm10.75 0a1.858 1.858 0 113.716 0 1.858 1.858 0 01-3.715 0zm10.832 0a1.553 1.553 0 113.105 0 1.553 1.553 0 01-3.105 0zm10.866 0a1.213 1.213 0 112.426 0 1.213 1.213 0 01-2.426 0zm10.82 0a.92.92 0 111.839 0 .92.92 0 01-1.84 0zm10.778 0a.667.667 0 111.335 0 .667.667 0 01-1.335 0zm10.689 0a.505.505 0 111.01 0 .505.505 0 01-1.01 0zm-179 10.526a.557.557 0 111.115 0 .557.557 0 01-1.115 0zm10.327 0a.757.757 0 111.514 0 .757.757 0 01-1.514 0zm10.302 0a.982.982 0 111.963 0 .982.982 0 01-1.963 0zm10.288 0a1.22 1.22 0 112.44 0 1.22 1.22 0 01-2.44 0zm10.365 0a1.38 1.38 0 112.761 0 1.38 1.38 0 01-2.76 0zm10.495 0a1.413 1.413 0 112.825 0 1.413 1.413 0 01-2.825 0zm10.771 0a1.167 1.167 0 112.335 0 1.167 1.167 0 01-2.335 0zm31.726 0a1.02 1.02 0 112.041 0 1.02 1.02 0 01-2.041 0zm10.157 0a1.39 1.39 0 112.78 0 1.39 1.39 0 01-2.78 0zm10.508 0a1.408 1.408 0 112.816 0 1.408 1.408 0 01-2.816 0zm10.676 0a1.259 1.259 0 112.517 0 1.259 1.259 0 01-2.518 0zm10.734 0a1.05 1.05 0 112.101 0 1.05 1.05 0 01-2.1 0zm10.779 0a.798.798 0 111.596 0 .798.798 0 01-1.596 0zm10.712 0a.612.612 0 111.225 0 .612.612 0 01-1.225 0zM78.342 215.79a.605.605 0 111.21 0 .605.605 0 01-1.21 0zm10.268 0a.865.865 0 111.728 0 .865.865 0 01-1.729 0zm10.184 0a1.206 1.206 0 112.412 0 1.206 1.206 0 01-2.412 0zm9.994 0a1.738 1.738 0 113.477 0 1.738 1.738 0 01-3.477 0zm9.948 0a2.316 2.316 0 114.633 0 2.316 2.316 0 01-4.633 0zm9.763 0a3.08 3.08 0 116.16 0 3.08 3.08 0 01-6.16 0zm9.786 0a3.82 3.82 0 117.64 0 3.82 3.82 0 01-7.64 0zm9.959 0a4.387 4.387 0 118.775 0 4.387 4.387 0 01-8.775 0zm10.247 0a4.667 4.667 0 119.334 0 4.667 4.667 0 01-9.334 0zm10.524 0a4.67 4.67 0 119.338 0 4.67 4.67 0 01-9.338 0zm11.235 0a3.96 3.96 0 117.921 0 3.96 3.96 0 01-7.921 0zm13.005 0a1.481 1.481 0 112.963 0 1.481 1.481 0 01-2.963 0zm11.008 0a1 1 0 112 0 1 1 0 01-2 0zm8.061 0a3.465 3.465 0 116.93 0 3.465 3.465 0 01-6.93 0zm9.376 0a4.616 4.616 0 119.232 0 4.616 4.616 0 01-9.233 0zm10.434 0a4.708 4.708 0 119.416 0 4.708 4.708 0 01-9.416 0zm10.776 0a4.458 4.458 0 118.917 0 4.458 4.458 0 01-8.917 0zm10.967 0a4.018 4.018 0 118.036 0 4.018 4.018 0 01-8.036 0zm11.315 0a3.229 3.229 0 116.458 0 3.229 3.229 0 01-6.458 0zm11.246 0a2.509 2.509 0 115.018 0 2.509 2.509 0 01-5.018 0zm11.192 0a1.844 1.844 0 113.688 0 1.844 1.844 0 01-3.688 0zm11.033 0a1.337 1.337 0 112.674 0 1.337 1.337 0 01-2.674 0zm10.937 0a.926.926 0 111.853 0 .926.926 0 01-1.853 0zm10.788 0a.665.665 0 111.33 0 .665.665 0 01-1.33 0zM57.31 226.316a.585.585 0 111.17 0 .585.585 0 01-1.17 0zm10.267 0a.844.844 0 111.688 0 .844.844 0 01-1.688 0zm10.189 0a1.181 1.181 0 112.362 0 1.181 1.181 0 01-2.362 0zm9.951 0a1.757 1.757 0 113.513 0 1.757 1.757 0 01-3.513 0zm9.838 0a2.445 2.445 0 114.89 0 2.445 2.445 0 01-4.89 0zm9.665 0a3.307 3.307 0 116.613 0 3.307 3.307 0 01-6.614 0zm9.533 0a4.3 4.3 0 118.6 0 4.3 4.3 0 01-8.6 0zm9.732 0a5.093 5.093 0 1110.187 0 5.093 5.093 0 01-10.187 0zm10.357 0a5.263 5.263 0 1110.526 0 5.263 5.263 0 01-10.526 0z"/>
  <path paint-order="stroke fill markers" d="M147.368 226.316a5.263 5.263 0 1110.527 0 5.263 5.263 0 01-10.527 0z"/>
  <path paint-order="stroke fill markers" d="M157.895 226.316a5.263 5.263 0 1110.526 0 5.263 5.263 0 01-10.526 0z"/>
  <path paint-order="stroke fill markers" d="M168.421 226.316a5.263 5.263 0 1110.526 0 5.263 5.263 0 01-10.526 0zm10.703 0a5.087 5.087 0 1110.173 0 5.087 5.087 0 01-10.173 0zm13.576 0a2.036 2.036 0 114.073 0 2.036 2.036 0 01-4.073 0zm11.19 0a1.374 1.374 0 112.747 0 1.374 1.374 0 01-2.748 0zm7.29 0a4.61 4.61 0 119.219 0 4.61 4.61 0 01-9.22 0zm9.873 0a5.263 5.263 0 1110.526 0 5.263 5.263 0 01-10.526 0z"/>
  <path paint-order="stroke fill markers" d="M231.579 226.316a5.263 5.263 0 1110.526 0 5.263 5.263 0 01-10.526 0z"/>
  <path paint-order="stroke fill markers" d="M242.105 226.316a5.263 5.263 0 1110.527 0 5.263 5.263 0 01-10.527 0z"/>
  <path paint-order="stroke fill markers" d="M252.632 226.316a5.263 5.263 0 1110.526 0 5.263 5.263 0 01-10.526 0zm10.629 0a5.16 5.16 0 1110.32 0 5.16 5.16 0 01-10.32 0zm11.099 0a4.587 4.587 0 119.174 0 4.587 4.587 0 01-9.173 0zm11.61 0a3.504 3.504 0 117.008 0 3.504 3.504 0 01-7.009 0zm11.372 0a2.658 2.658 0 115.316 0 2.658 2.658 0 01-5.316 0zm11.299 0a1.885 1.885 0 113.77 0 1.885 1.885 0 01-3.77 0zm11.095 0a1.316 1.316 0 112.633 0 1.316 1.316 0 01-2.633 0zm10.944 0a.899.899 0 111.798 0 .899.899 0 01-1.798 0zm10.779 0a.647.647 0 111.293 0 .647.647 0 01-1.293 0zM46.781 236.842a.587.587 0 111.175 0 .587.587 0 01-1.175 0zm10.293 0a.821.821 0 111.642 0 .821.821 0 01-1.642 0zm10.159 0a1.188 1.188 0 112.376 0 1.188 1.188 0 01-2.376 0zm10.001 0a1.713 1.713 0 113.426 0 1.713 1.713 0 01-3.426 0zm9.754 0a2.486 2.486 0 114.972 0 2.486 2.486 0 01-4.972 0zm9.728 0a3.284 3.284 0 116.568 0 3.284 3.284 0 01-6.568 0zm9.361 0a4.449 4.449 0 118.898 0 4.449 4.449 0 01-8.898 0zm9.783 0a5.192 5.192 0 1110.385 0 5.192 5.192 0 01-10.384 0zm10.456 0a5.263 5.263 0 1110.526 0 5.263 5.263 0 01-10.526 0z"/>
  <path paint-order="stroke fill markers" d="M136.842 236.842a5.263 5.263 0 1110.526 0 5.263 5.263 0 01-10.526 0z"/>
  <path paint-order="stroke fill markers" d="M147.368 236.842a5.263 5.263 0 1110.527 0 5.263 5.263 0 01-10.527 0z"/>
  <path paint-order="stroke fill markers" d="M157.895 236.842a5.263 5.263 0 1110.526 0 5.263 5.263 0 01-10.526 0z"/>
  <path paint-order="stroke fill markers" d="M168.421 236.842a5.263 5.263 0 1110.526 0 5.263 5.263 0 01-10.526 0zm10.648 0a5.142 5.142 0 1110.283 0 5.142 5.142 0 01-10.283 0zm13.595 0a2.073 2.073 0 114.146 0 2.073 2.073 0 01-4.146 0zm11.209 0a1.39 1.39 0 112.78 0 1.39 1.39 0 01-2.78 0zm7.211 0a4.706 4.706 0 119.411 0 4.706 4.706 0 01-9.411 0zm9.969 0a5.263 5.263 0 1110.526 0 5.263 5.263 0 01-10.526 0z"/>
  <path paint-order="stroke fill markers" d="M231.579 236.842a5.263 5.263 0 1110.526 0 5.263 5.263 0 01-10.526 0z"/>
  <path paint-order="stroke fill markers" d="M242.105 236.842a5.263 5.263 0 1110.527 0 5.263 5.263 0 01-10.527 0z"/>
  <path paint-order="stroke fill markers" d="M252.632 236.842a5.263 5.263 0 1110.526 0 5.263 5.263 0 01-10.526 0z"/>
  <path paint-order="stroke fill markers" d="M263.158 236.842a5.263 5.263 0 1110.526 0 5.263 5.263 0 01-10.526 0zm10.545 0a5.245 5.245 0 1110.49 0 5.245 5.245 0 01-10.49 0zm11.113 0a4.658 4.658 0 119.315 0 4.658 4.658 0 01-9.315 0zm11.62 0a3.564 3.564 0 117.128 0 3.564 3.564 0 01-7.128 0zm11.453 0a2.637 2.637 0 115.275 0 2.637 2.637 0 01-5.275 0zm11.246 0a1.917 1.917 0 113.835 0 1.917 1.917 0 01-3.835 0zm11.167 0a1.277 1.277 0 112.554 0 1.277 1.277 0 01-2.554 0zm10.898 0a.906.906 0 111.811 0 .906.906 0 01-1.812 0zm10.803 0a.628.628 0 111.257 0 .628.628 0 01-1.257 0zM36.33 247.368a.511.511 0 111.024 0 .511.511 0 01-1.023 0zm10.307 0a.732.732 0 111.463 0 .732.732 0 01-1.463 0zm10.226 0a1.032 1.032 0 112.064 0 1.032 1.032 0 01-2.064 0zm10.049 0a1.509 1.509 0 113.018 0 1.509 1.509 0 01-3.018 0zm9.875 0a2.16 2.16 0 114.32 0 2.16 2.16 0 01-4.32 0zm9.713 0a2.974 2.974 0 115.948 0 2.974 2.974 0 01-5.949 0zm9.597 0a3.903 3.903 0 117.806 0 3.903 3.903 0 01-7.806 0zm9.384 0a5.045 5.045 0 1110.09 0 5.045 5.045 0 01-10.09 0zm10.309 0a5.263 5.263 0 1110.526 0 5.263 5.263 0 01-10.527 0z"/>
  <path paint-order="stroke fill markers" d="M126.316 247.368a5.263 5.263 0 1110.526 0 5.263 5.263 0 01-10.526 0z"/>
  <path paint-order="stroke fill markers" d="M136.842 247.368a5.263 5.263 0 1110.526 0 5.263 5.263 0 01-10.526 0z"/>
  <path paint-order="stroke fill markers" d="M147.368 247.368a5.263 5.263 0 1110.527 0 5.263 5.263 0 01-10.527 0z"/>
  <path paint-order="stroke fill markers" d="M157.895 247.368a5.263 5.263 0 1110.526 0 5.263 5.263 0 01-10.526 0z"/>
  <path paint-order="stroke fill markers" d="M168.421 247.368a5.263 5.263 0 1110.526 0 5.263 5.263 0 01-10.526 0zm10.792 0a4.997 4.997 0 119.995 0 4.997 4.997 0 01-9.995 0zm13.673 0a1.85 1.85 0 113.702 0 1.85 1.85 0 01-3.702 0zm11.139 0a1.238 1.238 0 112.477 0 1.238 1.238 0 01-2.477 0zm7.309 0a4.456 4.456 0 118.911 0 4.456 4.456 0 01-8.911 0zm9.719 0a5.263 5.263 0 1110.526 0 5.263 5.263 0 01-10.526 0z"/>
  <path paint-order="stroke fill markers" d="M231.579 247.368a5.263 5.263 0 1110.526 0 5.263 5.263 0 01-10.526 0z"/>
  <path paint-order="stroke fill markers" d="M242.105 247.368a5.263 5.263 0 1110.527 0 5.263 5.263 0 01-10.527 0z"/>
  <path paint-order="stroke fill markers" d="M252.632 247.368a5.263 5.263 0 1110.526 0 5.263 5.263 0 01-10.526 0z"/>
  <path paint-order="stroke fill markers" d="M263.158 247.368a5.263 5.263 0 1110.526 0 5.263 5.263 0 01-10.526 0z"/>
  <path paint-order="stroke fill markers" d="M273.684 247.368a5.263 5.263 0 1110.527 0 5.263 5.263 0 01-10.527 0zm10.641 0a5.148 5.148 0 1110.297 0 5.148 5.148 0 01-10.297 0zm11.43 0a4.245 4.245 0 118.49 0 4.245 4.245 0 01-8.49 0zm11.636 0a3.135 3.135 0 116.27 0 3.135 3.135 0 01-6.27 0zm11.283 0a2.378 2.378 0 114.757 0 2.378 2.378 0 01-4.757 0zm11.284 0a1.621 1.621 0 113.242 0 1.621 1.621 0 01-3.242 0zm11.01 0a1.137 1.137 0 112.275 0 1.137 1.137 0 01-2.275 0zm10.882 0a.782.782 0 111.564 0 .782.782 0 01-1.564 0zm10.744 0a.564.564 0 111.128 0 .564.564 0 01-1.128 0zm-326.33 10.527a.578.578 0 111.156 0 .578.578 0 01-1.156 0zm10.279 0a.826.826 0 111.651 0 .826.826 0 01-1.651 0zm10.205 0a1.147 1.147 0 112.293 0 1.147 1.147 0 01-2.293 0zm9.982 0a1.69 1.69 0 113.381 0 1.69 1.69 0 01-3.38 0zm9.848 0a2.369 2.369 0 114.738 0 2.369 2.369 0 01-4.738 0zm9.715 0a3.18 3.18 0 116.362 0 3.18 3.18 0 01-6.362 0zm9.561 0a4.146 4.146 0 118.292 0 4.146 4.146 0 01-8.292 0zm9.524 0a5.148 5.148 0 1110.297 0 5.148 5.148 0 01-10.297 0zm10.412 0a5.263 5.263 0 1110.526 0 5.263 5.263 0 01-10.527 0z"/>
  <path paint-order="stroke fill markers" d="M126.316 257.895a5.263 5.263 0 1110.526 0 5.263 5.263 0 01-10.526 0z"/>
  <path paint-order="stroke fill markers" d="M136.842 257.895a5.263 5.263 0 1110.526 0 5.263 5.263 0 01-10.526 0z"/>
  <path paint-order="stroke fill markers" d="M147.368 257.895a5.263 5.263 0 1110.527 0 5.263 5.263 0 01-10.527 0z"/>
  <path paint-order="stroke fill markers" d="M157.895 257.895a5.263 5.263 0 1110.526 0 5.263 5.263 0 01-10.526 0z"/>
  <path paint-order="stroke fill markers" d="M168.421 257.895a5.263 5.263 0 1110.526 0 5.263 5.263 0 01-10.526 0zm11.125 0a4.665 4.665 0 119.33 0 4.665 4.665 0 01-9.33 0zm13.643 0a1.548 1.548 0 113.096 0 1.548 1.548 0 01-3.096 0zm11.038 0a1.037 1.037 0 112.073 0 1.037 1.037 0 01-2.073 0zm7.553 0a4.009 4.009 0 118.018 0 4.009 4.009 0 01-8.017 0zm9.273 0a5.263 5.263 0 1110.526 0 5.263 5.263 0 01-10.526 0z"/>
  <path paint-order="stroke fill markers" d="M231.579 257.895a5.263 5.263 0 1110.526 0 5.263 5.263 0 01-10.526 0z"/>
  <path paint-order="stroke fill markers" d="M242.105 257.895a5.263 5.263 0 1110.527 0 5.263 5.263 0 01-10.527 0z"/>
  <path paint-order="stroke fill markers" d="M252.632 257.895a5.263 5.263 0 1110.526 0 5.263 5.263 0 01-10.526 0z"/>
  <path paint-order="stroke fill markers" d="M263.158 257.895a5.263 5.263 0 1110.526 0 5.263 5.263 0 01-10.526 0z"/>
  <path paint-order="stroke fill markers" d="M273.684 257.895a5.263 5.263 0 1110.527 0 5.263 5.263 0 01-10.527 0zm10.57 0a5.22 5.22 0 1110.44 0 5.22 5.22 0 01-10.44 0zm11.256 0a4.49 4.49 0 118.98 0 4.49 4.49 0 01-8.98 0zm11.673 0a3.344 3.344 0 116.687 0 3.344 3.344 0 01-6.687 0zm11.285 0a2.585 2.585 0 115.17 0 2.585 2.585 0 01-5.17 0zm11.29 0a1.82 1.82 0 113.642 0 1.82 1.82 0 01-3.642 0zm11.077 0a1.27 1.27 0 112.54 0 1.27 1.27 0 01-2.54 0zm10.918 0a.878.878 0 111.757 0 .878.878 0 01-1.757 0zm10.77 0a.635.635 0 111.27 0 .635.635 0 01-1.27 0zM36.227 268.421a.615.615 0 111.23 0 .615.615 0 01-1.23 0zm10.27 0a.871.871 0 111.743 0 .871.871 0 01-1.743 0zm10.201 0a1.197 1.197 0 112.394 0 1.197 1.197 0 01-2.394 0zm9.969 0a1.754 1.754 0 113.508 0 1.754 1.754 0 01-3.508 0zm9.873 0a2.408 2.408 0 114.815 0 2.408 2.408 0 01-4.816 0zm9.757 0a3.176 3.176 0 116.353 0 3.176 3.176 0 01-6.353 0zm9.63 0a4.073 4.073 0 118.146 0 4.073 4.073 0 01-8.146 0zm9.531 0a5.068 5.068 0 1110.137 0 5.068 5.068 0 01-10.137 0zm10.332 0a5.263 5.263 0 1110.526 0 5.263 5.263 0 01-10.527 0z"/>
  <path paint-order="stroke fill markers" d="M126.316 268.421a5.263 5.263 0 1110.526 0 5.263 5.263 0 01-10.526 0z"/>
  <path paint-order="stroke fill markers" d="M136.842 268.421a5.263 5.263 0 1110.526 0 5.263 5.263 0 01-10.526 0z"/>
  <path paint-order="stroke fill markers" d="M147.368 268.421a5.263 5.263 0 1110.527 0 5.263 5.263 0 01-10.527 0z"/>
  <path paint-order="stroke fill markers" d="M157.895 268.421a5.263 5.263 0 1110.526 0 5.263 5.263 0 01-10.526 0zm10.555 0a5.233 5.233 0 1110.468 0 5.233 5.233 0 01-10.467 0zm11.789 0a3.972 3.972 0 117.944 0 3.972 3.972 0 01-7.944 0zm13.291 0a1.206 1.206 0 112.413 0 1.206 1.206 0 01-2.412 0zm10.947 0a.787.787 0 111.573 0 .787.787 0 01-1.573 0zm8.086 0a3.227 3.227 0 116.453 0 3.227 3.227 0 01-6.453 0zm8.593 0a5.16 5.16 0 1110.32 0 5.16 5.16 0 01-10.32 0zm10.423 0a5.263 5.263 0 1110.526 0 5.263 5.263 0 01-10.526 0z"/>
  <path paint-order="stroke fill markers" d="M242.105 268.421a5.263 5.263 0 1110.527 0 5.263 5.263 0 01-10.527 0z"/>
  <path paint-order="stroke fill markers" d="M252.632 268.421a5.263 5.263 0 1110.526 0 5.263 5.263 0 01-10.526 0z"/>
  <path paint-order="stroke fill markers" d="M263.158 268.421a5.263 5.263 0 1110.526 0 5.263 5.263 0 01-10.526 0z"/>
  <path paint-order="stroke fill markers" d="M273.684 268.421a5.263 5.263 0 1110.527 0 5.263 5.263 0 01-10.527 0zm10.626 0a5.165 5.165 0 1110.328 0 5.165 5.165 0 01-10.329 0zm11.307 0a4.383 4.383 0 118.766 0 4.383 4.383 0 01-8.766 0zm11.579 0a3.33 3.33 0 116.66 0 3.33 3.33 0 01-6.66 0zm11.244 0a2.612 2.612 0 115.225 0 2.612 2.612 0 01-5.224 0zm11.258 0a1.88 1.88 0 113.761 0 1.88 1.88 0 01-3.76 0zm11.086 0a1.32 1.32 0 112.642 0 1.32 1.32 0 01-2.642 0zm10.914 0a.933.933 0 111.867 0 .933.933 0 01-1.867 0zm10.782 0a.679.679 0 111.357 0 .679.679 0 01-1.358 0zM36.225 278.947a.617.617 0 111.234 0 .617.617 0 01-1.234 0zm10.277 0a.867.867 0 111.733 0 .867.867 0 01-1.733 0zm10.214 0a1.179 1.179 0 112.358 0 1.179 1.179 0 01-2.358 0zm10.013 0a1.692 1.692 0 113.385 0 1.692 1.692 0 01-3.385 0zm9.916 0a2.302 2.302 0 114.605 0 2.302 2.302 0 01-4.605 0zm9.813 0a3.016 3.016 0 116.031 0 3.016 3.016 0 01-6.031 0zm9.779 0a3.763 3.763 0 117.526 0 3.763 3.763 0 01-7.526 0zm9.543 0a4.747 4.747 0 119.493 0 4.747 4.747 0 01-9.494 0zm10.04 0a5.233 5.233 0 1110.466 0 5.233 5.233 0 01-10.467 0zm10.496 0a5.263 5.263 0 1110.526 0 5.263 5.263 0 01-10.526 0z"/>
  <path paint-order="stroke fill markers" d="M136.842 278.947a5.263 5.263 0 1110.526 0 5.263 5.263 0 01-10.526 0z"/>
  <path paint-order="stroke fill markers" d="M147.368 278.947a5.263 5.263 0 1110.527 0 5.263 5.263 0 01-10.527 0z"/>
  <path paint-order="stroke fill markers" d="M157.895 278.947a5.263 5.263 0 1110.526 0 5.263 5.263 0 01-10.526 0zm10.962 0a4.827 4.827 0 119.655 0 4.827 4.827 0 01-9.655 0zm12.216 0a3.137 3.137 0 116.275 0 3.137 3.137 0 01-6.275 0zm12.753 0a.91.91 0 111.821 0 .91.91 0 01-1.82 0zm10.836 0a.6.6 0 111.202 0 .6.6 0 01-1.202 0zm8.618 0a2.509 2.509 0 115.018 0 2.509 2.509 0 01-5.017 0zm8.45 0a4.587 4.587 0 119.172 0 4.587 4.587 0 01-9.173 0zm9.867 0a5.245 5.245 0 1110.49 0 5.245 5.245 0 01-10.49 0zm10.508 0a5.263 5.263 0 1110.527 0 5.263 5.263 0 01-10.527 0z"/>
  <path paint-order="stroke fill markers" d="M252.632 278.947a5.263 5.263 0 1110.526 0 5.263 5.263 0 01-10.526 0z"/>
  <path paint-order="stroke fill markers" d="M263.158 278.947a5.263 5.263 0 1110.526 0 5.263 5.263 0 01-10.526 0zm10.533 0a5.256 5.256 0 1110.513 0 5.256 5.256 0 01-10.513 0zm10.884 0a4.899 4.899 0 119.797 0 4.899 4.899 0 01-9.797 0zm11.393 0a4.032 4.032 0 118.064 0 4.032 4.032 0 01-8.064 0zm11.41 0a3.149 3.149 0 116.297 0 3.149 3.149 0 01-6.297 0zm11.18 0a2.495 2.495 0 114.99 0 2.495 2.495 0 01-4.99 0zm11.209 0a1.812 1.812 0 113.624 0 1.812 1.812 0 01-3.624 0zm11.045 0a1.293 1.293 0 112.587 0 1.293 1.293 0 01-2.587 0zm10.893 0a.926.926 0 111.853 0 .926.926 0 01-1.853 0zm10.775 0a.679.679 0 111.357 0 .679.679 0 01-1.358 0zM36.248 289.474a.594.594 0 111.188 0 .594.594 0 01-1.188 0zm10.302 0a.819.819 0 111.637 0 .819.819 0 01-1.637 0zm10.237 0a1.108 1.108 0 112.215 0 1.108 1.108 0 01-2.215 0zm10.103 0a1.532 1.532 0 113.063 0 1.532 1.532 0 01-3.064 0zm9.973 0a2.085 2.085 0 114.169 0 2.085 2.085 0 01-4.17 0zm9.897 0a2.713 2.713 0 115.427 0 2.713 2.713 0 01-5.426 0zm9.938 0a3.302 3.302 0 116.604 0 3.302 3.302 0 01-6.604 0zm9.762 0a4.066 4.066 0 118.132 0 4.066 4.066 0 01-8.132 0zm9.85 0a4.743 4.743 0 119.485 0 4.743 4.743 0 01-9.485 0zm10.134 0a5.135 5.135 0 1110.27 0 5.135 5.135 0 01-10.27 0zm10.444 0a5.217 5.217 0 1110.435 0 5.217 5.217 0 01-10.435 0zm10.568 0a5.176 5.176 0 1110.352 0 5.176 5.176 0 01-10.352 0zm10.829 0a4.873 4.873 0 119.746 0 4.873 4.873 0 01-9.746 0zm11.638 0a3.761 3.761 0 117.522 0 3.761 3.761 0 01-7.522 0zm11.957 0a2.33 2.33 0 114.66 0 2.33 2.33 0 01-4.66 0zm12.192 0a.665.665 0 111.33 0 .665.665 0 01-1.33 0zm19.878 0a1.84 1.84 0 113.679 0 1.84 1.84 0 01-3.679 0zm8.862 0a3.504 3.504 0 117.008 0 3.504 3.504 0 01-7.008 0zm9.372 0a4.658 4.658 0 119.316 0 4.658 4.658 0 01-9.316 0zm10.036 0a5.148 5.148 0 1110.297 0 5.148 5.148 0 01-10.297 0zm10.455 0a5.22 5.22 0 1110.44 0 5.22 5.22 0 01-10.44 0z"/>
  <path paint-order="stroke fill markers" d="M263.257 289.474a5.165 5.165 0 1110.329 0 5.165 5.165 0 01-10.33 0zm10.792 0a4.899 4.899 0 119.797 0 4.899 4.899 0 01-9.797 0zm11.205 0a4.22 4.22 0 118.44 0 4.22 4.22 0 01-8.44 0zm11.249 0a3.497 3.497 0 116.994 0 3.497 3.497 0 01-6.994 0zm11.196 0a2.828 2.828 0 115.655 0 2.828 2.828 0 01-5.655 0zm11.101 0a2.252 2.252 0 114.505 0 2.252 2.252 0 01-4.504 0zm11.142 0a1.637 1.637 0 113.274 0 1.637 1.637 0 01-3.274 0zm10.962 0a1.202 1.202 0 112.403 0 1.202 1.202 0 01-2.403 0zm10.858 0a.87.87 0 111.739 0 .87.87 0 01-1.739 0zm10.747 0a.649.649 0 111.298 0 .649.649 0 01-1.298 0zM36.292 300a.55.55 0 111.1 0 .55.55 0 01-1.1 0zm10.331 0a.745.745 0 111.49 0 .745.745 0 01-1.49 0zm10.279 0a.993.993 0 111.986 0 .993.993 0 01-1.986 0zm10.173 0a1.346 1.346 0 112.692 0 1.346 1.346 0 01-2.692 0zm10.065 0a1.807 1.807 0 113.615 0 1.807 1.807 0 01-3.615 0zm9.97 0a2.364 2.364 0 114.728 0 2.364 2.364 0 01-4.729 0zm10.028 0a2.862 2.862 0 115.724 0 2.862 2.862 0 01-5.724 0zm9.987 0a3.401 3.401 0 116.802 0 3.401 3.401 0 01-6.802 0zm10.029 0a3.899 3.899 0 117.797 0 3.899 3.899 0 01-7.797 0zm10.1 0a4.325 4.325 0 118.65 0 4.325 4.325 0 01-8.65 0zm10.356 0a4.495 4.495 0 118.99 0 4.495 4.495 0 01-8.99 0zm10.699 0a4.323 4.323 0 118.645 0 4.323 4.323 0 01-8.645 0zm11.058 0a3.79 3.79 0 117.582 0 3.79 3.79 0 01-7.582 0zm11.453 0a2.864 2.864 0 115.729 0 2.864 2.864 0 01-5.73 0zm11.684 0a1.706 1.706 0 113.413 0 1.706 1.706 0 01-3.413 0zm31.951 0a1.335 1.335 0 112.67 0 1.335 1.335 0 01-2.67 0zm9.203 0a2.658 2.658 0 115.316 0 2.658 2.658 0 01-5.316 0zm9.62 0a3.564 3.564 0 117.128 0 3.564 3.564 0 01-7.128 0zm9.845 0a4.245 4.245 0 118.49 0 4.245 4.245 0 01-8.49 0zm10.281 0a4.49 4.49 0 118.981 0 4.49 4.49 0 01-8.98 0zm10.635 0a4.383 4.383 0 118.765 0 4.383 4.383 0 01-8.765 0zm10.877 0a4.032 4.032 0 118.063 0 4.032 4.032 0 01-8.063 0zm11.06 0a3.497 3.497 0 116.995 0 3.497 3.497 0 01-6.995 0zm11.008 0a3.016 3.016 0 116.032 0 3.016 3.016 0 01-6.032 0zm11.082 0a2.46 2.46 0 114.921 0 2.46 2.46 0 01-4.921 0zm11.03 0a1.956 1.956 0 113.913 0 1.956 1.956 0 01-3.913 0zm11.057 0a1.426 1.426 0 112.852 0 1.426 1.426 0 01-2.852 0zm10.867 0a1.085 1.085 0 112.17 0 1.085 1.085 0 01-2.17 0zm10.818 0a.793.793 0 111.587 0 .793.793 0 01-1.587 0zm10.722 0a.599.599 0 111.196 0 .599.599 0 01-1.197 0zM46.708 310.526a.66.66 0 111.32 0 .66.66 0 01-1.32 0zm10.332 0a.855.855 0 111.71 0 .855.855 0 01-1.71 0zm10.241 0a1.14 1.14 0 112.28 0 1.14 1.14 0 01-2.28 0zm10.206 0a1.46 1.46 0 112.921 0 1.46 1.46 0 01-2.921 0zm10.067 0a1.92 1.92 0 113.84 0 1.92 1.92 0 01-3.84 0zm10.1 0a2.346 2.346 0 114.692 0 2.346 2.346 0 01-4.692 0zm10.106 0a2.766 2.766 0 115.532 0 2.766 2.766 0 01-5.531 0zm10.22 0a3.073 3.073 0 116.146 0 3.073 3.073 0 01-6.146 0zm10.297 0a3.302 3.302 0 116.604 0 3.302 3.302 0 01-6.604 0zm10.462 0a3.367 3.367 0 116.733 0 3.367 3.367 0 01-6.733 0zm10.701 0a3.192 3.192 0 116.384 0 3.192 3.192 0 01-6.385 0zm10.915 0a2.802 2.802 0 115.605 0 2.802 2.802 0 01-5.605 0zm11.272 0a2.057 2.057 0 114.114 0 2.057 2.057 0 01-4.114 0zm11.413 0a1.17 1.17 0 112.34 0 1.17 1.17 0 01-2.34 0zm31.825 0a.924.924 0 111.849 0 .924.924 0 01-1.849 0zm9.565 0a1.885 1.885 0 113.77 0 1.885 1.885 0 01-3.77 0zm9.775 0a2.637 2.637 0 115.274 0 2.637 2.637 0 01-5.274 0zm10.028 0a3.135 3.135 0 116.27 0 3.135 3.135 0 01-6.27 0zm10.318 0a3.344 3.344 0 116.687 0 3.344 3.344 0 01-6.687 0zm10.54 0a3.33 3.33 0 116.66 0 3.33 3.33 0 01-6.66 0zm10.708 0a3.149 3.149 0 116.297 0 3.149 3.149 0 01-6.297 0zm10.847 0a2.828 2.828 0 115.655 0 2.828 2.828 0 01-5.655 0zm10.894 0a2.46 2.46 0 114.92 0 2.46 2.46 0 01-4.92 0zm10.98 0a2.007 2.007 0 114.013 0 2.007 2.007 0 01-4.013 0zm10.955 0a1.578 1.578 0 113.155 0 1.578 1.578 0 01-3.155 0zm10.909 0a1.195 1.195 0 112.39 0 1.195 1.195 0 01-2.39 0zm10.79 0a.931.931 0 111.862 0 .931.931 0 01-1.862 0zm10.767 0a.69.69 0 111.38 0 .69.69 0 01-1.38 0zm10.687 0a.53.53 0 111.06 0 .53.53 0 01-1.06 0zM46.795 321.053a.573.573 0 111.147 0 .573.573 0 01-1.147 0zm10.373 0a.727.727 0 111.454 0 .727.727 0 01-1.454 0zm10.304 0a.95.95 0 111.898 0 .95.95 0 01-1.898 0zm10.29 0a1.186 1.186 0 112.371 0 1.186 1.186 0 01-2.371 0zm10.205 0a1.507 1.507 0 113.013 0 1.507 1.507 0 01-3.013 0zm10.175 0a1.858 1.858 0 113.716 0 1.858 1.858 0 01-3.716 0zm10.185 0a2.2 2.2 0 114.399 0 2.2 2.2 0 01-4.399 0zm10.29 0a2.436 2.436 0 114.871 0 2.436 2.436 0 01-4.87 0zm10.363 0a2.598 2.598 0 115.197 0 2.598 2.598 0 01-5.196 0zm10.513 0a2.612 2.612 0 115.224 0 2.612 2.612 0 01-5.224 0zm10.703 0a2.436 2.436 0 114.871 0 2.436 2.436 0 01-4.87 0zm10.891 0a2.07 2.07 0 114.142 0 2.07 2.07 0 01-4.142 0zm11.162 0a1.436 1.436 0 112.87 0 1.436 1.436 0 01-2.87 0zm11.122 0a.84.84 0 111.679 0 .84.84 0 01-1.679 0zm31.753 0a.665.665 0 111.33 0 .665.665 0 01-1.33 0zm9.876 0a1.316 1.316 0 112.632 0 1.316 1.316 0 01-2.633 0zm9.93 0a1.913 1.913 0 113.825 0 1.913 1.913 0 01-3.826 0zm10.063 0a2.376 2.376 0 114.751 0 2.376 2.376 0 01-4.751 0zm10.317 0a2.585 2.585 0 115.17 0 2.585 2.585 0 01-5.17 0zm10.499 0a2.612 2.612 0 115.224 0 2.612 2.612 0 01-5.224 0zm10.643 0a2.495 2.495 0 114.99 0 2.495 2.495 0 01-4.99 0zm10.77 0a2.252 2.252 0 114.504 0 2.252 2.252 0 01-4.504 0zm10.822 0a1.956 1.956 0 113.912 0 1.956 1.956 0 01-3.912 0zm10.905 0a1.578 1.578 0 113.155 0 1.578 1.578 0 01-3.155 0zm10.835 0a1.268 1.268 0 112.537 0 1.268 1.268 0 01-2.537 0zm10.797 0a.998.998 0 111.996 0 .998.998 0 01-1.996 0zm10.742 0a.782.782 0 111.564 0 .782.782 0 01-1.564 0zm10.71 0a.599.599 0 111.197 0 .599.599 0 01-1.197 0zM57.298 331.579a.596.596 0 111.193 0 .596.596 0 01-1.193 0zm10.357 0a.766.766 0 111.532 0 .766.766 0 01-1.532 0zm10.352 0a.94.94 0 111.88 0 .94.94 0 01-1.88 0zm10.306 0a1.16 1.16 0 112.321 0 1.16 1.16 0 01-2.32 0zm10.329 0a1.358 1.358 0 112.716 0 1.358 1.358 0 01-2.716 0zm10.293 0a1.592 1.592 0 113.183 0 1.592 1.592 0 01-3.183 0zm10.349 0a1.768 1.768 0 113.537 0 1.768 1.768 0 01-3.537 0zm10.416 0a1.878 1.878 0 113.757 0 1.878 1.878 0 01-3.756 0zm10.545 0a1.86 1.86 0 113.72 0 1.86 1.86 0 01-3.72 0zm10.708 0a1.679 1.679 0 113.357 0 1.679 1.679 0 01-3.357 0zm10.822 0a1.383 1.383 0 112.766 0 1.383 1.383 0 01-2.766 0zm10.925 0a.984.984 0 111.968 0 .984.984 0 01-1.968 0zm10.923 0a.587.587 0 111.175 0 .587.587 0 01-1.175 0zm41.794 0a.899.899 0 111.798 0 .899.899 0 01-1.798 0zm10.148 0a1.277 1.277 0 112.554 0 1.277 1.277 0 01-2.554 0zm10.182 0a1.621 1.621 0 113.243 0 1.621 1.621 0 01-3.243 0zm10.327 0a1.82 1.82 0 113.642 0 1.82 1.82 0 01-3.642 0zm10.466 0a1.88 1.88 0 113.762 0 1.88 1.88 0 01-3.761 0zm10.596 0a1.812 1.812 0 113.623 0 1.812 1.812 0 01-3.623 0zm10.7 0a1.637 1.637 0 113.275 0 1.637 1.637 0 01-3.275 0zm10.738 0a1.426 1.426 0 112.852 0 1.426 1.426 0 01-2.852 0zm10.757 0a1.195 1.195 0 112.39 0 1.195 1.195 0 01-2.39 0zm10.724 0a.998.998 0 111.995 0 .998.998 0 01-1.995 0zm10.733 0a.791.791 0 111.582 0 .791.791 0 01-1.582 0zm10.671 0a.647.647 0 111.293 0 .647.647 0 01-1.293 0zM67.804 342.105a.617.617 0 111.234 0 .617.617 0 01-1.234 0zm10.396 0a.748.748 0 111.495 0 .748.748 0 01-1.495 0zm10.377 0a.897.897 0 111.793 0 .897.897 0 01-1.793 0zm10.38 0a1.043 1.043 0 112.086 0 1.043 1.043 0 01-2.086 0zm10.391 0a1.179 1.179 0 112.357 0 1.179 1.179 0 01-2.357 0zm10.43 0a1.275 1.275 0 112.55 0 1.275 1.275 0 01-2.55 0zm10.482 0a1.319 1.319 0 112.638 0 1.319 1.319 0 01-2.638 0zm10.55 0a1.296 1.296 0 112.591 0 1.296 1.296 0 01-2.591 0zm10.654 0a1.167 1.167 0 112.335 0 1.167 1.167 0 01-2.335 0zm10.712 0a.982.982 0 111.963 0 .982.982 0 01-1.963 0zm10.806 0a.702.702 0 111.404 0 .702.702 0 01-1.404 0zm52.688 0a.647.647 0 111.293 0 .647.647 0 01-1.294 0zm10.266 0a.906.906 0 111.812 0 .906.906 0 01-1.812 0zm10.294 0a1.137 1.137 0 112.276 0 1.137 1.137 0 01-2.275 0zm10.394 0a1.27 1.27 0 112.541 0 1.27 1.27 0 01-2.54 0zm10.476 0a1.32 1.32 0 112.642 0 1.32 1.32 0 01-2.642 0zm10.554 0a1.293 1.293 0 112.587 0 1.293 1.293 0 01-2.587 0zm10.618 0a1.202 1.202 0 112.403 0 1.202 1.202 0 01-2.403 0zm10.643 0a1.085 1.085 0 112.17 0 1.085 1.085 0 01-2.17 0zm10.68 0a.931.931 0 111.862 0 .931.931 0 01-1.862 0zm10.675 0a.782.782 0 111.565 0 .782.782 0 01-1.564 0zm10.662 0a.647.647 0 111.294 0 .647.647 0 01-1.294 0zm10.644 0a.53.53 0 111.059 0 .53.53 0 01-1.06 0zM78.372 352.632a.576.576 0 111.151 0 .576.576 0 01-1.151 0zm10.428 0a.674.674 0 111.348 0 .674.674 0 01-1.349 0zm10.439 0a.761.761 0 111.522 0 .761.761 0 01-1.522 0zm10.431 0a.855.855 0 111.712 0 .855.855 0 01-1.711 0zm10.47 0a.913.913 0 111.825 0 .913.913 0 01-1.825 0zm10.506 0a.933.933 0 111.866 0 .933.933 0 01-1.866 0zm10.558 0a.901.901 0 111.803 0 .901.901 0 01-1.803 0zm10.62 0a.807.807 0 111.615 0 .807.807 0 01-1.615 0zm10.66 0a.674.674 0 111.348 0 .674.674 0 01-1.348 0zm73.732 0a.626.626 0 111.252 0 .626.626 0 01-1.252 0zm10.37 0a.782.782 0 111.564 0 .782.782 0 01-1.564 0zm10.43 0a.878.878 0 111.757 0 .878.878 0 01-1.757 0zm10.472 0a.933.933 0 111.866 0 .933.933 0 01-1.866 0zm10.532 0a.926.926 0 111.854 0 .926.926 0 01-1.853 0zm10.585 0a.87.87 0 111.738 0 .87.87 0 01-1.738 0zm10.602 0a.793.793 0 111.586 0 .793.793 0 01-1.586 0zm10.629 0a.69.69 0 111.38 0 .69.69 0 01-1.38 0zm10.618 0a.599.599 0 111.197 0 .599.599 0 01-1.197 0zM88.958 363.158a.516.516 0 111.032 0 .516.516 0 01-1.032 0zm10.462 0a.58.58 0 111.16 0 .58.58 0 01-1.16 0zm10.471 0a.635.635 0 111.27 0 .635.635 0 01-1.27 0zm10.487 0a.674.674 0 111.349 0 .674.674 0 01-1.349 0zm10.522 0a.679.679 0 111.358 0 .679.679 0 01-1.358 0zm10.552 0a.654.654 0 111.307 0 .654.654 0 01-1.307 0zm10.602 0a.578.578 0 111.155 0 .578.578 0 01-1.155 0zm94.75 0a.564.564 0 111.129 0 .564.564 0 01-1.129 0zm10.456 0a.635.635 0 111.27 0 .635.635 0 01-1.27 0zm10.482 0a.679.679 0 111.358 0 .679.679 0 01-1.358 0zm10.527 0a.679.679 0 111.357 0 .679.679 0 01-1.357 0zm10.556 0a.649.649 0 111.298 0 .649.649 0 01-1.298 0zm10.576 0a.599.599 0 111.198 0 .599.599 0 01-1.198 0zm10.596 0a.53.53 0 111.06 0 .53.53 0 01-1.06 0z"/>
</svg>
