<svg xmlns:svg="http://www.w3.org/2000/svg" xmlns="http://www.w3.org/2000/svg" viewBox="0 0 1200 250">
  <g transform="translate(0 -70.066)">
    <path fill="#fff" d="M0 0h1200v400H0z"/>
    <path paint-order="stroke fill markers" d="M188.67 118.919a.52.52 0 111.039 0 .52.52 0 01-1.04 0zm5.355 0a.57.57 0 111.14 0 .57.57 0 01-1.14 0zm5.387 0a.588.588 0 111.176 0 .588.588 0 01-1.176 0zm5.413 0a.58.58 0 111.16 0 .58.58 0 01-1.16 0zm5.451 0a.535.535 0 111.07 0 .535.535 0 01-1.07 0zm-27.076 5.405a.583.583 0 111.167 0 .583.583 0 01-1.166 0zm5.308 0a.681.681 0 111.362 0 .681.681 0 01-1.362 0zm5.326 0a.76.76 0 111.521 0 .76.76 0 01-1.52 0zm5.368 0a.798.798 0 111.596 0 .798.798 0 01-1.596 0zm5.424 0a.779.779 0 111.558 0 .779.779 0 01-1.558 0zm5.485 0a.7.7 0 111.4 0 .7.7 0 01-1.4 0zm5.504 0a.601.601 0 111.203 0 .601.601 0 01-1.203 0zM177.8 129.73a.578.578 0 111.156 0 .578.578 0 01-1.155 0zm5.192 0a.792.792 0 111.584 0 .792.792 0 01-1.584 0zm5.233 0a.964.964 0 111.929 0 .964.964 0 01-1.93 0zm5.283 0a1.086 1.086 0 112.173 0 1.086 1.086 0 01-2.173 0zm5.35 0a1.142 1.142 0 112.284 0 1.142 1.142 0 01-2.284 0zm5.432 0a1.116 1.116 0 112.23 0 1.116 1.116 0 01-2.23 0zm5.527 0a.994.994 0 111.987 0 .994.994 0 01-1.987 0zm5.57 0a.83.83 0 111.659 0 .83.83 0 01-1.66 0zm5.585 0a.65.65 0 111.299 0 .65.65 0 01-1.299 0zm-43.288 5.405a.694.694 0 111.389 0 .694.694 0 01-1.389 0zm5.09 0a1.01 1.01 0 112.02 0 1.01 1.01 0 01-2.02 0zm5.18 0a1.235 1.235 0 112.47 0 1.235 1.235 0 01-2.47 0zm5.255 0a1.386 1.386 0 112.771 0 1.386 1.386 0 01-2.771 0zm5.339 0a1.452 1.452 0 112.904 0 1.452 1.452 0 01-2.904 0zm5.44 0a1.418 1.418 0 112.835 0 1.418 1.418 0 01-2.835 0zm5.548 0a1.275 1.275 0 112.55 0 1.275 1.275 0 01-2.55 0zm5.618 0a1.063 1.063 0 112.125 0 1.063 1.063 0 01-2.125 0zm5.67 0a.798.798 0 111.595 0 .798.798 0 01-1.595 0zm5.694 0a.509.509 0 111.018 0 .509.509 0 01-1.018 0zm-54.046 5.405a.5.5 0 111.002 0 .5.5 0 01-1.002 0zm5.098 0a.808.808 0 111.617 0 .808.808 0 01-1.617 0zm4.987 0a1.227 1.227 0 112.454 0 1.227 1.227 0 01-2.454 0zm5.125 0a1.508 1.508 0 113.015 0 1.508 1.508 0 01-3.015 0zm5.211 0a1.701 1.701 0 113.403 0 1.701 1.701 0 01-3.403 0zm5.297 0a1.81 1.81 0 113.62 0 1.81 1.81 0 01-3.62 0zm5.464 0a1.751 1.751 0 113.503 0 1.751 1.751 0 01-3.503 0zm5.609 0a1.547 1.547 0 113.095 0 1.547 1.547 0 01-3.095 0zm5.66 0a1.293 1.293 0 112.586 0 1.293 1.293 0 01-2.586 0zm5.75 0a.949.949 0 111.897 0 .949.949 0 01-1.897 0zm5.806 0a.548.548 0 111.097 0 .548.548 0 01-1.097 0zm-48.999 5.406a.898.898 0 111.797 0 .898.898 0 01-1.797 0zm4.85 0a1.455 1.455 0 112.908 0 1.455 1.455 0 01-2.909 0zm5.01 0a1.85 1.85 0 113.699 0 1.85 1.85 0 01-3.7 0zm5.087 0a2.167 2.167 0 114.335 0 2.167 2.167 0 01-4.335 0zm5.236 0a2.337 2.337 0 114.674 0 2.337 2.337 0 01-4.674 0zm5.482 0a2.26 2.26 0 114.52 0 2.26 2.26 0 01-4.52 0zm5.747 0a1.918 1.918 0 113.837 0 1.918 1.918 0 01-3.837 0zm5.79 0a1.534 1.534 0 113.068 0 1.534 1.534 0 01-3.068 0zm5.845 0a1.094 1.094 0 112.189 0 1.094 1.094 0 01-2.189 0zm5.949 0a.551.551 0 111.102 0 .551.551 0 01-1.102 0zm-91.842 5.405a.5.5 0 111.002 0 .5.5 0 01-1.002 0zm5.382 0a.525.525 0 111.05 0 .525.525 0 01-1.05 0zm5.424 0a.506.506 0 111.012 0 .506.506 0 01-1.012 0zm32.043 0a.896.896 0 111.791 0 .896.896 0 01-1.791 0zm4.708 0a1.592 1.592 0 113.185 0 1.592 1.592 0 01-3.185 0zm4.852 0a2.146 2.146 0 114.292 0 2.146 2.146 0 01-4.292 0zm5.016 0a2.536 2.536 0 115.071 0 2.536 2.536 0 01-5.071 0zm5.286 0a2.655 2.655 0 115.31 0 2.655 2.655 0 01-5.31 0zm5.448 0a2.613 2.613 0 115.225 0 2.613 2.613 0 01-5.225 0zm5.766 0a2.252 2.252 0 114.504 0 2.252 2.252 0 01-4.504 0zm5.948 0a1.71 1.71 0 113.418 0 1.71 1.71 0 01-3.418 0zm5.981 0a1.134 1.134 0 112.268 0 1.134 1.134 0 01-2.268 0zm38.447 0a.525.525 0 111.05 0 .525.525 0 01-1.05 0zm5.424 0a.506.506 0 111.012 0 .506.506 0 01-1.012 0zm-140.591 5.406a.556.556 0 111.113 0 .556.556 0 01-1.113 0zm5.275 0a.686.686 0 111.373 0 .686.686 0 01-1.373 0zm5.297 0a.795.795 0 111.59 0 .795.795 0 01-1.59 0zm5.323 0a.877.877 0 111.755 0 .877.877 0 01-1.755 0zm5.374 0a.909.909 0 111.818 0 .909.909 0 01-1.818 0zm5.453 0a.861.861 0 111.723 0 .861.861 0 01-1.723 0zm5.594 0a.673.673 0 111.346 0 .673.673 0 01-1.346 0zm21.536 0a.758.758 0 111.516 0 .758.758 0 01-1.515 0zm4.5 0a1.664 1.664 0 113.328 0 1.664 1.664 0 01-3.328 0zm4.669 0a2.4 2.4 0 114.8 0 2.4 2.4 0 01-4.8 0z"/>
    <path paint-order="stroke fill markers" d="M191.895 156.757a2.7 2.7 0 115.4 0 2.7 2.7 0 01-5.4 0zm5.402 0a2.703 2.703 0 115.406 0 2.703 2.703 0 01-5.406 0z"/>
    <path paint-order="stroke fill markers" d="M202.703 156.757a2.703 2.703 0 115.405 0 2.703 2.703 0 01-5.405 0zm5.604 0a2.504 2.504 0 115.008 0 2.504 2.504 0 01-5.008 0zm6.078 0a1.83 1.83 0 113.662 0 1.83 1.83 0 01-3.662 0zm6.195 0a1.041 1.041 0 112.083 0 1.041 1.041 0 01-2.083 0zm22.033 0a.63.63 0 111.26 0 .63.63 0 01-1.26 0zm5.22 0a.816.816 0 111.632 0 .816.816 0 01-1.632 0zm5.315 0a.906.906 0 111.812 0 .906.906 0 01-1.812 0zm5.416 0a.896.896 0 111.791 0 .896.896 0 01-1.791 0zm5.49 0a.81.81 0 111.622 0 .81.81 0 01-1.622 0zm5.506 0a.71.71 0 111.42 0 .71.71 0 01-1.42 0zm5.514 0a.601.601 0 111.203 0 .601.601 0 01-1.203 0zm-156.744 5.405a.588.588 0 111.177 0 .588.588 0 01-1.176 0zm5.26 0a.734.734 0 111.468 0 .734.734 0 01-1.468 0zm5.186 0a.954.954 0 111.908 0 .954.954 0 01-1.908 0zm5.228 0a1.131 1.131 0 112.263 0 1.131 1.131 0 01-2.263 0zm5.259 0a1.277 1.277 0 112.555 0 1.277 1.277 0 01-2.555 0zm5.302 0a1.38 1.38 0 112.761 0 1.38 1.38 0 01-2.76 0zm5.401 0a1.386 1.386 0 112.771 0 1.386 1.386 0 01-2.771 0zm5.559 0a1.232 1.232 0 112.464 0 1.232 1.232 0 01-2.464 0zm5.694 0a.943.943 0 111.886 0 .943.943 0 01-1.886 0zm5.821 0a.527.527 0 111.055 0 .527.527 0 01-1.055 0zm15.196 0a1.547 1.547 0 113.095 0 1.547 1.547 0 01-3.095 0zm4.529 0a2.424 2.424 0 114.849 0 2.424 2.424 0 01-4.85 0zm5.127 0a2.703 2.703 0 115.405 0 2.703 2.703 0 01-5.405 0z"/>
    <path paint-order="stroke fill markers" d="M197.297 162.162a2.703 2.703 0 115.406 0 2.703 2.703 0 01-5.406 0z"/>
    <path paint-order="stroke fill markers" d="M202.703 162.162a2.703 2.703 0 115.405 0 2.703 2.703 0 01-5.405 0zm5.575 0a2.533 2.533 0 115.066 0 2.533 2.533 0 01-5.066 0zm6.182 0a1.757 1.757 0 113.513 0 1.757 1.757 0 01-3.514 0zm6.348 0a.813.813 0 111.627 0 .813.813 0 01-1.627 0zm16.166 0a.864.864 0 111.728 0 .864.864 0 01-1.728 0zm5.082 0a1.187 1.187 0 112.374 0 1.187 1.187 0 01-2.374 0zm5.236 0a1.357 1.357 0 112.713 0 1.357 1.357 0 01-2.713 0zm5.374 0a1.388 1.388 0 112.777 0 1.388 1.388 0 01-2.777 0zm5.474 0a1.32 1.32 0 112.639 0 1.32 1.32 0 01-2.64 0zm5.562 0a1.163 1.163 0 112.326 0 1.163 1.163 0 01-2.326 0zm5.575 0a.994.994 0 111.987 0 .994.994 0 01-1.987 0zm5.588 0a.81.81 0 111.621 0 .81.81 0 01-1.621 0zm5.601 0a.615.615 0 111.23 0 .615.615 0 01-1.23 0zm-167.504 5.406a.551.551 0 111.103 0 .551.551 0 01-1.103 0zm5.21 0a.747.747 0 111.494 0 .747.747 0 01-1.494 0zm5.183 0a.97.97 0 111.94 0 .97.97 0 01-1.94 0zm5.116 0a1.259 1.259 0 112.517 0 1.259 1.259 0 01-2.517 0zm5.18 0a1.484 1.484 0 112.968 0 1.484 1.484 0 01-2.968 0zm5.186 0a1.704 1.704 0 113.407 0 1.704 1.704 0 01-3.407 0zm5.177 0a1.932 1.932 0 113.864 0 1.932 1.932 0 01-3.864 0zm5.31 0a2.027 2.027 0 114.054 0 2.027 2.027 0 01-4.054 0zm5.461 0a1.971 1.971 0 113.943 0 1.971 1.971 0 01-3.943 0zm5.671 0a1.706 1.706 0 113.413 0 1.706 1.706 0 01-3.413 0zm5.884 0a1.227 1.227 0 112.454 0 1.227 1.227 0 01-2.453 0zm16.228 0a1.216 1.216 0 112.432 0 1.216 1.216 0 01-2.432 0zm4.308 0a2.313 2.313 0 114.626 0 2.313 2.313 0 01-4.626 0zm5.016 0a2.703 2.703 0 115.405 0 2.703 2.703 0 01-5.405 0z"/>
    <path paint-order="stroke fill markers" d="M197.297 167.568a2.703 2.703 0 115.406 0 2.703 2.703 0 01-5.406 0z"/>
    <path paint-order="stroke fill markers" d="M202.703 167.568a2.703 2.703 0 115.405 0 2.703 2.703 0 01-5.405 0zm5.665 0a2.443 2.443 0 114.886 0 2.443 2.443 0 01-4.886 0zm6.399 0a1.45 1.45 0 112.899 0 1.45 1.45 0 01-2.9 0zm16.683 0a.983.983 0 111.965 0 .983.983 0 01-1.966 0zm4.758 0a1.63 1.63 0 113.26 0 1.63 1.63 0 01-3.26 0zm5.096 0a1.94 1.94 0 113.879 0 1.94 1.94 0 01-3.88 0zm5.31 0a2.035 2.035 0 114.07 0 2.035 2.035 0 01-4.07 0zm5.482 0a1.958 1.958 0 113.916 0 1.958 1.958 0 01-3.916 0zm5.578 0a1.786 1.786 0 113.571 0 1.786 1.786 0 01-3.571 0zm5.665 0a1.526 1.526 0 113.052 0 1.526 1.526 0 01-3.052 0zm5.628 0a1.304 1.304 0 112.607 0 1.304 1.304 0 01-2.607 0zm5.643 0a1.065 1.065 0 112.13 0 1.065 1.065 0 01-2.13 0zm5.681 0a.79.79 0 111.58 0 .79.79 0 01-1.58 0zm5.586 0a.61.61 0 111.219 0 .61.61 0 01-1.219 0zm-178.286 5.405a.517.517 0 111.034 0 .517.517 0 01-1.034 0zm5.239 0a.684.684 0 111.367 0 .684.684 0 01-1.367 0zm5.114 0a.975.975 0 111.95 0 .975.975 0 01-1.95 0zm5.122 0a1.259 1.259 0 112.517 0 1.259 1.259 0 01-2.517 0zm5.055 0a1.608 1.608 0 113.217 0 1.608 1.608 0 01-3.217 0zm5.059 0a1.955 1.955 0 113.91 0 1.955 1.955 0 01-3.91 0zm5.037 0a2.324 2.324 0 114.647 0 2.324 2.324 0 01-4.647 0zm5.145 0a2.583 2.583 0 115.167 0 2.583 2.583 0 01-5.167 0zm5.321 0a2.668 2.668 0 115.337 0 2.668 2.668 0 01-5.337 0zm5.39 0a2.684 2.684 0 115.368 0 2.684 2.684 0 01-5.368 0zm5.495 0a2.594 2.594 0 115.188 0 2.594 2.594 0 01-5.188 0zm5.649 0a2.35 2.35 0 114.7 0 2.35 2.35 0 01-4.7 0zm6.206 0a1.55 1.55 0 113.1 0 1.55 1.55 0 01-3.1 0zm6.37 0a.586.586 0 111.171 0 .586.586 0 01-1.171 0zm5.384 0a.607.607 0 111.214 0 .607.607 0 01-1.214 0zm4.115 0a1.897 1.897 0 113.794 0 1.897 1.897 0 01-3.794 0zm4.629 0a2.674 2.674 0 115.347 0 2.674 2.674 0 01-5.347 0zm5.376 0a2.703 2.703 0 115.406 0 2.703 2.703 0 01-5.406 0z"/>
    <path paint-order="stroke fill markers" d="M202.703 172.973a2.703 2.703 0 115.405 0 2.703 2.703 0 01-5.405 0zm5.985 0a2.122 2.122 0 114.245 0 2.122 2.122 0 01-4.245 0zm6.725 0a.803.803 0 111.606 0 .803.803 0 01-1.606 0zm10.247 0a1.367 1.367 0 112.734 0 1.367 1.367 0 01-2.734 0zm4.616 0a2.157 2.157 0 114.313 0 2.157 2.157 0 01-4.313 0zm4.997 0a2.565 2.565 0 115.13 0 2.565 2.565 0 01-5.13 0zm5.297 0a2.674 2.674 0 115.347 0 2.674 2.674 0 01-5.347 0zm5.394 0a2.684 2.684 0 115.369 0 2.684 2.684 0 01-5.369 0zm5.488 0a2.602 2.602 0 115.204 0 2.602 2.602 0 01-5.204 0zm5.572 0a2.435 2.435 0 114.87 0 2.435 2.435 0 01-4.87 0zm5.809 0a2.032 2.032 0 114.064 0 2.032 2.032 0 01-4.064 0zm5.757 0a1.68 1.68 0 113.36 0 1.68 1.68 0 01-3.36 0zm5.716 0a1.37 1.37 0 112.74 0 1.37 1.37 0 01-2.74 0zm5.742 0a1.033 1.033 0 112.066 0 1.033 1.033 0 01-2.066 0zm5.67 0a.768.768 0 111.537 0 .768.768 0 01-1.537 0zm5.625 0a.548.548 0 111.097 0 .548.548 0 01-1.097 0zm-183.828 5.405a.594.594 0 111.187 0 .594.594 0 01-1.187 0zm5.19 0a.808.808 0 111.617 0 .808.808 0 01-1.617 0zm5.061 0a1.153 1.153 0 112.306 0 1.153 1.153 0 01-2.306 0zm5.085 0a1.473 1.473 0 112.947 0 1.473 1.473 0 01-2.947 0zm4.952 0a1.926 1.926 0 113.853 0 1.926 1.926 0 01-3.853 0zm4.95 0a2.382 2.382 0 114.764 0 2.382 2.382 0 01-4.764 0zm5.137 0a2.65 2.65 0 115.3 0 2.65 2.65 0 01-5.3 0zm5.353 0a2.703 2.703 0 115.406 0 2.703 2.703 0 01-5.406 0z"/>
    <path paint-order="stroke fill markers" d="M148.649 178.378a2.703 2.703 0 115.405 0 2.703 2.703 0 01-5.405 0z"/>
    <path paint-order="stroke fill markers" d="M154.054 178.378a2.703 2.703 0 115.405 0 2.703 2.703 0 01-5.405 0z"/>
    <path paint-order="stroke fill markers" d="M159.46 178.378a2.703 2.703 0 115.405 0 2.703 2.703 0 01-5.406 0z"/>
    <path paint-order="stroke fill markers" d="M164.865 178.378a2.703 2.703 0 115.405 0 2.703 2.703 0 01-5.405 0zm5.62 0a2.488 2.488 0 114.976 0 2.488 2.488 0 01-4.976 0zm6.243 0a1.65 1.65 0 113.301 0 1.65 1.65 0 01-3.301 0zm11.317 0a1.145 1.145 0 112.289 0 1.145 1.145 0 01-2.29 0zm4.146 0a2.403 2.403 0 114.807 0 2.403 2.403 0 01-4.807 0zm5.106 0a2.703 2.703 0 115.406 0 2.703 2.703 0 01-5.406 0zm5.472 0a2.636 2.636 0 115.273 0 2.636 2.636 0 01-5.273 0zm6.592 0a1.45 1.45 0 112.9 0 1.45 1.45 0 01-2.9 0zm11.084 0a1.176 1.176 0 112.353 0 1.176 1.176 0 01-2.353 0zm4.184 0a2.398 2.398 0 114.796 0 2.398 2.398 0 01-4.796 0zm5.106 0a2.697 2.697 0 115.395 0 2.697 2.697 0 01-5.395 0zm5.4 0a2.703 2.703 0 115.406 0 2.703 2.703 0 01-5.406 0z"/>
    <path paint-order="stroke fill markers" d="M240.54 178.378a2.703 2.703 0 115.406 0 2.703 2.703 0 01-5.405 0z"/>
    <path paint-order="stroke fill markers" d="M245.946 178.378a2.703 2.703 0 115.405 0 2.703 2.703 0 01-5.405 0z"/>
    <path paint-order="stroke fill markers" d="M251.351 178.378a2.703 2.703 0 115.406 0 2.703 2.703 0 01-5.406 0zm5.419 0a2.69 2.69 0 115.379 0 2.69 2.69 0 01-5.379 0zm5.65 0a2.446 2.446 0 114.89 0 2.446 2.446 0 01-4.89 0zm5.831 0a2.02 2.02 0 114.038 0 2.02 2.02 0 01-4.038 0zm5.816 0a1.608 1.608 0 113.217 0 1.608 1.608 0 01-3.217 0zm5.798 0a1.216 1.216 0 112.432 0 1.216 1.216 0 01-2.432 0zm5.71 0a.911.911 0 111.823 0 .911.911 0 01-1.823 0zm5.689 0a.628.628 0 111.256 0 .628.628 0 01-1.256 0zm-189.062 5.406a.5.5 0 111.001 0 .5.5 0 01-1.001 0zm5.228 0a.678.678 0 111.356 0 .678.678 0 01-1.356 0zm5.135 0a.949.949 0 111.897 0 .949.949 0 01-1.897 0zm5.015 0a1.338 1.338 0 112.677 0 1.338 1.338 0 01-2.676 0zm5.033 0a1.712 1.712 0 113.423 0 1.712 1.712 0 01-3.423 0zm4.817 0a2.3 2.3 0 114.6 0 2.3 2.3 0 01-4.6 0zm5.053 0a2.652 2.652 0 115.304 0 2.652 2.652 0 01-5.304 0zm5.355 0a2.703 2.703 0 115.405 0 2.703 2.703 0 01-5.405 0z"/>
    <path paint-order="stroke fill markers" d="M143.243 183.784a2.703 2.703 0 115.406 0 2.703 2.703 0 01-5.406 0z"/>
    <path paint-order="stroke fill markers" d="M148.649 183.784a2.703 2.703 0 115.405 0 2.703 2.703 0 01-5.405 0z"/>
    <path paint-order="stroke fill markers" d="M154.054 183.784a2.703 2.703 0 115.405 0 2.703 2.703 0 01-5.405 0z"/>
    <path paint-order="stroke fill markers" d="M159.46 183.784a2.703 2.703 0 115.405 0 2.703 2.703 0 01-5.406 0z"/>
    <path paint-order="stroke fill markers" d="M164.865 183.784a2.703 2.703 0 115.405 0 2.703 2.703 0 01-5.405 0z"/>
    <path paint-order="stroke fill markers" d="M170.27 183.784a2.703 2.703 0 115.406 0 2.703 2.703 0 01-5.406 0zm5.485 0a2.623 2.623 0 115.247 0 2.623 2.623 0 01-5.247 0zm6.505 0a1.524 1.524 0 113.047 0 1.524 1.524 0 01-3.047 0zm6.373 0a.556.556 0 111.113 0 .556.556 0 01-1.113 0zm4.443 0a1.518 1.518 0 113.037 0 1.518 1.518 0 01-3.037 0zm4.434 0a2.49 2.49 0 114.98 0 2.49 2.49 0 01-4.98 0zm5.89 0a2.006 2.006 0 114.011 0 2.006 2.006 0 01-4.011 0zm6.799 0a.612.612 0 111.224 0 .612.612 0 01-1.224 0zm4.751 0a1.267 1.267 0 112.533 0 1.267 1.267 0 01-2.533 0zm4.231 0a2.44 2.44 0 114.881 0 2.44 2.44 0 01-4.88 0zm5.143 0a2.703 2.703 0 115.406 0 2.703 2.703 0 01-5.406 0z"/>
    <path paint-order="stroke fill markers" d="M229.73 183.784a2.703 2.703 0 115.405 0 2.703 2.703 0 01-5.405 0z"/>
    <path paint-order="stroke fill markers" d="M235.135 183.784a2.703 2.703 0 115.406 0 2.703 2.703 0 01-5.406 0z"/>
    <path paint-order="stroke fill markers" d="M240.54 183.784a2.703 2.703 0 115.406 0 2.703 2.703 0 01-5.405 0z"/>
    <path paint-order="stroke fill markers" d="M245.946 183.784a2.703 2.703 0 115.405 0 2.703 2.703 0 01-5.405 0z"/>
    <path paint-order="stroke fill markers" d="M251.351 183.784a2.703 2.703 0 115.406 0 2.703 2.703 0 01-5.406 0z"/>
    <path paint-order="stroke fill markers" d="M256.757 183.784a2.703 2.703 0 115.405 0 2.703 2.703 0 01-5.405 0zm5.429 0a2.679 2.679 0 115.358 0 2.679 2.679 0 01-5.358 0zm5.686 0a2.398 2.398 0 114.796 0 2.398 2.398 0 01-4.796 0zm5.914 0a1.89 1.89 0 113.779 0 1.89 1.89 0 01-3.779 0zm5.883 0a1.412 1.412 0 112.824 0 1.412 1.412 0 01-2.824 0zm5.747 0a1.07 1.07 0 112.141 0 1.07 1.07 0 01-2.141 0zm5.747 0a.729.729 0 111.458 0 .729.729 0 01-1.458 0zm5.604 0a.53.53 0 111.06 0 .53.53 0 01-1.06 0zm-194.605 5.406a.54.54 0 111.081 0 .54.54 0 01-1.08 0zm5.204 0a.742.742 0 111.484 0 .742.742 0 01-1.484 0zm5.109 0a1.039 1.039 0 112.077 0 1.039 1.039 0 01-2.077 0zm4.987 0a1.457 1.457 0 112.914 0 1.457 1.457 0 01-2.914 0zm4.978 0a1.884 1.884 0 113.768 0 1.884 1.884 0 01-3.768 0zm4.786 0a2.504 2.504 0 115.008 0 2.504 2.504 0 01-5.008 0zm5.206 0a2.703 2.703 0 115.406 0 2.703 2.703 0 01-5.406 0z"/>
    <path paint-order="stroke fill markers" d="M137.838 189.19a2.703 2.703 0 115.405 0 2.703 2.703 0 01-5.405 0z"/>
    <path paint-order="stroke fill markers" d="M143.243 189.19a2.703 2.703 0 115.406 0 2.703 2.703 0 01-5.406 0z"/>
    <path paint-order="stroke fill markers" d="M148.649 189.19a2.703 2.703 0 115.405 0 2.703 2.703 0 01-5.405 0z"/>
    <path paint-order="stroke fill markers" d="M154.054 189.19a2.703 2.703 0 115.405 0 2.703 2.703 0 01-5.405 0z"/>
    <path paint-order="stroke fill markers" d="M159.46 189.19a2.703 2.703 0 115.405 0 2.703 2.703 0 01-5.406 0z"/>
    <path paint-order="stroke fill markers" d="M164.865 189.19a2.703 2.703 0 115.405 0 2.703 2.703 0 01-5.405 0z"/>
    <path paint-order="stroke fill markers" d="M170.27 189.19a2.703 2.703 0 115.406 0 2.703 2.703 0 01-5.406 0z"/>
    <path paint-order="stroke fill markers" d="M175.676 189.19a2.703 2.703 0 115.405 0 2.703 2.703 0 01-5.405 0zm5.636 0a2.472 2.472 0 114.944 0 2.472 2.472 0 01-4.944 0zm6.64 0a1.237 1.237 0 112.475 0 1.237 1.237 0 01-2.475 0zm5.985 0a.657.657 0 111.315 0 .657.657 0 01-1.315 0zm4.516 0a1.547 1.547 0 113.094 0 1.547 1.547 0 01-3.094 0zm5.999 0a.954.954 0 111.907 0 .954.954 0 01-1.907 0zm5.381 0a.978.978 0 111.956 0 .978.978 0 01-1.956 0zm4.02 0a2.364 2.364 0 114.727 0 2.364 2.364 0 01-4.727 0zm5.066 0a2.703 2.703 0 115.405 0 2.703 2.703 0 01-5.405 0z"/>
    <path paint-order="stroke fill markers" d="M224.324 189.19a2.703 2.703 0 115.406 0 2.703 2.703 0 01-5.406 0z"/>
    <path paint-order="stroke fill markers" d="M229.73 189.19a2.703 2.703 0 115.405 0 2.703 2.703 0 01-5.405 0z"/>
    <path paint-order="stroke fill markers" d="M235.135 189.19a2.703 2.703 0 115.406 0 2.703 2.703 0 01-5.406 0z"/>
    <path paint-order="stroke fill markers" d="M240.54 189.19a2.703 2.703 0 115.406 0 2.703 2.703 0 01-5.405 0z"/>
    <path paint-order="stroke fill markers" d="M245.946 189.19a2.703 2.703 0 115.405 0 2.703 2.703 0 01-5.405 0z"/>
    <path paint-order="stroke fill markers" d="M251.351 189.19a2.703 2.703 0 115.406 0 2.703 2.703 0 01-5.406 0z"/>
    <path paint-order="stroke fill markers" d="M256.757 189.19a2.703 2.703 0 115.405 0 2.703 2.703 0 01-5.405 0z"/>
    <path paint-order="stroke fill markers" d="M262.162 189.19a2.703 2.703 0 115.406 0 2.703 2.703 0 01-5.406 0zm5.541 0a2.568 2.568 0 115.135 0 2.568 2.568 0 01-5.135 0zm5.887 0a2.085 2.085 0 114.171 0 2.085 2.085 0 01-4.17 0zm5.957 0a1.534 1.534 0 113.068 0 1.534 1.534 0 01-3.068 0zm5.766 0a1.174 1.174 0 112.347 0 1.174 1.174 0 01-2.347 0zm5.784 0a.795.795 0 111.59 0 .795.795 0 01-1.59 0zm5.625 0a.575.575 0 111.15 0 .575.575 0 01-1.15 0zm-194.584 5.405a.564.564 0 111.13 0 .564.564 0 01-1.13 0zm5.186 0a.784.784 0 111.568 0 .784.784 0 01-1.568 0zm5.09 0a1.1 1.1 0 112.2 0 1.1 1.1 0 01-2.2 0zm4.971 0a1.534 1.534 0 113.068 0 1.534 1.534 0 01-3.068 0zm4.939 0a2 2 0 114 0 2 2 0 01-4 0zm4.825 0a2.58 2.58 0 115.162 0 2.58 2.58 0 01-5.162 0zm5.283 0a2.703 2.703 0 115.406 0 2.703 2.703 0 01-5.406 0z"/>
    <path paint-order="stroke fill markers" d="M137.838 194.595a2.703 2.703 0 115.405 0 2.703 2.703 0 01-5.405 0z"/>
    <path paint-order="stroke fill markers" d="M143.243 194.595a2.703 2.703 0 115.406 0 2.703 2.703 0 01-5.406 0z"/>
    <path paint-order="stroke fill markers" d="M148.649 194.595a2.703 2.703 0 115.405 0 2.703 2.703 0 01-5.405 0z"/>
    <path paint-order="stroke fill markers" d="M154.054 194.595a2.703 2.703 0 115.405 0 2.703 2.703 0 01-5.405 0z"/>
    <path paint-order="stroke fill markers" d="M159.46 194.595a2.703 2.703 0 115.405 0 2.703 2.703 0 01-5.406 0z"/>
    <path paint-order="stroke fill markers" d="M164.865 194.595a2.703 2.703 0 115.405 0 2.703 2.703 0 01-5.405 0z"/>
    <path paint-order="stroke fill markers" d="M170.27 194.595a2.703 2.703 0 115.406 0 2.703 2.703 0 01-5.406 0z"/>
    <path paint-order="stroke fill markers" d="M175.676 194.595a2.703 2.703 0 115.405 0 2.703 2.703 0 01-5.405 0z"/>
    <path paint-order="stroke fill markers" d="M181.081 194.595a2.703 2.703 0 115.405 0 2.703 2.703 0 01-5.405 0zm5.853 0a2.255 2.255 0 114.51 0 2.255 2.255 0 01-4.51 0zm6.892 0a.768.768 0 111.537 0 .768.768 0 01-1.537 0zm15.008 0a1.977 1.977 0 113.953 0 1.977 1.977 0 01-3.953 0zm4.68 0a2.703 2.703 0 115.405 0 2.703 2.703 0 01-5.405 0z"/>
    <path paint-order="stroke fill markers" d="M218.919 194.595a2.703 2.703 0 115.405 0 2.703 2.703 0 01-5.405 0z"/>
    <path paint-order="stroke fill markers" d="M224.324 194.595a2.703 2.703 0 115.406 0 2.703 2.703 0 01-5.406 0z"/>
    <path paint-order="stroke fill markers" d="M229.73 194.595a2.703 2.703 0 115.405 0 2.703 2.703 0 01-5.405 0z"/>
    <path paint-order="stroke fill markers" d="M235.135 194.595a2.703 2.703 0 115.406 0 2.703 2.703 0 01-5.406 0z"/>
    <path paint-order="stroke fill markers" d="M240.54 194.595a2.703 2.703 0 115.406 0 2.703 2.703 0 01-5.405 0z"/>
    <path paint-order="stroke fill markers" d="M245.946 194.595a2.703 2.703 0 115.405 0 2.703 2.703 0 01-5.405 0z"/>
    <path paint-order="stroke fill markers" d="M251.351 194.595a2.703 2.703 0 115.406 0 2.703 2.703 0 01-5.406 0z"/>
    <path paint-order="stroke fill markers" d="M256.757 194.595a2.703 2.703 0 115.405 0 2.703 2.703 0 01-5.405 0z"/>
    <path paint-order="stroke fill markers" d="M262.162 194.595a2.703 2.703 0 115.406 0 2.703 2.703 0 01-5.406 0zm5.469 0a2.64 2.64 0 115.278 0 2.64 2.64 0 01-5.278 0zm5.824 0a2.22 2.22 0 114.441 0 2.22 2.22 0 01-4.44 0zm6.012 0a1.614 1.614 0 113.228 0 1.614 1.614 0 01-3.228 0zm5.783 0a1.237 1.237 0 112.474 0 1.237 1.237 0 01-2.475 0zm5.805 0a.837.837 0 111.674 0 .837.837 0 01-1.674 0zm5.643 0a.599.599 0 111.198 0 .599.599 0 01-1.198 0zM102.125 200a.578.578 0 111.155 0 .578.578 0 01-1.155 0zm5.178 0a.806.806 0 111.61 0 .806.806 0 01-1.61 0zm5.082 0a1.129 1.129 0 112.257 0 1.129 1.129 0 01-2.257 0zm4.963 0a1.571 1.571 0 113.142 0 1.571 1.571 0 01-3.142 0zm4.918 0a2.059 2.059 0 114.117 0 2.059 2.059 0 01-4.117 0zm4.844 0a2.62 2.62 0 115.24 0 2.62 2.62 0 01-5.24 0zm5.322 0a2.703 2.703 0 115.406 0 2.703 2.703 0 01-5.406 0z"/>
    <path paint-order="stroke fill markers" d="M137.838 200a2.703 2.703 0 115.405 0 2.703 2.703 0 01-5.405 0z"/>
    <path paint-order="stroke fill markers" d="M143.243 200a2.703 2.703 0 115.406 0 2.703 2.703 0 01-5.406 0z"/>
    <path paint-order="stroke fill markers" d="M148.649 200a2.703 2.703 0 115.405 0 2.703 2.703 0 01-5.405 0z"/>
    <path paint-order="stroke fill markers" d="M154.054 200a2.703 2.703 0 115.405 0 2.703 2.703 0 01-5.405 0z"/>
    <path paint-order="stroke fill markers" d="M159.46 200a2.703 2.703 0 115.405 0 2.703 2.703 0 01-5.406 0z"/>
    <path paint-order="stroke fill markers" d="M164.865 200a2.703 2.703 0 115.405 0 2.703 2.703 0 01-5.405 0z"/>
    <path paint-order="stroke fill markers" d="M170.27 200a2.703 2.703 0 115.406 0 2.703 2.703 0 01-5.406 0z"/>
    <path paint-order="stroke fill markers" d="M175.676 200a2.703 2.703 0 115.405 0 2.703 2.703 0 01-5.405 0z"/>
    <path paint-order="stroke fill markers" d="M181.081 200a2.703 2.703 0 115.405 0 2.703 2.703 0 01-5.405 0z"/>
    <path paint-order="stroke fill markers" d="M186.49 200a2.7 2.7 0 115.4 0 2.7 2.7 0 01-5.4 0zm6.66 0a1.444 1.444 0 112.889 0 1.444 1.444 0 01-2.888 0zm11.524 0a.731.731 0 111.463 0 .731.731 0 01-1.463 0zm3.601 0a2.536 2.536 0 115.072 0 2.536 2.536 0 01-5.072 0zm5.239 0a2.703 2.703 0 115.405 0 2.703 2.703 0 01-5.405 0z"/>
    <path paint-order="stroke fill markers" d="M218.919 200a2.703 2.703 0 115.405 0 2.703 2.703 0 01-5.405 0z"/>
    <path paint-order="stroke fill markers" d="M224.324 200a2.703 2.703 0 115.406 0 2.703 2.703 0 01-5.406 0z"/>
    <path paint-order="stroke fill markers" d="M229.73 200a2.703 2.703 0 115.405 0 2.703 2.703 0 01-5.405 0z"/>
    <path paint-order="stroke fill markers" d="M235.135 200a2.703 2.703 0 115.406 0 2.703 2.703 0 01-5.406 0z"/>
    <path paint-order="stroke fill markers" d="M240.54 200a2.703 2.703 0 115.406 0 2.703 2.703 0 01-5.405 0z"/>
    <path paint-order="stroke fill markers" d="M245.946 200a2.703 2.703 0 115.405 0 2.703 2.703 0 01-5.405 0z"/>
    <path paint-order="stroke fill markers" d="M251.351 200a2.703 2.703 0 115.406 0 2.703 2.703 0 01-5.406 0z"/>
    <path paint-order="stroke fill markers" d="M256.757 200a2.703 2.703 0 115.405 0 2.703 2.703 0 01-5.405 0z"/>
    <path paint-order="stroke fill markers" d="M262.162 200a2.703 2.703 0 115.406 0 2.703 2.703 0 01-5.406 0zm5.432 0a2.676 2.676 0 115.352 0 2.676 2.676 0 01-5.352 0zm5.79 0a2.292 2.292 0 114.584 0 2.292 2.292 0 01-4.584 0zm6.044 0a1.653 1.653 0 113.306 0 1.653 1.653 0 01-3.306 0zm5.789 0a1.27 1.27 0 112.539 0 1.27 1.27 0 01-2.539 0zm5.816 0a.859.859 0 111.717 0 .859.859 0 01-1.717 0zm5.65 0a.615.615 0 111.229 0 .615.615 0 01-1.23 0zm-194.55 5.405a.57.57 0 111.14 0 .57.57 0 01-1.14 0zm5.18 0a.795.795 0 111.59 0 .795.795 0 01-1.59 0zm5.085 0a1.116 1.116 0 112.231 0 1.116 1.116 0 01-2.231 0zm4.968 0a1.553 1.553 0 113.106 0 1.553 1.553 0 01-3.106 0zm4.926 0a2.032 2.032 0 114.065 0 2.032 2.032 0 01-4.065 0zm4.833 0a2.605 2.605 0 115.21 0 2.605 2.605 0 01-5.21 0zm5.307 0a2.703 2.703 0 115.406 0 2.703 2.703 0 01-5.406 0z"/>
    <path paint-order="stroke fill markers" d="M137.838 205.405a2.703 2.703 0 115.405 0 2.703 2.703 0 01-5.405 0z"/>
    <path paint-order="stroke fill markers" d="M143.243 205.405a2.703 2.703 0 115.406 0 2.703 2.703 0 01-5.406 0z"/>
    <path paint-order="stroke fill markers" d="M148.649 205.405a2.703 2.703 0 115.405 0 2.703 2.703 0 01-5.405 0z"/>
    <path paint-order="stroke fill markers" d="M154.054 205.405a2.703 2.703 0 115.405 0 2.703 2.703 0 01-5.405 0z"/>
    <path paint-order="stroke fill markers" d="M159.46 205.405a2.703 2.703 0 115.405 0 2.703 2.703 0 01-5.406 0z"/>
    <path paint-order="stroke fill markers" d="M164.865 205.405a2.703 2.703 0 115.405 0 2.703 2.703 0 01-5.405 0z"/>
    <path paint-order="stroke fill markers" d="M170.27 205.405a2.703 2.703 0 115.406 0 2.703 2.703 0 01-5.406 0z"/>
    <path paint-order="stroke fill markers" d="M175.676 205.405a2.703 2.703 0 115.405 0 2.703 2.703 0 01-5.405 0z"/>
    <path paint-order="stroke fill markers" d="M181.081 205.405a2.703 2.703 0 115.405 0 2.703 2.703 0 01-5.405 0zm5.633 0a2.475 2.475 0 114.95 0 2.475 2.475 0 01-4.95 0zm6.845 0a1.036 1.036 0 112.072 0 1.036 1.036 0 01-2.072 0zm11.311 0a.535.535 0 111.07 0 .535.535 0 01-1.07 0zm3.683 0a2.258 2.258 0 114.515 0 2.258 2.258 0 01-4.515 0zm4.961 0a2.703 2.703 0 115.405 0 2.703 2.703 0 01-5.405 0z"/>
    <path paint-order="stroke fill markers" d="M218.919 205.405a2.703 2.703 0 115.405 0 2.703 2.703 0 01-5.405 0z"/>
    <path paint-order="stroke fill markers" d="M224.324 205.405a2.703 2.703 0 115.406 0 2.703 2.703 0 01-5.406 0z"/>
    <path paint-order="stroke fill markers" d="M229.73 205.405a2.703 2.703 0 115.405 0 2.703 2.703 0 01-5.405 0z"/>
    <path paint-order="stroke fill markers" d="M235.135 205.405a2.703 2.703 0 115.406 0 2.703 2.703 0 01-5.406 0z"/>
    <path paint-order="stroke fill markers" d="M240.54 205.405a2.703 2.703 0 115.406 0 2.703 2.703 0 01-5.405 0z"/>
    <path paint-order="stroke fill markers" d="M245.946 205.405a2.703 2.703 0 115.405 0 2.703 2.703 0 01-5.405 0z"/>
    <path paint-order="stroke fill markers" d="M251.351 205.405a2.703 2.703 0 115.406 0 2.703 2.703 0 01-5.406 0z"/>
    <path paint-order="stroke fill markers" d="M256.757 205.405a2.703 2.703 0 115.405 0 2.703 2.703 0 01-5.405 0z"/>
    <path paint-order="stroke fill markers" d="M262.162 205.405a2.703 2.703 0 115.406 0 2.703 2.703 0 01-5.406 0zm5.448 0a2.66 2.66 0 115.32 0 2.66 2.66 0 01-5.32 0zm5.805 0a2.26 2.26 0 114.52 0 2.26 2.26 0 01-4.52 0zm6.029 0a1.638 1.638 0 113.275 0 1.638 1.638 0 01-3.275 0zm5.789 0a1.253 1.253 0 112.507 0 1.253 1.253 0 01-2.507 0zm5.808 0a.85.85 0 111.701 0 .85.85 0 01-1.7 0zm5.649 0a.607.607 0 111.214 0 .607.607 0 01-1.213 0zm-194.53 5.405a.543.543 0 111.086 0 .543.543 0 01-1.086 0zm5.196 0a.753.753 0 111.505 0 .753.753 0 01-1.505 0zm5.103 0a1.055 1.055 0 112.11 0 1.055 1.055 0 01-2.11 0zm4.987 0a1.473 1.473 0 112.946 0 1.473 1.473 0 01-2.946 0zm4.971 0a1.908 1.908 0 113.815 0 1.908 1.908 0 01-3.815 0zm4.785 0a2.528 2.528 0 115.056 0 2.528 2.528 0 01-5.056 0zm5.23 0a2.703 2.703 0 115.406 0 2.703 2.703 0 01-5.406 0z"/>
    <path paint-order="stroke fill markers" d="M137.838 210.81a2.703 2.703 0 115.405 0 2.703 2.703 0 01-5.405 0z"/>
    <path paint-order="stroke fill markers" d="M143.243 210.81a2.703 2.703 0 115.406 0 2.703 2.703 0 01-5.406 0z"/>
    <path paint-order="stroke fill markers" d="M148.649 210.81a2.703 2.703 0 115.405 0 2.703 2.703 0 01-5.405 0z"/>
    <path paint-order="stroke fill markers" d="M154.054 210.81a2.703 2.703 0 115.405 0 2.703 2.703 0 01-5.405 0z"/>
    <path paint-order="stroke fill markers" d="M159.46 210.81a2.703 2.703 0 115.405 0 2.703 2.703 0 01-5.406 0z"/>
    <path paint-order="stroke fill markers" d="M164.865 210.81a2.703 2.703 0 115.405 0 2.703 2.703 0 01-5.405 0z"/>
    <path paint-order="stroke fill markers" d="M170.27 210.81a2.703 2.703 0 115.406 0 2.703 2.703 0 01-5.406 0z"/>
    <path paint-order="stroke fill markers" d="M175.676 210.81a2.703 2.703 0 115.405 0 2.703 2.703 0 01-5.405 0zm5.534 0a2.573 2.573 0 115.147 0 2.573 2.573 0 01-5.146 0zm6.548 0a1.43 1.43 0 112.862 0 1.43 1.43 0 01-2.862 0zm6.256 0a.58.58 0 111.16 0 .58.58 0 01-1.16 0zm4.696 0a1.29 1.29 0 112.58 0 1.29 1.29 0 01-2.58 0zm5.927 0a.768.768 0 111.537 0 .768.768 0 01-1.537 0zm5.003 0a1.171 1.171 0 112.342 0 1.171 1.171 0 01-2.342 0zm4.125 0a2.451 2.451 0 114.902 0 2.451 2.451 0 01-4.902 0zm5.154 0a2.703 2.703 0 115.405 0 2.703 2.703 0 01-5.405 0z"/>
    <path paint-order="stroke fill markers" d="M224.324 210.81a2.703 2.703 0 115.406 0 2.703 2.703 0 01-5.406 0z"/>
    <path paint-order="stroke fill markers" d="M229.73 210.81a2.703 2.703 0 115.405 0 2.703 2.703 0 01-5.405 0z"/>
    <path paint-order="stroke fill markers" d="M235.135 210.81a2.703 2.703 0 115.406 0 2.703 2.703 0 01-5.406 0z"/>
    <path paint-order="stroke fill markers" d="M240.54 210.81a2.703 2.703 0 115.406 0 2.703 2.703 0 01-5.405 0z"/>
    <path paint-order="stroke fill markers" d="M245.946 210.81a2.703 2.703 0 115.405 0 2.703 2.703 0 01-5.405 0z"/>
    <path paint-order="stroke fill markers" d="M251.351 210.81a2.703 2.703 0 115.406 0 2.703 2.703 0 01-5.406 0z"/>
    <path paint-order="stroke fill markers" d="M256.757 210.81a2.703 2.703 0 115.405 0 2.703 2.703 0 01-5.405 0z"/>
    <path paint-order="stroke fill markers" d="M262.162 210.81a2.703 2.703 0 115.406 0 2.703 2.703 0 01-5.406 0zm5.522 0a2.586 2.586 0 115.172 0 2.586 2.586 0 01-5.172 0zm5.875 0a2.117 2.117 0 114.234 0 2.117 2.117 0 01-4.234 0zm5.972 0a1.55 1.55 0 113.1 0 1.55 1.55 0 01-3.1 0zm5.769 0a1.187 1.187 0 112.374 0 1.187 1.187 0 01-2.375 0zm5.789 0a.803.803 0 111.606 0 .803.803 0 01-1.606 0zm5.628 0a.58.58 0 111.16 0 .58.58 0 01-1.16 0zm-194.52 5.406a.506.506 0 111.012 0 .506.506 0 01-1.012 0zm5.217 0a.694.694 0 111.388 0 .694.694 0 01-1.388 0zm5.132 0a.967.967 0 111.935 0 .967.967 0 01-1.935 0zm5.008 0a1.365 1.365 0 112.73 0 1.365 1.365 0 01-2.73 0zm5.024 0a1.746 1.746 0 113.492 0 1.746 1.746 0 01-3.492 0zm4.802 0a2.35 2.35 0 114.7 0 2.35 2.35 0 01-4.7 0zm5.087 0a2.668 2.668 0 115.336 0 2.668 2.668 0 01-5.336 0zm5.371 0a2.703 2.703 0 115.405 0 2.703 2.703 0 01-5.405 0z"/>
    <path paint-order="stroke fill markers" d="M143.243 216.216a2.703 2.703 0 115.406 0 2.703 2.703 0 01-5.406 0z"/>
    <path paint-order="stroke fill markers" d="M148.649 216.216a2.703 2.703 0 115.405 0 2.703 2.703 0 01-5.405 0z"/>
    <path paint-order="stroke fill markers" d="M154.054 216.216a2.703 2.703 0 115.405 0 2.703 2.703 0 01-5.405 0z"/>
    <path paint-order="stroke fill markers" d="M159.46 216.216a2.703 2.703 0 115.405 0 2.703 2.703 0 01-5.406 0z"/>
    <path paint-order="stroke fill markers" d="M164.865 216.216a2.703 2.703 0 115.405 0 2.703 2.703 0 01-5.405 0z"/>
    <path paint-order="stroke fill markers" d="M170.27 216.216a2.703 2.703 0 115.406 0 2.703 2.703 0 01-5.406 0zm5.414 0a2.695 2.695 0 115.39 0 2.695 2.695 0 01-5.39 0zm6.356 0a1.744 1.744 0 113.487 0 1.744 1.744 0 01-3.487 0zm6.561 0a.588.588 0 111.176 0 .588.588 0 01-1.176 0zm4.679 0a1.314 1.314 0 112.629 0 1.314 1.314 0 01-2.629 0zm4.356 0a2.364 2.364 0 114.728 0 2.364 2.364 0 01-4.728 0zm5.954 0a1.815 1.815 0 113.63 0 1.815 1.815 0 01-3.63 0zm6.651 0a.57.57 0 111.14 0 .57.57 0 01-1.14 0zm4.499 0a1.476 1.476 0 112.952 0 1.476 1.476 0 01-2.952 0zm4.356 0a2.525 2.525 0 115.05 0 2.525 2.525 0 01-5.05 0zm5.228 0a2.703 2.703 0 115.406 0 2.703 2.703 0 01-5.406 0z"/>
    <path paint-order="stroke fill markers" d="M229.73 216.216a2.703 2.703 0 115.405 0 2.703 2.703 0 01-5.405 0z"/>
    <path paint-order="stroke fill markers" d="M235.135 216.216a2.703 2.703 0 115.406 0 2.703 2.703 0 01-5.406 0z"/>
    <path paint-order="stroke fill markers" d="M240.54 216.216a2.703 2.703 0 115.406 0 2.703 2.703 0 01-5.405 0z"/>
    <path paint-order="stroke fill markers" d="M245.946 216.216a2.703 2.703 0 115.405 0 2.703 2.703 0 01-5.405 0z"/>
    <path paint-order="stroke fill markers" d="M251.351 216.216a2.703 2.703 0 115.406 0 2.703 2.703 0 01-5.406 0z"/>
    <path paint-order="stroke fill markers" d="M256.757 216.216a2.703 2.703 0 115.405 0 2.703 2.703 0 01-5.405 0zm5.416 0a2.692 2.692 0 115.384 0 2.692 2.692 0 01-5.384 0zm5.654 0a2.443 2.443 0 114.886 0 2.443 2.443 0 01-4.886 0zm5.917 0a1.932 1.932 0 113.863 0 1.932 1.932 0 01-3.863 0zm5.901 0a1.436 1.436 0 112.872 0 1.436 1.436 0 01-2.872 0zm5.747 0a1.094 1.094 0 112.189 0 1.094 1.094 0 01-2.189 0zm5.755 0a.745.745 0 111.49 0 .745.745 0 01-1.49 0zm5.607 0a.543.543 0 111.086 0 .543.543 0 01-1.086 0zm-189.269 5.406a.623.623 0 111.246 0 .623.623 0 01-1.246 0zm5.175 0a.853.853 0 111.707 0 .853.853 0 01-1.707 0zm5.04 0a1.219 1.219 0 112.438 0 1.219 1.219 0 01-2.438 0zm5.066 0a1.558 1.558 0 113.116 0 1.558 1.558 0 01-3.116 0zm4.904 0a2.059 2.059 0 114.119 0 2.059 2.059 0 01-4.118 0zm4.966 0a2.499 2.499 0 114.998 0 2.499 2.499 0 01-4.998 0zm5.21 0a2.695 2.695 0 115.39 0 2.695 2.695 0 01-5.39 0zm5.397 0a2.703 2.703 0 115.406 0 2.703 2.703 0 01-5.406 0z"/>
    <path paint-order="stroke fill markers" d="M148.649 221.622a2.703 2.703 0 115.405 0 2.703 2.703 0 01-5.405 0z"/>
    <path paint-order="stroke fill markers" d="M154.054 221.622a2.703 2.703 0 115.405 0 2.703 2.703 0 01-5.405 0z"/>
    <path paint-order="stroke fill markers" d="M159.46 221.622a2.703 2.703 0 115.405 0 2.703 2.703 0 01-5.406 0z"/>
    <path paint-order="stroke fill markers" d="M164.865 221.622a2.703 2.703 0 115.405 0 2.703 2.703 0 01-5.405 0zm5.453 0a2.655 2.655 0 115.31 0 2.655 2.655 0 01-5.31 0zm5.946 0a2.114 2.114 0 114.229 0 2.114 2.114 0 01-4.23 0zm6.846 0a.673.673 0 111.347 0 .673.673 0 01-1.346 0zm5.25 0a.83.83 0 111.659 0 .83.83 0 01-1.66 0zm4.033 0a2.202 2.202 0 114.403 0 2.202 2.202 0 01-4.403 0zm4.904 0a2.703 2.703 0 115.406 0 2.703 2.703 0 01-5.406 0zm5.581 0a2.528 2.528 0 115.055 0 2.528 2.528 0 01-5.055 0zm6.838 0a1.094 1.094 0 112.19 0 1.094 1.094 0 01-2.19 0zm5.968 0a.533.533 0 111.065 0 .533.533 0 01-1.065 0zm4.303 0a1.635 1.635 0 113.27 0 1.635 1.635 0 01-3.27 0zm4.449 0a2.591 2.591 0 115.182 0 2.591 2.591 0 01-5.182 0zm5.294 0a2.703 2.703 0 115.405 0 2.703 2.703 0 01-5.405 0z"/>
    <path paint-order="stroke fill markers" d="M235.135 221.622a2.703 2.703 0 115.406 0 2.703 2.703 0 01-5.406 0z"/>
    <path paint-order="stroke fill markers" d="M240.54 221.622a2.703 2.703 0 115.406 0 2.703 2.703 0 01-5.405 0z"/>
    <path paint-order="stroke fill markers" d="M245.946 221.622a2.703 2.703 0 115.405 0 2.703 2.703 0 01-5.405 0z"/>
    <path paint-order="stroke fill markers" d="M251.351 221.622a2.703 2.703 0 115.406 0 2.703 2.703 0 01-5.406 0z"/>
    <path paint-order="stroke fill markers" d="M256.757 221.622a2.703 2.703 0 115.405 0 2.703 2.703 0 01-5.405 0zm5.535 0a2.573 2.573 0 115.146 0 2.573 2.573 0 01-5.146 0zm5.824 0a2.154 2.154 0 114.308 0 2.154 2.154 0 01-4.308 0zm5.851 0a1.71 1.71 0 113.418 0 1.71 1.71 0 01-3.418 0zm5.826 0a1.288 1.288 0 112.576 0 1.288 1.288 0 01-2.576 0zm5.727 0a.967.967 0 111.934 0 .967.967 0 01-1.935 0zm5.71 0a.662.662 0 111.324 0 .662.662 0 01-1.325 0zm-183.654 5.405a.533.533 0 111.065 0 .533.533 0 01-1.065 0zm5.23 0a.707.707 0 111.415 0 .707.707 0 01-1.415 0zm5.101 0a1.012 1.012 0 112.024 0 1.012 1.012 0 01-2.024 0zm5.116 0a1.301 1.301 0 112.602 0 1.301 1.301 0 01-2.602 0zm5.029 0a1.677 1.677 0 113.355 0 1.677 1.677 0 01-3.355 0zm5.038 0a2.046 2.046 0 114.09 0 2.046 2.046 0 01-4.09 0zm5.04 0a2.411 2.411 0 114.822 0 2.411 2.411 0 01-4.823 0zm5.172 0a2.644 2.644 0 115.288 0 2.644 2.644 0 01-5.288 0zm5.347 0a2.703 2.703 0 115.405 0 2.703 2.703 0 01-5.405 0z"/>
    <path paint-order="stroke fill markers" d="M154.054 227.027a2.703 2.703 0 115.405 0 2.703 2.703 0 01-5.405 0zm5.435 0a2.674 2.674 0 115.347 0 2.674 2.674 0 01-5.347 0zm5.609 0a2.47 2.47 0 114.94 0 2.47 2.47 0 01-4.94 0zm6.102 0a1.773 1.773 0 113.546 0 1.773 1.773 0 01-3.546 0zm6.447 0a.731.731 0 111.463 0 .731.731 0 01-1.463 0zm5.604 0a.533.533 0 111.065 0 .533.533 0 01-1.065 0zm4.171 0a1.767 1.767 0 113.535 0 1.767 1.767 0 01-3.535 0zm4.531 0a2.642 2.642 0 115.283 0 2.642 2.642 0 01-5.283 0zm5.344 0a2.703 2.703 0 115.406 0 2.703 2.703 0 01-5.406 0z"/>
    <path paint-order="stroke fill markers" d="M202.703 227.027a2.703 2.703 0 115.405 0 2.703 2.703 0 01-5.405 0zm6.087 0a2.022 2.022 0 114.043 0 2.022 2.022 0 01-4.044 0zm6.737 0a.689.689 0 111.378 0 .689.689 0 01-1.378 0zm9.913 0a1.587 1.587 0 113.174 0 1.587 1.587 0 01-3.174 0zm4.663 0a2.33 2.33 0 114.659 0 2.33 2.33 0 01-4.659 0zm5.082 0a2.652 2.652 0 115.305 0 2.652 2.652 0 01-5.305 0zm5.355 0a2.703 2.703 0 115.406 0 2.703 2.703 0 01-5.405 0z"/>
    <path paint-order="stroke fill markers" d="M245.946 227.027a2.703 2.703 0 115.405 0 2.703 2.703 0 01-5.405 0zm5.445 0a2.663 2.663 0 115.326 0 2.663 2.663 0 01-5.326 0zm5.551 0a2.517 2.517 0 115.035 0 2.517 2.517 0 01-5.035 0zm5.803 0a2.12 2.12 0 114.24 0 2.12 2.12 0 01-4.24 0zm5.782 0a1.744 1.744 0 113.487 0 1.744 1.744 0 01-3.487 0zm5.723 0a1.426 1.426 0 112.851 0 1.426 1.426 0 01-2.85 0zm5.763 0a1.068 1.068 0 112.136 0 1.068 1.068 0 01-2.136 0zm5.676 0a.798.798 0 111.595 0 .798.798 0 01-1.595 0zm5.644 0a.56.56 0 111.118 0 .56.56 0 01-1.118 0zm-178.413 5.405a.594.594 0 111.187 0 .594.594 0 01-1.187 0zm5.175 0a.824.824 0 111.648 0 .824.824 0 01-1.648 0zm5.159 0a1.07 1.07 0 112.14 0 1.07 1.07 0 01-2.14 0zm5.103 0a1.373 1.373 0 112.745 0 1.373 1.373 0 01-2.745 0zm5.149 0a1.63 1.63 0 113.259 0 1.63 1.63 0 01-3.26 0zm5.137 0a1.897 1.897 0 113.795 0 1.897 1.897 0 01-3.795 0zm5.12 0a2.183 2.183 0 114.366 0 2.183 2.183 0 01-4.366 0zm5.273 0a2.316 2.316 0 114.631 0 2.316 2.316 0 01-4.631 0zm5.426 0a2.295 2.295 0 114.59 0 2.295 2.295 0 01-4.59 0zm5.623 0a2.077 2.077 0 114.155 0 2.077 2.077 0 01-4.155 0zm5.875 0a1.608 1.608 0 113.216 0 1.608 1.608 0 01-3.217 0zm6.276 0a.737.737 0 111.474 0 .737.737 0 01-1.474 0zm10.522 0a1.025 1.025 0 112.051 0 1.025 1.025 0 01-2.05 0zm4.208 0a2.223 2.223 0 114.446 0 2.223 2.223 0 01-4.446 0zm4.926 0a2.703 2.703 0 115.405 0 2.703 2.703 0 01-5.405 0z"/>
    <path paint-order="stroke fill markers" d="M197.297 232.432a2.703 2.703 0 115.406 0 2.703 2.703 0 01-5.406 0z"/>
    <path paint-order="stroke fill markers" d="M202.703 232.432a2.703 2.703 0 115.405 0 2.703 2.703 0 01-5.405 0zm5.739 0a2.369 2.369 0 114.738 0 2.369 2.369 0 01-4.738 0zm6.513 0a1.261 1.261 0 112.522 0 1.261 1.261 0 01-2.522 0zm11.471 0a.601.601 0 111.203 0 .601.601 0 01-1.203 0zm4.666 0a1.34 1.34 0 112.681 0 1.34 1.34 0 01-2.681 0zm4.732 0a2.014 2.014 0 114.028 0 2.014 2.014 0 01-4.028 0zm5.151 0a2.268 2.268 0 114.536 0 2.268 2.268 0 01-4.536 0zm5.339 0a2.334 2.334 0 114.669 0 2.334 2.334 0 01-4.669 0zm5.528 0a2.213 2.213 0 114.425 0 2.213 2.213 0 01-4.425 0zm5.614 0a2.003 2.003 0 114.007 0 2.003 2.003 0 01-4.007 0zm5.724 0a1.685 1.685 0 113.37 0 1.685 1.685 0 01-3.37 0zm5.66 0a1.43 1.43 0 112.861 0 1.43 1.43 0 01-2.862 0zm5.667 0a1.169 1.169 0 112.337 0 1.169 1.169 0 01-2.337 0zm5.703 0a.872.872 0 111.743 0 .872.872 0 01-1.744 0zm5.614 0a.662.662 0 111.325 0 .662.662 0 01-1.325 0zm-167.522 5.406a.617.617 0 111.234 0 .617.617 0 01-1.234 0zm5.238 0a.784.784 0 111.569 0 .784.784 0 01-1.569 0zm5.175 0a1.015 1.015 0 112.03 0 1.015 1.015 0 01-2.03 0zm5.22 0a1.2 1.2 0 112.4 0 1.2 1.2 0 01-2.4 0zm5.246 0a1.36 1.36 0 112.719 0 1.36 1.36 0 01-2.719 0zm5.284 0a1.481 1.481 0 112.962 0 1.481 1.481 0 01-2.962 0zm5.392 0a1.494 1.494 0 112.989 0 1.494 1.494 0 01-2.99 0zm5.535 0a1.365 1.365 0 112.73 0 1.365 1.365 0 01-2.73 0zm5.694 0a1.076 1.076 0 112.152 0 1.076 1.076 0 01-2.152 0zm5.838 0a.644.644 0 111.287 0 .644.644 0 01-1.287 0zm15.36 0a1.5 1.5 0 113 0 1.5 1.5 0 01-3 0zm4.491 0a2.414 2.414 0 114.828 0 2.414 2.414 0 01-4.828 0zm5.117 0a2.703 2.703 0 115.405 0 2.703 2.703 0 01-5.405 0z"/>
    <path paint-order="stroke fill markers" d="M197.297 237.838a2.703 2.703 0 115.406 0 2.703 2.703 0 01-5.406 0z"/>
    <path paint-order="stroke fill markers" d="M202.703 237.838a2.703 2.703 0 115.405 0 2.703 2.703 0 01-5.405 0zm5.583 0a2.525 2.525 0 115.05 0 2.525 2.525 0 01-5.05 0zm6.214 0a1.717 1.717 0 113.433 0 1.717 1.717 0 01-3.434 0zm6.372 0a.75.75 0 111.5 0 .75.75 0 01-1.5 0zm15.962 0a1.004 1.004 0 112.008 0 1.004 1.004 0 01-2.008 0zm5.09 0a1.32 1.32 0 112.639 0 1.32 1.32 0 01-2.64 0zm5.251 0a1.473 1.473 0 112.947 0 1.473 1.473 0 01-2.947 0zm5.39 0a1.49 1.49 0 112.978 0 1.49 1.49 0 01-2.978 0zm5.485 0a1.41 1.41 0 112.82 0 1.41 1.41 0 01-2.82 0zm5.58 0a1.235 1.235 0 112.47 0 1.235 1.235 0 01-2.47 0zm5.586 0a1.055 1.055 0 112.109 0 1.055 1.055 0 01-2.11 0zm5.606 0a.853.853 0 111.707 0 .853.853 0 01-1.707 0zm5.608 0a.652.652 0 111.303 0 .652.652 0 01-1.304 0zm5.542 0a.514.514 0 111.029 0 .514.514 0 01-1.029 0zm-162.239 5.405a.59.59 0 111.182 0 .59.59 0 01-1.182 0zm5.263 0a.734.734 0 111.468 0 .734.734 0 01-1.468 0zm5.286 0a.853.853 0 111.706 0 .853.853 0 01-1.706 0zm5.305 0a.954.954 0 111.907 0 .954.954 0 01-1.907 0zm5.357 0a1.002 1.002 0 112.004 0 1.002 1.002 0 01-2.004 0zm5.451 0a.957.957 0 111.913 0 .957.957 0 01-1.913 0zm5.585 0a.776.776 0 111.553 0 .776.776 0 01-1.553 0zm5.67 0a.511.511 0 111.024 0 .511.511 0 01-1.023 0zm16.008 0a.72.72 0 111.441 0 .72.72 0 01-1.441 0zm4.47 0a1.656 1.656 0 113.312 0 1.656 1.656 0 01-3.312 0zm4.642 0a2.42 2.42 0 114.838 0 2.42 2.42 0 01-4.838 0zm5.122 0a2.703 2.703 0 115.405 0 2.703 2.703 0 01-5.405 0z"/>
    <path paint-order="stroke fill markers" d="M197.297 243.243a2.703 2.703 0 115.406 0 2.703 2.703 0 01-5.406 0z"/>
    <path paint-order="stroke fill markers" d="M202.703 243.243a2.703 2.703 0 115.405 0 2.703 2.703 0 01-5.405 0zm5.587 0a2.52 2.52 0 115.04 0 2.52 2.52 0 01-5.04 0zm6.1 0a1.826 1.826 0 113.652 0 1.826 1.826 0 01-3.651 0zm6.225 0a1.007 1.007 0 112.014 0 1.007 1.007 0 01-2.014 0zm21.9 0a.729.729 0 111.457 0 .729.729 0 01-1.457 0zm5.219 0a.914.914 0 111.829 0 .914.914 0 01-1.828 0zm5.318 0a1.002 1.002 0 112.004 0 1.002 1.002 0 01-2.004 0zm5.428 0a.98.98 0 111.96 0 .98.98 0 01-1.96 0zm5.508 0a.877.877 0 111.754 0 .877.877 0 01-1.754 0zm5.522 0a.76.76 0 111.52 0 .76.76 0 01-1.52 0zm5.527 0a.639.639 0 111.277 0 .639.639 0 01-1.277 0zm5.541 0a.503.503 0 111.007 0 .503.503 0 01-1.007 0zm-151.376 5.406a.527.527 0 111.055 0 .527.527 0 01-1.055 0zm5.348 0a.586.586 0 111.17 0 .586.586 0 01-1.17 0zm5.37 0a.62.62 0 111.24 0 .62.62 0 01-1.24 0zm5.411 0a.615.615 0 111.23 0 .615.615 0 01-1.23 0zm5.475 0a.546.546 0 111.091 0 .546.546 0 01-1.091 0zm26.698 0a.874.874 0 111.749 0 .874.874 0 01-1.749 0zm4.648 0a1.632 1.632 0 113.264 0 1.632 1.632 0 01-3.264 0zm4.782 0a2.255 2.255 0 114.51 0 2.255 2.255 0 01-4.51 0zm5.024 0a2.636 2.636 0 115.273 0 2.636 2.636 0 01-5.273 0zm5.339 0a2.703 2.703 0 115.406 0 2.703 2.703 0 01-5.406 0z"/>
    <path paint-order="stroke fill markers" d="M202.73 248.649a2.676 2.676 0 115.352 0 2.676 2.676 0 01-5.353 0zm5.715 0a2.366 2.366 0 114.732 0 2.366 2.366 0 01-4.732 0zm6.004 0a1.767 1.767 0 113.535 0 1.767 1.767 0 01-3.535 0zm6.051 0a1.12 1.12 0 112.242 0 1.12 1.12 0 01-2.241 0zm27.648 0a.5.5 0 111.001 0 .5.5 0 01-1.001 0zm5.302 0a.604.604 0 111.208 0 .604.604 0 01-1.208 0zm5.384 0a.625.625 0 111.25 0 .625.625 0 01-1.25 0zm5.437 0a.594.594 0 111.187 0 .594.594 0 01-1.187 0zm5.461 0a.538.538 0 111.076 0 .538.538 0 01-1.076 0zm-92.257 5.405a.904.904 0 111.807 0 .904.904 0 01-1.807 0zm4.828 0a1.481 1.481 0 112.962 0 1.481 1.481 0 01-2.962 0zm4.976 0a1.91 1.91 0 113.82 0 1.91 1.91 0 01-3.82 0zm5.058 0a2.258 2.258 0 114.515 0 2.258 2.258 0 01-4.515 0zm5.231 0a2.432 2.432 0 114.864 0 2.432 2.432 0 01-4.864 0zm5.49 0a2.348 2.348 0 114.695 0 2.348 2.348 0 01-4.695 0zm5.762 0a1.99 1.99 0 113.98 0 1.99 1.99 0 01-3.98 0zm5.822 0a1.574 1.574 0 113.148 0 1.574 1.574 0 01-3.148 0zm5.872 0a1.108 1.108 0 112.215 0 1.108 1.108 0 01-2.215 0zm5.97 0a.543.543 0 111.086 0 .543.543 0 01-1.086 0zm-54.014 5.406a.503.503 0 111.006 0 .503.503 0 01-1.006 0zm5.06 0a.848.848 0 111.696 0 .848.848 0 01-1.696 0zm4.947 0a1.306 1.306 0 112.613 0 1.306 1.306 0 01-2.613 0zm5.099 0a1.614 1.614 0 113.227 0 1.614 1.614 0 01-3.227 0zm5.174 0a1.844 1.844 0 113.689 0 1.844 1.844 0 01-3.689 0zm5.279 0a1.971 1.971 0 113.942 0 1.971 1.971 0 01-3.942 0zm5.463 0a1.913 1.913 0 113.827 0 1.913 1.913 0 01-3.827 0zm5.649 0a1.67 1.67 0 113.34 0 1.67 1.67 0 01-3.34 0zm5.703 0a1.373 1.373 0 112.745 0 1.373 1.373 0 01-2.745 0zm5.773 0a1.004 1.004 0 112.009 0 1.004 1.004 0 01-2.009 0zm5.851 0a.56.56 0 111.118 0 .56.56 0 01-1.118 0zm-48.808 5.405a.718.718 0 111.436 0 .718.718 0 01-1.436 0zm5.07 0a1.055 1.055 0 112.108 0 1.055 1.055 0 01-2.109 0zm5.169 0a1.29 1.29 0 112.58 0 1.29 1.29 0 01-2.58 0zm5.249 0a1.447 1.447 0 112.893 0 1.447 1.447 0 01-2.893 0zm5.332 0a1.52 1.52 0 113.04 0 1.52 1.52 0 01-3.04 0zm5.442 0a1.484 1.484 0 112.967 0 1.484 1.484 0 01-2.967 0zm5.564 0a1.325 1.325 0 112.65 0 1.325 1.325 0 01-2.65 0zm5.62 0a1.11 1.11 0 112.22 0 1.11 1.11 0 01-2.22 0zm5.686 0a.83.83 0 111.659 0 .83.83 0 01-1.659 0zm5.716 0a.52.52 0 111.038 0 .52.52 0 01-1.038 0zm-48.728 5.405a.599.599 0 111.197 0 .599.599 0 01-1.197 0zm5.17 0a.835.835 0 111.668 0 .835.835 0 01-1.669 0zm5.222 0a1.017 1.017 0 112.035 0 1.017 1.017 0 01-2.035 0zm5.278 0a1.145 1.145 0 112.29 0 1.145 1.145 0 01-2.29 0zm5.344 0a1.206 1.206 0 112.412 0 1.206 1.206 0 01-2.412 0zm5.438 0a1.174 1.174 0 112.347 0 1.174 1.174 0 01-2.347 0zm5.527 0a1.052 1.052 0 112.104 0 1.052 1.052 0 01-2.104 0zm5.583 0a.874.874 0 111.749 0 .874.874 0 01-1.75 0zm5.601 0a.678.678 0 111.357 0 .678.678 0 01-1.357 0zm-37.806 5.406a.647.647 0 111.293 0 .647.647 0 01-1.293 0zm5.286 0a.766.766 0 111.532 0 .766.766 0 01-1.532 0zm5.313 0a.859.859 0 111.717 0 .859.859 0 01-1.717 0zm5.36 0a.904.904 0 111.808 0 .904.904 0 01-1.808 0zm5.43 0a.88.88 0 111.76 0 .88.88 0 01-1.76 0zm5.498 0a.787.787 0 111.574 0 .787.787 0 01-1.574 0zm5.516 0a.676.676 0 111.352 0 .676.676 0 01-1.351 0zm5.538 0a.543.543 0 111.087 0 .543.543 0 01-1.087 0zm-32.438 5.405a.548.548 0 111.098 0 .548.548 0 01-1.097 0zm5.356 0a.599.599 0 111.197 0 .599.599 0 01-1.197 0zm5.379 0a.625.625 0 111.25 0 .625.625 0 01-1.25 0zm5.418 0a.612.612 0 111.224 0 .612.612 0 01-1.224 0zm5.459 0a.56.56 0 111.118 0 .56.56 0 01-1.118 0z"/>
    <svg width="795" height="59" viewBox="0 0 784.852 59.449" x="308" y="159">
      <path d="M19.998 11.019v45.063h-7.925V11.019H0V3.571h32.037v7.448zM48.307 3.57l13.673 35.1L76.263 1.02l13.672 37.649L104.457 3.57h8.604L89.595 59.415 76.093 22.208l-14.08 37.241-22.31-55.878zm82.691 0v52.512h-7.924V3.571zm16.1 52.512V0l38.295 40.063V3.572h7.924v55.707l-38.295-39.96v36.764zm95.186-21.325v21.325h-7.924V3.571h8.979a40.487 40.487 0 019.964.918 13.36 13.36 0 015.986 3.469 14.946 14.946 0 014.523 11.155q0 7.211-4.83 11.427-4.83 4.217-13.025 4.217zm0-7.345h2.959q10.916 0 10.917-8.4 0-8.129-11.257-8.129h-2.62zm60.176 15.916h-22.48l-5.85 12.754h-8.536L291.578.272l25.065 55.81h-8.672zm-3.23-7.448l-7.789-17.855-8.162 17.855zm45.246-2.177l16.256 22.379h-9.692l-14.999-21.495h-1.428v21.495h-7.924V3.571h9.284q10.408 0 15.032 3.91a14.368 14.368 0 015.102 11.496 14.916 14.916 0 01-3.197 9.59 14.245 14.245 0 01-8.434 5.136zm-9.863-6.02h2.516q11.258 0 11.258-8.604 0-8.06-10.951-8.06h-2.823zm68.34 15.645h-22.48l-5.85 12.754h-8.537L392.07.272l25.064 55.81h-8.671zm-3.232-7.448l-7.788-17.855-8.162 17.855zm27.459 20.202V3.571h11.018a40.113 40.113 0 0112.516 1.564 23.425 23.425 0 018.945 5.204q8.128 7.414 8.128 19.487 0 12.108-8.468 19.59a24.724 24.724 0 01-8.91 5.203q-4.354 1.464-12.346 1.463zm7.924-7.448h3.571a29.8 29.8 0 008.876-1.122 18.024 18.024 0 0012.244-17.686 18.245 18.245 0 00-5.782-14.012q-5.203-4.795-15.338-4.795h-3.571zm43.513-19.046a25.714 25.714 0 018.129-19.045 26.75 26.75 0 0119.453-7.958 26.255 26.255 0 0119.249 8.026 26.238 26.238 0 018.06 19.283 25.819 25.819 0 01-8.095 19.215 27.745 27.745 0 01-37.886.885q-8.911-7.787-8.91-20.406zm7.992.102a18.981 18.981 0 005.85 14.319 19.375 19.375 0 0027.378-.103 19.34 19.34 0 005.68-14.08 19.242 19.242 0 00-5.612-14.08 19.584 19.584 0 00-27.65 0 18.945 18.945 0 00-5.646 13.944zm69.664-1.054L541.82 3.57h9.012l10.033 17.787L571.408 3.57h9.08l-15.134 25.065 15.883 27.446h-8.877l-11.63-20.1-11.973 20.1h-8.978zM624.694 3.57v45.064h15.44v7.448H616.77V3.571zm60.211 39.758h-22.48l-5.85 12.754h-8.537L674.022.272l25.064 55.81h-8.671zm-3.232-7.448l-7.788-17.855-8.162 17.855zm27.46 20.202V3.571h7.89a34.53 34.53 0 018.4.816 12.62 12.62 0 015.34 2.755 14.318 14.318 0 013.503 5 15.138 15.138 0 011.326 6.12 12.405 12.405 0 01-4.319 9.558 12.694 12.694 0 016.599 4.999 14.107 14.107 0 012.448 8.231 13.984 13.984 0 01-4.354 10.406 14.284 14.284 0 01-5.883 3.64 34.232 34.232 0 01-8.945.987zm7.924-29.963h2.483q4.42 0 6.48-1.955a7.587 7.587 0 002.057-5.765 7.234 7.234 0 00-2.108-5.629 8.793 8.793 0 00-6.122-1.921h-2.79zm0 22.515h4.898q5.373 0 7.89-2.109a7.29 7.29 0 002.653-5.782 7.408 7.408 0 00-2.551-5.713q-2.483-2.279-8.876-2.279h-4.014zm66.435-37.241l-6.428 3.81a11.046 11.046 0 00-3.436-4.082 8.014 8.014 0 00-4.386-1.088 8.1 8.1 0 00-5.476 1.87 5.797 5.797 0 00-2.177 4.625q0 3.844 5.714 6.19l5.238 2.143q6.392 2.585 9.352 6.308a14.221 14.221 0 012.96 9.133 16.042 16.042 0 01-4.83 11.97 16.574 16.574 0 01-12.074 4.762 16.15 16.15 0 01-11.291-4.047q-4.387-4.047-5.476-11.393l8.027-1.769q.543 4.626 1.904 6.394a9.05 9.05 0 0013.298.919 8.589 8.589 0 002.449-6.292 8.83 8.83 0 00-.426-2.806 7.12 7.12 0 00-1.326-2.347 10.605 10.605 0 00-2.33-2.007 22.569 22.569 0 00-3.4-1.785l-5.068-2.109q-10.781-4.557-10.781-13.332a12.648 12.648 0 014.523-9.897A16.345 16.345 0 01769.31 2.55q9.081 0 14.183 8.843z"/>
    </svg>
  </g>
</svg>
