<svg xmlns="http://www.w3.org/2000/svg" xmlns:xlink="http://www.w3.org/1999/xlink" viewBox="0 0 1280 400">
  <path fill="#FFF" d="M0 0h1280v400H0z"/>
  <path paint-order="stroke fill markers" d="M196.345 115.625a.53.53 0 111.06 0 .53.53 0 01-1.06 0zm6.241 0a.54.54 0 111.078 0 .54.54 0 01-1.078 0zm6.28 0a.509.509 0 111.018 0 .509.509 0 01-1.018 0zm-25.073 6.25a.582.582 0 111.164 0 .582.582 0 01-1.164 0zm6.146 0a.686.686 0 111.372 0 .686.686 0 01-1.372 0zm6.185 0a.75.75 0 111.502 0 .75.75 0 01-1.502 0zm6.241 0a.76.76 0 111.52 0 .76.76 0 01-1.52 0zm6.299 0a.71.71 0 111.422 0 .71.71 0 01-1.422 0zm6.339 0a.622.622 0 111.244 0 .622.622 0 01-1.244 0zm-37.493 6.25a.616.616 0 111.23 0 .616.616 0 01-1.23 0zm6.04 0a.824.824 0 111.65 0 .824.824 0 01-1.65 0zm6.049 0a1.026 1.026 0 112.052 0 1.026 1.026 0 01-2.052 0zm6.124 0a1.152 1.152 0 112.304 0 1.152 1.152 0 01-2.304 0zm6.226 0a1.176 1.176 0 112.352 0 1.176 1.176 0 01-2.352 0zm6.348 0a1.078 1.078 0 112.156 0 1.078 1.078 0 01-2.156 0zm6.43 0a.898.898 0 111.796 0 .898.898 0 01-1.796 0zm6.459 0a.69.69 0 111.378 0 .69.69 0 01-1.378 0zm-43.836 6.25a.775.775 0 111.55 0 .775.775 0 01-1.55 0zm5.913 0a1.112 1.112 0 112.224 0 1.112 1.112 0 01-2.224 0zm5.962 0a1.4 1.4 0 112.8 0 1.4 1.4 0 01-2.8 0zm6.078 0a1.572 1.572 0 113.144 0 1.572 1.572 0 01-3.144 0zm6.226 0a1.596 1.596 0 113.192 0 1.596 1.596 0 01-3.192 0zm6.372 0a1.474 1.474 0 112.948 0 1.474 1.474 0 01-2.948 0zm6.502 0a1.222 1.222 0 112.444 0 1.222 1.222 0 01-2.444 0zm6.59 0a.882.882 0 111.764 0 .882.882 0 01-1.764 0zm6.599 0a.533.533 0 111.066 0 .533.533 0 01-1.066 0zm-50.402 6.25a.934.934 0 111.87 0 .934.934 0 01-1.87 0zm5.766 0a1.419 1.419 0 112.838 0 1.419 1.419 0 01-2.838 0zm5.88 0a1.79 1.79 0 113.578 0 1.79 1.79 0 01-3.578 0zm6.014 0a2.025 2.025 0 114.05 0 2.025 2.025 0 01-4.05 0zm6.204 0a2.071 2.071 0 114.142 0 2.071 2.071 0 01-4.142 0zm6.436 0a1.884 1.884 0 113.77 0 1.884 1.884 0 01-3.77 0zm6.582 0a1.553 1.553 0 113.106 0 1.553 1.553 0 01-3.106 0zm6.706 0a1.097 1.097 0 112.194 0 1.097 1.097 0 01-2.194 0zm6.768 0a.579.579 0 111.158 0 .579.579 0 01-1.158 0zm-50.46 6.25a1.039 1.039 0 112.078 0 1.039 1.039 0 01-2.078 0zm5.607 0a1.682 1.682 0 113.364 0 1.682 1.682 0 01-3.364 0zm5.714 0a2.218 2.218 0 114.436 0 2.218 2.218 0 01-4.436 0zm5.855 0a2.613 2.613 0 115.226 0 2.613 2.613 0 01-5.226 0zm6.191 0a2.672 2.672 0 115.344 0 2.672 2.672 0 01-5.344 0zm6.545 0a2.377 2.377 0 114.754 0 2.377 2.377 0 01-4.754 0zm6.762 0a1.866 1.866 0 113.73 0 1.866 1.866 0 01-3.73 0zm6.85 0a1.265 1.265 0 112.53 0 1.265 1.265 0 01-2.53 0zm6.954 0a.56.56 0 111.122 0 .56.56 0 01-1.122 0zm-100.015 6.25a.576.576 0 111.152 0 .576.576 0 01-1.152 0zm6.161 0a.665.665 0 111.33 0 .665.665 0 01-1.33 0zm6.198 0a.717.717 0 111.434 0 .717.717 0 01-1.434 0zm6.256 0a.71.71 0 111.422 0 .71.71 0 01-1.422 0zm6.382 0a.579.579 0 111.158 0 .579.579 0 01-1.158 0zm24.568 0a1.011 1.011 0 112.022 0 1.011 1.011 0 01-2.022 0zm5.374 0a1.887 1.887 0 113.774 0 1.887 1.887 0 01-3.774 0zm5.402 0a2.736 2.736 0 115.47 0 2.736 2.736 0 01-5.47 0zm5.89 0a3.094 3.094 0 116.19 0 3.094 3.094 0 01-6.19 0zm6.223 0a3.122 3.122 0 116.244 0 3.122 3.122 0 01-6.244 0zm6.455 0a2.917 2.917 0 115.834 0 2.917 2.917 0 01-5.834 0zm6.973 0a2.194 2.194 0 114.388 0 2.194 2.194 0 01-4.388 0zm7.148 0a1.296 1.296 0 112.592 0 1.296 1.296 0 01-2.592 0zm25.775 0a.52.52 0 111.042 0 .52.52 0 01-1.042 0zm6.088 0a.683.683 0 111.366 0 .683.683 0 01-1.366 0zm6.21 0a.723.723 0 111.446 0 .723.723 0 01-1.446 0zm6.287 0a.686.686 0 111.372 0 .686.686 0 01-1.372 0zm6.326 0a.61.61 0 111.22 0 .61.61 0 01-1.22 0zm-150.03 6.25a.64.64 0 111.28 0 .64.64 0 01-1.28 0zm6.045 0a.846.846 0 111.69 0 .846.846 0 01-1.69 0zm6.063 0a1.032 1.032 0 112.064 0 1.032 1.032 0 01-2.064 0zm6.09 0a1.192 1.192 0 112.384 0 1.192 1.192 0 01-2.384 0zm6.174 0a1.268 1.268 0 112.536 0 1.268 1.268 0 01-2.536 0zm6.342 0a1.176 1.176 0 112.352 0 1.176 1.176 0 01-2.352 0zm6.525 0a.9.9 0 111.802 0 .9.9 0 01-1.802 0zm18.879 0a.772.772 0 111.544 0 .772.772 0 01-1.544 0zm5.122 0a1.9 1.9 0 113.8 0 1.9 1.9 0 01-3.8 0zm5.227 0a2.923 2.923 0 115.846 0 2.923 2.923 0 01-5.846 0z"/>
  <path paint-order="stroke fill markers" d="M193.75 159.375a3.125 3.125 0 116.25 0 3.125 3.125 0 01-6.25 0zm6.25 0a3.125 3.125 0 116.25 0 3.125 3.125 0 01-6.25 0zm6.287 0a3.088 3.088 0 116.176 0 3.088 3.088 0 01-6.176 0zm7.031 0a2.307 2.307 0 114.614 0 2.307 2.307 0 01-4.614 0zm7.439 0a1.118 1.118 0 112.236 0 1.118 1.118 0 01-2.236 0zm19.099 0a.769.769 0 111.538 0 .769.769 0 01-1.538 0zm5.916 0a1.103 1.103 0 112.206 0 1.103 1.103 0 01-2.206 0zm6.091 0a1.262 1.262 0 112.524 0 1.262 1.262 0 01-2.524 0zm6.283 0a1.229 1.229 0 112.458 0 1.229 1.229 0 01-2.458 0zm6.388 0a1.09 1.09 0 112.182 0 1.09 1.09 0 01-2.182 0zm6.434 0a.907.907 0 111.814 0 .907.907 0 01-1.814 0zm6.465 0a.692.692 0 111.384 0 .692.692 0 01-1.384 0zm6.4 0a.542.542 0 111.084 0 .542.542 0 01-1.084 0zm-168.858 6.25a.65.65 0 111.3 0 .65.65 0 01-1.3 0zm6.033 0a.867.867 0 111.734 0 .867.867 0 01-1.734 0zm5.904 0a1.213 1.213 0 112.426 0 1.213 1.213 0 01-2.426 0zm5.958 0a1.504 1.504 0 113.01 0 1.504 1.504 0 01-3.01 0zm5.996 0a1.759 1.759 0 113.518 0 1.759 1.759 0 01-3.518 0zm6.051 0a1.958 1.958 0 113.916 0 1.958 1.958 0 01-3.916 0zm6.198 0a2.01 2.01 0 114.02 0 2.01 2.01 0 01-4.02 0zm6.462 0a1.798 1.798 0 113.596 0 1.798 1.798 0 01-3.596 0zm6.755 0a1.293 1.293 0 112.586 0 1.293 1.293 0 01-2.586 0zm7.007 0a.536.536 0 111.072 0 .536.536 0 01-1.072 0zm11.455 0a1.58 1.58 0 113.162 0 1.58 1.58 0 01-3.162 0zm4.942 0a2.89 2.89 0 115.778 0 2.89 2.89 0 01-5.778 0z"/>
  <path paint-order="stroke fill markers" d="M193.75 165.625a3.125 3.125 0 116.25 0 3.125 3.125 0 01-6.25 0zm6.25 0a3.125 3.125 0 116.25 0 3.125 3.125 0 01-6.25 0zm6.265 0a3.11 3.11 0 116.22 0 3.11 3.11 0 01-6.22 0zm7.234 0a2.126 2.126 0 114.252 0 2.126 2.126 0 01-4.252 0zm7.693 0a.683.683 0 111.366 0 .683.683 0 01-1.366 0zm12.135 0a1.048 1.048 0 112.096 0 1.048 1.048 0 01-2.096 0zm5.631 0a1.667 1.667 0 113.334 0 1.667 1.667 0 01-3.334 0zm5.95 0a1.967 1.967 0 113.934 0 1.967 1.967 0 01-3.934 0zm6.222 0a1.994 1.994 0 113.99 0 1.994 1.994 0 01-3.99 0zm6.41 0a1.835 1.835 0 113.67 0 1.835 1.835 0 01-3.67 0zm6.489 0a1.596 1.596 0 113.192 0 1.596 1.596 0 01-3.192 0zm6.531 0a1.314 1.314 0 112.63 0 1.314 1.314 0 01-2.63 0zm6.603 0a.962.962 0 111.924 0 .962.962 0 01-1.924 0zm6.501 0a.71.71 0 111.422 0 .71.71 0 01-1.422 0zm6.431 0a.53.53 0 111.06 0 .53.53 0 01-1.06 0zm-181.311 6.25a.591.591 0 111.182 0 .591.591 0 01-1.182 0zm6.016 0a.824.824 0 111.65 0 .824.824 0 01-1.65 0zm5.914 0a1.161 1.161 0 112.322 0 1.161 1.161 0 01-2.322 0zm5.815 0a1.596 1.596 0 113.192 0 1.596 1.596 0 01-3.192 0zm5.845 0a2 2 0 114.002 0 2 2 0 01-4.002 0zm5.812 0a2.439 2.439 0 114.878 0 2.439 2.439 0 01-4.878 0zm5.889 0a2.8 2.8 0 115.6 0 2.8 2.8 0 01-5.6 0zm6.121 0a2.929 2.929 0 115.858 0 2.929 2.929 0 01-5.858 0zm6.321 0a2.858 2.858 0 115.716 0 2.858 2.858 0 01-5.716 0zm6.562 0a2.546 2.546 0 115.092 0 2.546 2.546 0 01-5.092 0zm7.117 0a1.679 1.679 0 113.358 0 1.679 1.679 0 01-3.358 0zm13.238 0a.94.94 0 111.882 0 .94.94 0 01-1.882 0zm4.562 0a2.629 2.629 0 115.258 0 2.629 2.629 0 01-5.258 0z"/>
  <path paint-order="stroke fill markers" d="M193.75 171.875a3.125 3.125 0 116.25 0 3.125 3.125 0 01-6.25 0zm6.25 0a3.125 3.125 0 116.25 0 3.125 3.125 0 01-6.25 0zm6.415 0a2.96 2.96 0 115.92 0 2.96 2.96 0 01-5.92 0zm7.705 0a1.504 1.504 0 113.01 0 1.504 1.504 0 01-3.01 0zm12.724 0a1.28 1.28 0 112.562 0 1.28 1.28 0 01-2.562 0zm5.2 0a2.331 2.331 0 114.662 0 2.331 2.331 0 01-4.662 0zm5.786 0a2.794 2.794 0 115.59 0 2.794 2.794 0 01-5.59 0zm6.122 0a2.923 2.923 0 115.846 0 2.923 2.923 0 01-5.846 0zm6.305 0a2.868 2.868 0 115.736 0 2.868 2.868 0 01-5.736 0zm6.538 0a2.58 2.58 0 115.16 0 2.58 2.58 0 01-5.16 0zm6.695 0a2.135 2.135 0 114.27 0 2.135 2.135 0 01-4.27 0zm6.657 0a1.728 1.728 0 113.456 0 1.728 1.728 0 01-3.456 0zm6.691 0a1.287 1.287 0 112.574 0 1.287 1.287 0 01-2.574 0zm6.612 0a.925.925 0 111.85 0 .925.925 0 01-1.85 0zm6.51 0a.665.665 0 111.33 0 .665.665 0 01-1.33 0zm-187.344 6.25a.509.509 0 111.018 0 .509.509 0 01-1.018 0zm6.033 0a.726.726 0 111.452 0 .726.726 0 01-1.452 0zm5.922 0a1.054 1.054 0 112.108 0 1.054 1.054 0 01-2.108 0zm5.819 0a1.486 1.486 0 112.97 0 1.486 1.486 0 01-2.97 0zm5.698 0a2.037 2.037 0 114.074 0 2.037 2.037 0 01-4.074 0zm5.631 0a2.656 2.656 0 115.312 0 2.656 2.656 0 01-5.312 0zm5.842 0a3.064 3.064 0 116.128 0 3.064 3.064 0 01-6.128 0zm6.189 0a3.125 3.125 0 116.25 0 3.125 3.125 0 01-6.25 0zm6.25 0a3.125 3.125 0 116.25 0 3.125 3.125 0 01-6.25 0zm6.25 0a3.125 3.125 0 116.25 0 3.125 3.125 0 01-6.25 0zm6.25 0a3.125 3.125 0 116.25 0 3.125 3.125 0 01-6.25 0zm6.348 0a3.027 3.027 0 116.054 0 3.027 3.027 0 01-6.054 0zm7.368 0a1.909 1.909 0 113.818 0 1.909 1.909 0 01-3.818 0zm7.641 0a.518.518 0 111.036 0 .518.518 0 01-1.036 0zm5.093 0a1.676 1.676 0 113.35 0 1.676 1.676 0 01-3.35 0z"/>
  <path paint-order="stroke fill markers" d="M193.827 178.125a3.048 3.048 0 116.096 0 3.048 3.048 0 01-6.096 0zm6.173 0a3.125 3.125 0 116.25 0 3.125 3.125 0 01-6.25 0zm7.059 0a2.316 2.316 0 114.632 0 2.316 2.316 0 01-4.632 0zm7.956 0a.61.61 0 111.22 0 .61.61 0 01-1.22 0zm5.5 0a1.36 1.36 0 112.72 0 1.36 1.36 0 01-2.72 0zm4.733 0a2.877 2.877 0 115.754 0 2.877 2.877 0 01-5.754 0zm6.002 0a3.125 3.125 0 116.25 0 3.125 3.125 0 01-6.25 0zm6.25 0a3.125 3.125 0 116.25 0 3.125 3.125 0 01-6.25 0zm6.25 0a3.125 3.125 0 116.25 0 3.125 3.125 0 01-6.25 0zm6.25 0a3.125 3.125 0 116.25 0 3.125 3.125 0 01-6.25 0zm6.265 0a3.11 3.11 0 116.22 0 3.11 3.11 0 01-6.22 0zm6.532 0a2.828 2.828 0 115.656 0 2.828 2.828 0 01-5.656 0zm6.851 0a2.227 2.227 0 114.454 0 2.227 2.227 0 01-4.454 0zm6.847 0a1.63 1.63 0 113.26 0 1.63 1.63 0 01-3.26 0zm6.682 0a1.198 1.198 0 112.396 0 1.198 1.198 0 01-2.396 0zm6.627 0a.821.821 0 111.642 0 .821.821 0 01-1.642 0zm6.498 0a.573.573 0 111.146 0 .573.573 0 01-1.146 0zm-193.756 6.25a.579.579 0 111.158 0 .579.579 0 01-1.158 0zm5.986 0a.843.843 0 111.686 0 .843.843 0 01-1.686 0zm5.855 0a1.238 1.238 0 112.476 0 1.238 1.238 0 01-2.476 0zm5.778 0a1.71 1.71 0 113.42 0 1.71 1.71 0 01-3.42 0zm5.545 0a2.414 2.414 0 114.83 0 2.414 2.414 0 01-4.83 0zm5.647 0a3.018 3.018 0 116.036 0 3.018 3.018 0 01-6.036 0zm6.143 0a3.125 3.125 0 116.25 0 3.125 3.125 0 01-6.25 0zm6.25 0a3.125 3.125 0 116.25 0 3.125 3.125 0 01-6.25 0zm6.25 0a3.125 3.125 0 116.25 0 3.125 3.125 0 01-6.25 0zm6.25 0a3.125 3.125 0 116.25 0 3.125 3.125 0 01-6.25 0zm6.25 0a3.125 3.125 0 116.25 0 3.125 3.125 0 01-6.25 0zm6.25 0a3.125 3.125 0 116.25 0 3.125 3.125 0 01-6.25 0zm6.342 0a3.033 3.033 0 116.066 0 3.033 3.033 0 01-6.066 0zm7.521 0a1.762 1.762 0 113.524 0 1.762 1.762 0 01-3.524 0zm7.304 0a.708.708 0 111.416 0 .708.708 0 01-1.416 0zm4.639 0a2.32 2.32 0 114.638 0 2.32 2.32 0 01-4.638 0zm5.839 0a2.73 2.73 0 115.46 0 2.73 2.73 0 01-5.46 0zm7.883 0a1.097 1.097 0 112.194 0 1.097 1.097 0 01-2.194 0zm6.207 0a1.14 1.14 0 112.28 0 1.14 1.14 0 01-2.28 0zm4.568 0a2.822 2.822 0 115.644 0 2.822 2.822 0 01-5.644 0z"/>
  <path paint-order="stroke fill markers" d="M225 184.375a3.125 3.125 0 116.25 0 3.125 3.125 0 01-6.25 0zm6.25 0a3.125 3.125 0 116.25 0 3.125 3.125 0 01-6.25 0zm6.25 0a3.125 3.125 0 116.25 0 3.125 3.125 0 01-6.25 0zm6.25 0a3.125 3.125 0 116.25 0 3.125 3.125 0 01-6.25 0zm6.25 0a3.125 3.125 0 116.25 0 3.125 3.125 0 01-6.25 0zm6.25 0a3.125 3.125 0 116.25 0 3.125 3.125 0 01-6.25 0zm6.278 0a3.097 3.097 0 116.194 0 3.097 3.097 0 01-6.194 0zm6.688 0a2.66 2.66 0 115.318 0 2.66 2.66 0 01-5.318 0zm7.028 0a1.881 1.881 0 113.762 0 1.881 1.881 0 01-3.762 0zm6.737 0a1.394 1.394 0 112.788 0 1.394 1.394 0 01-2.788 0zm6.689 0a.956.956 0 111.91 0 .956.956 0 01-1.91 0zm6.55 0a.656.656 0 111.31 0 .656.656 0 01-1.31 0zm-193.723 6.25a.628.628 0 111.256 0 .628.628 0 01-1.256 0zm5.95 0a.928.928 0 111.856 0 .928.928 0 01-1.856 0zm5.805 0a1.373 1.373 0 112.746 0 1.373 1.373 0 01-2.746 0zm5.738 0a1.884 1.884 0 113.77 0 1.884 1.884 0 01-3.77 0zm5.424 0a2.711 2.711 0 115.422 0 2.711 2.711 0 01-5.422 0zm5.836 0a3.125 3.125 0 116.25 0 3.125 3.125 0 01-6.25 0zm6.25 0a3.125 3.125 0 116.25 0 3.125 3.125 0 01-6.25 0zm6.25 0a3.125 3.125 0 116.25 0 3.125 3.125 0 01-6.25 0zm6.25 0a3.125 3.125 0 116.25 0 3.125 3.125 0 01-6.25 0zm6.25 0a3.125 3.125 0 116.25 0 3.125 3.125 0 01-6.25 0zm6.25 0a3.125 3.125 0 116.25 0 3.125 3.125 0 01-6.25 0zm6.25 0a3.125 3.125 0 116.25 0 3.125 3.125 0 01-6.25 0zm6.25 0a3.125 3.125 0 116.25 0 3.125 3.125 0 01-6.25 0zm6.4 0a2.975 2.975 0 115.95 0 2.975 2.975 0 01-5.95 0zm7.87 0a1.354 1.354 0 112.71 0 1.354 1.354 0 01-2.71 0zm6.717 0a.888.888 0 111.776 0 .888.888 0 01-1.776 0zm5.848 0a1.29 1.29 0 112.58 0 1.29 1.29 0 01-2.58 0zm6.753 0a.787.787 0 111.574 0 .787.787 0 01-1.574 0zm4.344 0a2.693 2.693 0 115.386 0 2.693 2.693 0 01-5.386 0zm5.818 0a3.125 3.125 0 116.25 0 3.125 3.125 0 01-6.25 0z"/>
  <path paint-order="stroke fill markers" d="M225 190.625a3.125 3.125 0 116.25 0 3.125 3.125 0 01-6.25 0zm6.25 0a3.125 3.125 0 116.25 0 3.125 3.125 0 01-6.25 0zm6.25 0a3.125 3.125 0 116.25 0 3.125 3.125 0 01-6.25 0zm6.25 0a3.125 3.125 0 116.25 0 3.125 3.125 0 01-6.25 0zm6.25 0a3.125 3.125 0 116.25 0 3.125 3.125 0 01-6.25 0zm6.25 0a3.125 3.125 0 116.25 0 3.125 3.125 0 01-6.25 0zm6.25 0a3.125 3.125 0 116.25 0 3.125 3.125 0 01-6.25 0zm6.452 0a2.923 2.923 0 115.846 0 2.923 2.923 0 01-5.846 0zm7.08 0a2.093 2.093 0 114.186 0 2.093 2.093 0 01-4.186 0zm6.805 0a1.538 1.538 0 113.076 0 1.538 1.538 0 01-3.076 0zm6.722 0a1.066 1.066 0 112.132 0 1.066 1.066 0 01-2.132 0zm6.605 0a.71.71 0 111.422 0 .71.71 0 01-1.422 0zm-193.698 6.25a.659.659 0 111.318 0 .659.659 0 01-1.318 0zm5.926 0a.983.983 0 111.966 0 .983.983 0 01-1.966 0zm5.784 0a1.45 1.45 0 112.898 0 1.45 1.45 0 01-2.898 0zm5.711 0a1.988 1.988 0 113.976 0 1.988 1.988 0 01-3.976 0zm5.367 0a2.87 2.87 0 115.742 0 2.87 2.87 0 01-5.742 0zm5.996 0a3.125 3.125 0 116.25 0 3.125 3.125 0 01-6.25 0zm6.25 0a3.125 3.125 0 116.25 0 3.125 3.125 0 01-6.25 0zm6.25 0a3.125 3.125 0 116.25 0 3.125 3.125 0 01-6.25 0zm6.25 0a3.125 3.125 0 116.25 0 3.125 3.125 0 01-6.25 0zm6.25 0a3.125 3.125 0 116.25 0 3.125 3.125 0 01-6.25 0zm6.25 0a3.125 3.125 0 116.25 0 3.125 3.125 0 01-6.25 0zm6.25 0a3.125 3.125 0 116.25 0 3.125 3.125 0 01-6.25 0zm6.25 0a3.125 3.125 0 116.25 0 3.125 3.125 0 01-6.25 0zm6.25 0a3.125 3.125 0 116.25 0 3.125 3.125 0 01-6.25 0zm6.765 0a2.61 2.61 0 115.22 0 2.61 2.61 0 01-5.22 0zm8.241 0a.619.619 0 111.238 0 .619.619 0 01-1.238 0zm11.152 0a1.967 1.967 0 113.934 0 1.967 1.967 0 01-3.934 0zm5.092 0a3.125 3.125 0 116.25 0 3.125 3.125 0 01-6.25 0zm6.25 0a3.125 3.125 0 116.25 0 3.125 3.125 0 01-6.25 0z"/>
  <path paint-order="stroke fill markers" d="M225 196.875a3.125 3.125 0 116.25 0 3.125 3.125 0 01-6.25 0zm6.25 0a3.125 3.125 0 116.25 0 3.125 3.125 0 01-6.25 0zm6.25 0a3.125 3.125 0 116.25 0 3.125 3.125 0 01-6.25 0zm6.25 0a3.125 3.125 0 116.25 0 3.125 3.125 0 01-6.25 0zm6.25 0a3.125 3.125 0 116.25 0 3.125 3.125 0 01-6.25 0zm6.25 0a3.125 3.125 0 116.25 0 3.125 3.125 0 01-6.25 0zm6.25 0a3.125 3.125 0 116.25 0 3.125 3.125 0 01-6.25 0zm6.363 0a3.012 3.012 0 116.024 0 3.012 3.012 0 01-6.024 0zm7.037 0a2.224 2.224 0 114.45 0 2.224 2.224 0 01-4.45 0zm6.854 0a1.62 1.62 0 113.242 0 1.62 1.62 0 01-3.242 0zm6.737 0a1.134 1.134 0 112.268 0 1.134 1.134 0 01-2.268 0zm6.633 0a.75.75 0 111.502 0 .75.75 0 01-1.502 0zm-193.667 6.25a.668.668 0 111.336 0 .668.668 0 01-1.336 0zm5.923 0a.996.996 0 111.99 0 .996.996 0 01-1.99 0zm5.784 0a1.461 1.461 0 112.922 0 1.461 1.461 0 01-2.922 0zm5.707 0a2.004 2.004 0 114.008 0 2.004 2.004 0 01-4.008 0zm5.365 0a2.89 2.89 0 115.778 0 2.89 2.89 0 01-5.778 0zm6.014 0a3.125 3.125 0 116.25 0 3.125 3.125 0 01-6.25 0zm6.25 0a3.125 3.125 0 116.25 0 3.125 3.125 0 01-6.25 0zm6.25 0a3.125 3.125 0 116.25 0 3.125 3.125 0 01-6.25 0zm6.25 0a3.125 3.125 0 116.25 0 3.125 3.125 0 01-6.25 0zm6.25 0a3.125 3.125 0 116.25 0 3.125 3.125 0 01-6.25 0zm6.25 0a3.125 3.125 0 116.25 0 3.125 3.125 0 01-6.25 0zm6.25 0a3.125 3.125 0 116.25 0 3.125 3.125 0 01-6.25 0zm6.25 0a3.125 3.125 0 116.25 0 3.125 3.125 0 01-6.25 0zm6.25 0a3.125 3.125 0 116.25 0 3.125 3.125 0 01-6.25 0zm6.553 0a2.822 2.822 0 115.644 0 2.822 2.822 0 01-5.644 0zm8.318 0a.754.754 0 111.508 0 .754.754 0 01-1.508 0zm11.009 0a2.246 2.246 0 114.49 0 2.246 2.246 0 01-4.49 0zm5.37 0a3.125 3.125 0 116.25 0 3.125 3.125 0 01-6.25 0zm6.25 0a3.125 3.125 0 116.25 0 3.125 3.125 0 01-6.25 0z"/>
  <path paint-order="stroke fill markers" d="M225 203.125a3.125 3.125 0 116.25 0 3.125 3.125 0 01-6.25 0zm6.25 0a3.125 3.125 0 116.25 0 3.125 3.125 0 01-6.25 0zm6.25 0a3.125 3.125 0 116.25 0 3.125 3.125 0 01-6.25 0zm6.25 0a3.125 3.125 0 116.25 0 3.125 3.125 0 01-6.25 0zm6.25 0a3.125 3.125 0 116.25 0 3.125 3.125 0 01-6.25 0zm6.25 0a3.125 3.125 0 116.25 0 3.125 3.125 0 01-6.25 0zm6.25 0a3.125 3.125 0 116.25 0 3.125 3.125 0 01-6.25 0zm6.354 0a3.02 3.02 0 116.042 0 3.02 3.02 0 01-6.042 0zm7.019 0a2.252 2.252 0 114.504 0 2.252 2.252 0 01-4.504 0zm6.869 0a1.633 1.633 0 113.266 0 1.633 1.633 0 01-3.266 0zm6.74 0a1.143 1.143 0 112.286 0 1.143 1.143 0 01-2.286 0zm6.633 0a.76.76 0 111.52 0 .76.76 0 01-1.52 0zm-193.633 6.25a.643.643 0 111.286 0 .643.643 0 01-1.286 0zm5.94 0a.953.953 0 111.906 0 .953.953 0 01-1.906 0zm5.794 0a1.41 1.41 0 112.818 0 1.41 1.41 0 01-2.818 0zm5.732 0a1.927 1.927 0 113.854 0 1.927 1.927 0 01-3.854 0zm5.389 0a2.788 2.788 0 115.576 0 2.788 2.788 0 01-5.576 0zm5.913 0a3.125 3.125 0 116.25 0 3.125 3.125 0 01-6.25 0zm6.25 0a3.125 3.125 0 116.25 0 3.125 3.125 0 01-6.25 0zm6.25 0a3.125 3.125 0 116.25 0 3.125 3.125 0 01-6.25 0zm6.25 0a3.125 3.125 0 116.25 0 3.125 3.125 0 01-6.25 0zm6.25 0a3.125 3.125 0 116.25 0 3.125 3.125 0 01-6.25 0zm6.25 0a3.125 3.125 0 116.25 0 3.125 3.125 0 01-6.25 0zm6.25 0a3.125 3.125 0 116.25 0 3.125 3.125 0 01-6.25 0zm6.25 0a3.125 3.125 0 116.25 0 3.125 3.125 0 01-6.25 0zm6.25 0a3.125 3.125 0 116.25 0 3.125 3.125 0 01-6.25 0zm7.58 0a1.795 1.795 0 113.59 0 1.795 1.795 0 01-3.59 0zm7.41 0a.634.634 0 111.27 0 .634.634 0 01-1.27 0zm6.085 0a.8.8 0 111.6 0 .8.8 0 01-1.6 0zm5.898 0a1.152 1.152 0 112.304 0 1.152 1.152 0 01-2.304 0zm4.495 0a2.907 2.907 0 115.814 0 2.907 2.907 0 01-5.814 0zm6.032 0a3.125 3.125 0 116.25 0 3.125 3.125 0 01-6.25 0z"/>
  <path paint-order="stroke fill markers" d="M225 209.375a3.125 3.125 0 116.25 0 3.125 3.125 0 01-6.25 0zm6.25 0a3.125 3.125 0 116.25 0 3.125 3.125 0 01-6.25 0zm6.25 0a3.125 3.125 0 116.25 0 3.125 3.125 0 01-6.25 0zm6.25 0a3.125 3.125 0 116.25 0 3.125 3.125 0 01-6.25 0zm6.25 0a3.125 3.125 0 116.25 0 3.125 3.125 0 01-6.25 0zm6.25 0a3.125 3.125 0 116.25 0 3.125 3.125 0 01-6.25 0zm6.25 0a3.125 3.125 0 116.25 0 3.125 3.125 0 01-6.25 0zm6.412 0a2.963 2.963 0 115.926 0 2.963 2.963 0 01-5.926 0zm7.062 0a2.15 2.15 0 114.302 0 2.15 2.15 0 01-4.302 0zm6.826 0a1.575 1.575 0 113.15 0 1.575 1.575 0 01-3.15 0zm6.728 0a1.097 1.097 0 112.194 0 1.097 1.097 0 01-2.194 0zm6.621 0a.726.726 0 111.452 0 .726.726 0 01-1.452 0zm-193.621 6.25a.597.597 0 111.194 0 .597.597 0 01-1.194 0zm5.974 0a.873.873 0 111.746 0 .873.873 0 01-1.746 0zm5.833 0a1.29 1.29 0 112.58 0 1.29 1.29 0 01-2.58 0zm5.76 0a1.78 1.78 0 113.56 0 1.78 1.78 0 01-3.56 0zm5.509 0a2.521 2.521 0 115.042 0 2.521 2.521 0 01-5.042 0zm5.698 0a3.073 3.073 0 116.146 0 3.073 3.073 0 01-6.146 0zm6.198 0a3.125 3.125 0 116.25 0 3.125 3.125 0 01-6.25 0zm6.25 0a3.125 3.125 0 116.25 0 3.125 3.125 0 01-6.25 0zm6.25 0a3.125 3.125 0 116.25 0 3.125 3.125 0 01-6.25 0zm6.25 0a3.125 3.125 0 116.25 0 3.125 3.125 0 01-6.25 0zm6.25 0a3.125 3.125 0 116.25 0 3.125 3.125 0 01-6.25 0zm6.25 0a3.125 3.125 0 116.25 0 3.125 3.125 0 01-6.25 0zm6.25 0a3.125 3.125 0 116.25 0 3.125 3.125 0 01-6.25 0zm7.053 0a2.322 2.322 0 114.644 0 2.322 2.322 0 01-4.644 0zm7.892 0a.68.68 0 111.36 0 .68.68 0 01-1.36 0zm5.058 0a1.872 1.872 0 113.744 0 1.872 1.872 0 01-3.744 0zm5.787 0a2.335 2.335 0 114.67 0 2.335 2.335 0 01-4.67 0zm7.78 0a.806.806 0 111.61 0 .806.806 0 01-1.61 0zm5.41 0a1.645 1.645 0 113.29 0 1.645 1.645 0 01-3.29 0zm4.862 0a3.033 3.033 0 116.066 0 3.033 3.033 0 01-6.066 0z"/>
  <path paint-order="stroke fill markers" d="M225 215.625a3.125 3.125 0 116.25 0 3.125 3.125 0 01-6.25 0zm6.25 0a3.125 3.125 0 116.25 0 3.125 3.125 0 01-6.25 0zm6.25 0a3.125 3.125 0 116.25 0 3.125 3.125 0 01-6.25 0zm6.25 0a3.125 3.125 0 116.25 0 3.125 3.125 0 01-6.25 0zm6.25 0a3.125 3.125 0 116.25 0 3.125 3.125 0 01-6.25 0zm6.25 0a3.125 3.125 0 116.25 0 3.125 3.125 0 01-6.25 0zm6.25 0a3.125 3.125 0 116.25 0 3.125 3.125 0 01-6.25 0zm6.6 0a2.776 2.776 0 115.55 0 2.776 2.776 0 01-5.55 0zm7.067 0a1.958 1.958 0 113.916 0 1.958 1.958 0 01-3.916 0zm6.759 0a1.45 1.45 0 112.898 0 1.45 1.45 0 01-2.898 0zm6.704 0a.996.996 0 111.99 0 .996.996 0 01-1.99 0zm6.571 0a.674.674 0 111.348 0 .674.674 0 01-1.348 0zm-193.612 6.25a.536.536 0 111.072 0 .536.536 0 01-1.072 0zm6.021 0a.766.766 0 111.53 0 .766.766 0 01-1.53 0zm5.897 0a1.118 1.118 0 112.236 0 1.118 1.118 0 01-2.236 0zm5.806 0a1.563 1.563 0 113.125 0 1.563 1.563 0 01-3.126 0zm5.646 0a2.166 2.166 0 114.332 0 2.166 2.166 0 01-4.332 0zm5.61 0a2.806 2.806 0 115.612 0 2.806 2.806 0 01-5.612 0zm5.941 0a3.116 3.116 0 116.23 0 3.116 3.116 0 01-6.23 0z"/>
  <path paint-order="stroke fill markers" d="M143.75 221.875a3.125 3.125 0 116.25 0 3.125 3.125 0 01-6.25 0zm6.25 0a3.125 3.125 0 116.25 0 3.125 3.125 0 01-6.25 0zm6.25 0a3.125 3.125 0 116.25 0 3.125 3.125 0 01-6.25 0zm6.25 0a3.125 3.125 0 116.25 0 3.125 3.125 0 01-6.25 0zm6.25 0a3.125 3.125 0 116.25 0 3.125 3.125 0 01-6.25 0zm6.93 0a2.445 2.445 0 114.89 0 2.445 2.445 0 01-4.89 0zm7.917 0a.778.778 0 111.556 0 .778.778 0 01-1.556 0zm5.763 0a1.265 1.265 0 112.53 0 1.265 1.265 0 01-2.53 0zm4.592 0a2.923 2.923 0 115.846 0 2.923 2.923 0 01-5.846 0zm6.076 0a3.097 3.097 0 116.194 0 3.097 3.097 0 01-6.194 0zm7.383 0a1.964 1.964 0 113.928 0 1.964 1.964 0 01-3.928 0zm7.669 0a.545.545 0 111.09 0 .545.545 0 01-1.09 0zm4.905 0a1.89 1.89 0 113.78 0 1.89 1.89 0 01-3.78 0zm5.07 0a3.07 3.07 0 116.14 0 3.07 3.07 0 01-6.14 0zm6.195 0a3.125 3.125 0 116.25 0 3.125 3.125 0 01-6.25 0zm6.25 0a3.125 3.125 0 116.25 0 3.125 3.125 0 01-6.25 0zm6.25 0a3.125 3.125 0 116.25 0 3.125 3.125 0 01-6.25 0zm6.25 0a3.125 3.125 0 116.25 0 3.125 3.125 0 01-6.25 0zm6.25 0a3.125 3.125 0 116.25 0 3.125 3.125 0 01-6.25 0zm6.4 0a2.975 2.975 0 115.95 0 2.975 2.975 0 01-5.95 0zm6.844 0a2.38 2.38 0 114.762 0 2.38 2.38 0 01-4.762 0zm6.912 0a1.719 1.719 0 113.438 0 1.719 1.719 0 01-3.438 0zm6.704 0a1.265 1.265 0 112.53 0 1.265 1.265 0 01-2.53 0zm6.648 0a.867.867 0 111.734 0 .867.867 0 01-1.734 0zm6.513 0a.604.604 0 111.208 0 .604.604 0 01-1.208 0zm-187.531 6.25a.634.634 0 111.27 0 .634.634 0 01-1.27 0zm5.997 0a.888.888 0 111.776 0 .888.888 0 01-1.776 0zm5.882 0a1.256 1.256 0 112.512 0 1.256 1.256 0 01-2.512 0zm5.781 0a1.725 1.725 0 113.45 0 1.725 1.725 0 01-3.45 0zm5.803 0a2.172 2.172 0 114.344 0 2.172 2.172 0 01-4.344 0zm5.735 0a2.687 2.687 0 115.374 0 2.687 2.687 0 01-5.374 0z"/>
  <path paint-order="stroke fill markers" d="M143.888 228.125a2.987 2.987 0 115.974 0 2.987 2.987 0 01-5.974 0zm6.133 0a3.104 3.104 0 116.208 0 3.104 3.104 0 01-6.208 0zm6.272 0a3.082 3.082 0 116.164 0 3.082 3.082 0 01-6.164 0zm6.48 0a2.852 2.852 0 115.704 0 2.852 2.852 0 01-5.704 0zm6.915 0a2.188 2.188 0 114.375 0 2.188 2.188 0 01-4.375 0zm7.76 0a.677.677 0 111.354 0 .677.677 0 01-1.354 0zm6.225 0a.702.702 0 111.404 0 .702.702 0 01-1.404 0zm4.498 0a2.454 2.454 0 114.908 0 2.454 2.454 0 01-4.908 0zm5.579 0a3.125 3.125 0 116.25 0 3.125 3.125 0 01-6.25 0zm6.25 0a3.125 3.125 0 116.25 0 3.125 3.125 0 01-6.25 0zm6.541 0a2.834 2.834 0 115.668 0 2.834 2.834 0 01-5.668 0zm7.874 0a1.21 1.21 0 112.42 0 1.21 1.21 0 01-2.42 0zm11.918 0a1.792 1.792 0 113.584 0 1.792 1.792 0 01-3.584 0zm5.324 0a2.718 2.718 0 115.436 0 2.718 2.718 0 01-5.436 0zm5.932 0a3.036 3.036 0 116.072 0 3.036 3.036 0 01-6.072 0zm6.173 0a3.113 3.113 0 116.226 0 3.113 3.113 0 01-6.226 0zm6.33 0a3.033 3.033 0 116.066 0 3.033 3.033 0 01-6.066 0zm6.468 0a2.816 2.816 0 115.63 0 2.816 2.816 0 01-5.63 0zm6.715 0a2.35 2.35 0 114.7 0 2.35 2.35 0 01-4.7 0zm6.74 0a1.86 1.86 0 113.72 0 1.86 1.86 0 01-3.72 0zm6.722 0a1.388 1.388 0 112.776 0 1.388 1.388 0 01-2.776 0zm6.636 0a1.002 1.002 0 112.004 0 1.002 1.002 0 01-2.004 0zm6.547 0a.705.705 0 111.41 0 .705.705 0 01-1.41 0zm6.453 0a.502.502 0 111.004 0 .502.502 0 01-1.004 0zm-187.513 6.25a.515.515 0 111.03 0 .515.515 0 01-1.03 0zm6.06 0a.705.705 0 111.41 0 .705.705 0 01-1.41 0zm5.993 0a.962.962 0 111.924 0 .962.962 0 01-1.924 0zm5.87 0a1.342 1.342 0 112.684 0 1.342 1.342 0 01-2.684 0zm5.922 0a1.67 1.67 0 113.34 0 1.67 1.67 0 01-3.34 0zm5.95 0a1.97 1.97 0 113.94 0 1.97 1.97 0 01-3.94 0zm5.987 0a2.233 2.233 0 114.466 0 2.233 2.233 0 01-4.466 0zm6.13 0a2.353 2.353 0 114.706 0 2.353 2.353 0 01-4.706 0zm6.416 0a2.188 2.188 0 114.375 0 2.188 2.188 0 01-4.375 0zm6.767 0a1.67 1.67 0 113.34 0 1.67 1.67 0 01-3.34 0zm7.09 0a.83.83 0 111.66 0 .83.83 0 01-1.66 0zm11.924 0a1.406 1.406 0 112.812 0 1.406 1.406 0 01-2.812 0zm4.831 0a2.825 2.825 0 115.65 0 2.825 2.825 0 01-5.65 0z"/>
  <path paint-order="stroke fill markers" d="M193.75 234.375a3.125 3.125 0 116.25 0 3.125 3.125 0 01-6.25 0zm6.25 0a3.125 3.125 0 116.25 0 3.125 3.125 0 01-6.25 0zm6.287 0a3.088 3.088 0 116.176 0 3.088 3.088 0 01-6.176 0zm7.371 0a1.967 1.967 0 113.934 0 1.967 1.967 0 01-3.934 0zm7.699 0a.518.518 0 111.036 0 .518.518 0 01-1.036 0zm6.232 0a.536.536 0 111.072 0 .536.536 0 01-1.072 0zm5.367 0a1.419 1.419 0 112.838 0 1.419 1.419 0 01-2.838 0zm5.61 0a2.059 2.059 0 114.118 0 2.059 2.059 0 01-4.118 0zm5.981 0a2.328 2.328 0 114.656 0 2.328 2.328 0 01-4.656 0zm6.283 0a2.295 2.295 0 114.59 0 2.295 2.295 0 01-4.59 0zm6.48 0a2.065 2.065 0 114.13 0 2.065 2.065 0 01-4.13 0zm6.55 0a1.765 1.765 0 113.53 0 1.765 1.765 0 01-3.53 0zm6.56 0a1.455 1.455 0 112.91 0 1.455 1.455 0 01-2.91 0zm6.636 0a1.07 1.07 0 112.138 0 1.07 1.07 0 01-2.138 0zm6.538 0a.781.781 0 111.562 0 .781.781 0 01-1.562 0zm6.455 0a.576.576 0 111.152 0 .576.576 0 01-1.152 0zm-174.969 6.25a.545.545 0 111.09 0 .545.545 0 01-1.09 0zm6.087 0a.708.708 0 111.416 0 .708.708 0 01-1.416 0zm6.003 0a.956.956 0 111.91 0 .956.956 0 01-1.91 0zm6.02 0a1.186 1.186 0 112.37 0 1.186 1.186 0 01-2.37 0zm6.053 0a1.382 1.382 0 112.764 0 1.382 1.382 0 01-2.764 0zm6.143 0a1.489 1.489 0 112.978 0 1.489 1.489 0 01-2.978 0zm6.302 0a1.437 1.437 0 112.874 0 1.437 1.437 0 01-2.874 0zm6.52 0a1.167 1.167 0 112.334 0 1.167 1.167 0 01-2.334 0zm6.728 0a.69.69 0 111.378 0 .69.69 0 01-1.378 0zm12.552 0a.637.637 0 111.274 0 .637.637 0 01-1.274 0zm5.052 0a1.835 1.835 0 113.67 0 1.835 1.835 0 01-3.67 0zm5.153 0a2.932 2.932 0 115.864 0 2.932 2.932 0 01-5.864 0z"/>
  <path paint-order="stroke fill markers" d="M193.75 240.625a3.125 3.125 0 116.25 0 3.125 3.125 0 01-6.25 0zm6.25 0a3.125 3.125 0 116.25 0 3.125 3.125 0 01-6.25 0zm6.265 0a3.11 3.11 0 116.22 0 3.11 3.11 0 01-6.22 0zm7.075 0a2.286 2.286 0 114.57 0 2.286 2.286 0 01-4.57 0zm7.53 0a1.005 1.005 0 112.01 0 1.005 1.005 0 01-2.01 0zm18.726 0a1.03 1.03 0 112.058 0 1.03 1.03 0 01-2.058 0zm5.91 0a1.37 1.37 0 112.738 0 1.37 1.37 0 01-2.738 0zm6.127 0a1.492 1.492 0 112.984 0 1.492 1.492 0 01-2.984 0zm6.314 0a1.428 1.428 0 112.856 0 1.428 1.428 0 01-2.856 0zm6.419 0a1.26 1.26 0 112.518 0 1.26 1.26 0 01-2.518 0zm6.477 0a1.032 1.032 0 112.064 0 1.032 1.032 0 01-2.064 0zm6.507 0a.775.775 0 111.55 0 .775.775 0 01-1.55 0zm6.43 0a.594.594 0 111.19 0 .594.594 0 01-1.19 0zm-162.423 6.25a.518.518 0 111.036 0 .518.518 0 01-1.036 0zm6.115 0a.653.653 0 111.306 0 .653.653 0 01-1.306 0zm6.134 0a.769.769 0 111.538 0 .769.769 0 01-1.538 0zm6.161 0a.858.858 0 111.716 0 .858.858 0 01-1.716 0zm6.232 0a.876.876 0 111.752 0 .876.876 0 01-1.752 0zm6.378 0a.748.748 0 111.496 0 .748.748 0 01-1.496 0zm24.795 0a.953.953 0 111.906 0 .953.953 0 01-1.906 0zm5.288 0a1.915 1.915 0 113.83 0 1.915 1.915 0 01-3.83 0zm5.34 0a2.825 2.825 0 115.65 0 2.825 2.825 0 01-5.65 0z"/>
  <path paint-order="stroke fill markers" d="M193.75 246.875a3.125 3.125 0 116.25 0 3.125 3.125 0 01-6.25 0zm6.25 0a3.125 3.125 0 116.25 0 3.125 3.125 0 01-6.25 0zm6.366 0a3.009 3.009 0 116.018 0 3.009 3.009 0 01-6.018 0zm7.004 0a2.255 2.255 0 114.51 0 2.255 2.255 0 01-4.51 0zm7.246 0a1.26 1.26 0 112.518 0 1.26 1.26 0 01-2.518 0zm25.585 0a.674.674 0 111.348 0 .674.674 0 01-1.348 0zm6.069 0a.855.855 0 111.71 0 .855.855 0 01-1.71 0zm6.232 0a.873.873 0 111.746 0 .873.873 0 01-1.746 0zm6.32 0a.803.803 0 111.606 0 .803.803 0 01-1.606 0zm6.358 0a.695.695 0 111.39 0 .695.695 0 01-1.39 0zm6.394 0a.551.551 0 111.102 0 .551.551 0 01-1.102 0zm-100.5 6.25a1.05 1.05 0 112.102 0 1.05 1.05 0 01-2.102 0zm5.549 0a1.752 1.752 0 113.504 0 1.752 1.752 0 01-3.504 0zm5.627 0a2.374 2.374 0 114.75 0 2.374 2.374 0 01-4.75 0z"/>
  <path paint-order="stroke fill markers" d="M194.06 253.125a2.816 2.816 0 115.63 0 2.816 2.816 0 01-5.63 0zm6.185 0a2.88 2.88 0 115.76 0 2.88 2.88 0 01-5.76 0zm6.572 0a2.558 2.558 0 115.116 0 2.558 2.558 0 01-5.116 0zm6.841 0a1.967 1.967 0 113.934 0 1.967 1.967 0 01-3.934 0zm6.921 0a1.296 1.296 0 112.592 0 1.296 1.296 0 01-2.592 0zm7.01 0a.536.536 0 111.072 0 .536.536 0 01-1.072 0zm-50.444 6.25a.98.98 0 111.96 0 .98.98 0 01-1.96 0zm5.72 0a1.51 1.51 0 113.02 0 1.51 1.51 0 01-3.02 0zm5.83 0a1.93 1.93 0 113.86 0 1.93 1.93 0 01-3.86 0zm5.968 0a2.212 2.212 0 114.424 0 2.212 2.212 0 01-4.424 0zm6.204 0a2.258 2.258 0 114.516 0 2.258 2.258 0 01-4.516 0zm6.471 0a2.037 2.037 0 114.074 0 2.037 2.037 0 01-4.074 0zm6.62 0a1.667 1.667 0 113.334 0 1.667 1.667 0 01-3.334 0zm6.756 0a1.161 1.161 0 112.322 0 1.161 1.161 0 01-2.322 0zm6.829 0a.582.582 0 111.164 0 .582.582 0 01-1.164 0zm-50.248 6.25a.83.83 0 111.66 0 .83.83 0 01-1.66 0zm5.861 0a1.22 1.22 0 112.438 0 1.22 1.22 0 01-2.438 0zm5.937 0a1.532 1.532 0 113.064 0 1.532 1.532 0 01-3.064 0zm6.067 0a1.716 1.716 0 113.43 0 1.716 1.716 0 01-3.43 0zm6.219 0a1.746 1.746 0 113.492 0 1.746 1.746 0 01-3.492 0zm6.388 0a1.608 1.608 0 113.216 0 1.608 1.608 0 01-3.216 0zm6.525 0a1.333 1.333 0 112.666 0 1.333 1.333 0 01-2.666 0zm6.624 0a.959.959 0 111.918 0 .959.959 0 01-1.918 0zm6.658 0a.551.551 0 111.102 0 .551.551 0 01-1.102 0zm-50.117 6.25a.668.668 0 111.336 0 .668.668 0 01-1.336 0zm6.002 0a.916.916 0 111.832 0 .916.916 0 01-1.832 0zm6.017 0a1.149 1.149 0 112.298 0 1.149 1.149 0 01-2.298 0zm6.109 0a1.29 1.29 0 112.58 0 1.29 1.29 0 01-2.58 0zm6.229 0a1.311 1.311 0 112.622 0 1.311 1.311 0 01-2.622 0zm6.354 0a1.207 1.207 0 112.414 0 1.207 1.207 0 01-2.414 0zm6.462 0a.996.996 0 111.99 0 .996.996 0 01-1.99 0zm6.494 0a.75.75 0 111.502 0 .75.75 0 01-1.502 0zm-37.395 6.25a.646.646 0 111.292 0 .646.646 0 01-1.292 0zm6.131 0a.766.766 0 111.53 0 .766.766 0 01-1.53 0zm6.166 0a.849.849 0 111.698 0 .849.849 0 01-1.698 0zm6.232 0a.867.867 0 111.734 0 .867.867 0 01-1.734 0zm6.317 0a.8.8 0 111.6 0 .8.8 0 01-1.6 0zm6.361 0a.69.69 0 111.378 0 .69.69 0 01-1.378 0zm6.391 0a.548.548 0 111.096 0 .548.548 0 01-1.096 0zm-31.25 6.25a.548.548 0 111.096 0 .548.548 0 01-1.096 0zm6.198 0a.6.6 0 111.2 0 .6.6 0 01-1.2 0zm6.243 0a.607.607 0 111.214 0 .607.607 0 01-1.214 0zm6.287 0a.57.57 0 111.14 0 .57.57 0 01-1.14 0z"/>
  <svg xmlns="http://www.w3.org/2000/svg" viewBox="0 0 784.852 59.449" x="308" y="159">
    <path d="M19.998 11.019v45.063h-7.925V11.019H0V3.571h32.037v7.448zM48.307 3.57l13.673 35.1L76.263 1.02l13.672 37.649L104.457 3.57h8.604L89.595 59.415 76.093 22.208l-14.08 37.241-22.31-55.878zm82.691 0v52.512h-7.924V3.571zm16.1 52.512V0l38.295 40.063V3.572h7.924v55.707l-38.295-39.96v36.764zm95.186-21.325v21.325h-7.924V3.571h8.979a40.487 40.487 0 019.964.918 13.36 13.36 0 015.986 3.469 14.946 14.946 0 014.523 11.155q0 7.211-4.83 11.427t-13.025 4.217zm0-7.345h2.959q10.916 0 10.917-8.4 0-8.129-11.257-8.129h-2.62zm60.176 15.916h-22.48l-5.85 12.754h-8.536L291.578.272l25.065 55.81h-8.672zm-3.23-7.448l-7.789-17.855-8.162 17.855zm45.246-2.177l16.256 22.379h-9.692l-14.999-21.495h-1.428v21.495h-7.924V3.571h9.284q10.408 0 15.032 3.91a14.368 14.368 0 015.102 11.496 14.916 14.916 0 01-3.197 9.59 14.245 14.245 0 01-8.434 5.136zm-9.863-6.02h2.516q11.258 0 11.258-8.604 0-8.06-10.951-8.06h-2.823zm68.34 15.645h-22.48l-5.85 12.754h-8.537L392.07.272l25.064 55.81h-8.671zm-3.232-7.448l-7.788-17.855-8.162 17.855zm27.459 20.202V3.571h11.018a40.113 40.113 0 0112.516 1.564 23.425 23.425 0 018.945 5.204q8.128 7.414 8.128 19.487 0 12.108-8.468 19.59a24.724 24.724 0 01-8.91 5.203q-4.354 1.464-12.346 1.463zm7.924-7.448h3.571a29.8 29.8 0 008.876-1.122 18.024 18.024 0 0012.244-17.686 18.245 18.245 0 00-5.782-14.012q-5.203-4.795-15.338-4.795h-3.571zm43.513-19.046a25.714 25.714 0 018.129-19.045 26.75 26.75 0 0119.453-7.958 26.255 26.255 0 0119.249 8.026 26.238 26.238 0 018.06 19.283 25.819 25.819 0 01-8.095 19.215 27.745 27.745 0 01-37.886.885q-8.911-7.787-8.91-20.406zm7.992.102a18.981 18.981 0 005.85 14.319 19.375 19.375 0 0027.378-.103 19.34 19.34 0 005.68-14.08 19.242 19.242 0 00-5.612-14.08 19.584 19.584 0 00-27.65 0 18.945 18.945 0 00-5.646 13.944zm69.664-1.054L541.82 3.57h9.012l10.033 17.787L571.408 3.57h9.08l-15.134 25.065 15.883 27.446h-8.877l-11.63-20.1-11.973 20.1h-8.978zM624.694 3.57v45.064h15.44v7.448H616.77V3.571zm60.211 39.758h-22.48l-5.85 12.754h-8.537L674.022.272l25.064 55.81h-8.671zm-3.232-7.448l-7.788-17.855-8.162 17.855zm27.46 20.202V3.571h7.89a34.53 34.53 0 018.4.816 12.62 12.62 0 015.34 2.755 14.318 14.318 0 013.503 5 15.138 15.138 0 011.326 6.12 12.405 12.405 0 01-4.319 9.558 12.694 12.694 0 016.599 4.999 14.107 14.107 0 012.448 8.231 13.984 13.984 0 01-4.354 10.406 14.284 14.284 0 01-5.883 3.64 34.232 34.232 0 01-8.945.987zm7.924-29.963h2.483q4.42 0 6.48-1.955a7.587 7.587 0 002.057-5.765 7.234 7.234 0 00-2.108-5.629 8.793 8.793 0 00-6.122-1.921h-2.79zm0 22.515h4.898q5.373 0 7.89-2.109a7.29 7.29 0 002.653-5.782 7.408 7.408 0 00-2.551-5.713q-2.483-2.279-8.876-2.279h-4.014zm66.435-37.241l-6.428 3.81a11.046 11.046 0 00-3.436-4.082 8.014 8.014 0 00-4.386-1.088 8.1 8.1 0 00-5.476 1.87 5.797 5.797 0 00-2.177 4.625q0 3.844 5.714 6.19l5.238 2.143q6.392 2.585 9.352 6.308a14.221 14.221 0 012.96 9.133 16.042 16.042 0 01-4.83 11.97 16.574 16.574 0 01-12.074 4.762 16.15 16.15 0 01-11.291-4.047q-4.387-4.047-5.476-11.393l8.027-1.769q.543 4.626 1.904 6.394a9.05 9.05 0 0013.298.919 8.589 8.589 0 002.449-6.292 8.83 8.83 0 00-.426-2.806 7.12 7.12 0 00-1.326-2.347 10.605 10.605 0 00-2.33-2.007 22.569 22.569 0 00-3.4-1.785l-5.068-2.109q-10.781-4.557-10.781-13.332a12.648 12.648 0 014.523-9.897A16.345 16.345 0 01769.31 2.55q9.081 0 14.183 8.843z"/>
  </svg>
</svg>
